M48
; DRILL file {KiCad 5.1.5+dfsg1-2build2} date Thu 24 Mar 2022 11:55:20 AM EDT
; FORMAT={-:-/ absolute / inch / decimal}
; #@! TF.CreationDate,2022-03-24T11:55:20-04:00
; #@! TF.GenerationSoftware,Kicad,Pcbnew,5.1.5+dfsg1-2build2
; #@! TF.FileFunction,Plated,1,2,PTH
FMAT,2
INCH
T1C0.0130
T2C0.0157
T3C0.0197
T4C0.0315
T5C0.0394
T6C0.0512
T7C0.0591
%
G90
G05
T1
X5.74Y-2.025
X5.86Y-2.675
T2
X4.914Y-2.586
X5.33Y-3.51
X5.5842Y-2.8942
X5.62Y-3.51
X5.64Y-2.38
X5.755Y-4.75
X5.86Y-4.75
X5.89Y-3.24
X5.98Y-3.49
X6.06Y-2.38
X6.06Y-4.75
X6.065Y-2.915
X6.2Y-3.11
X6.22Y-2.64
X6.27Y-4.5
X6.29Y-4.61
X6.3075Y-3.2375
X6.31Y-4.1
X6.55Y-4.5
T3
X6.16Y-2.585
X6.16Y-2.685
T5
X4.96Y-4.87
X4.96Y-4.97
X5.06Y-4.87
X5.06Y-4.97
X5.16Y-4.87
X5.16Y-4.97
X5.26Y-4.87
X5.26Y-4.97
X5.36Y-4.87
X5.36Y-4.97
X5.46Y-4.87
X5.46Y-4.97
X5.56Y-4.87
X5.56Y-4.97
X5.66Y-4.87
X5.66Y-4.97
X5.76Y-4.87
X5.76Y-4.97
X5.86Y-4.87
X5.86Y-4.97
X5.96Y-4.87
X5.96Y-4.97
X6.06Y-4.87
X6.06Y-4.97
X6.16Y-4.87
X6.16Y-4.97
X6.26Y-4.87
X6.26Y-4.97
X6.36Y-4.87
X6.36Y-4.97
X6.7Y-3.02
X6.7Y-3.12
X6.7Y-3.22
X6.7Y-3.32
X4.43Y-4.95
X4.53Y-4.95
X5.575Y-1.7
X5.575Y-1.8
X6.04Y-3.105
X5.8Y-3.105
X5.26Y-3.65
X5.26Y-4.25
X5.36Y-3.65
X5.36Y-4.25
X5.46Y-3.65
X5.46Y-4.25
X5.56Y-3.65
X5.56Y-4.25
X5.66Y-3.65
X5.66Y-4.25
X5.76Y-3.65
X5.76Y-4.25
X5.86Y-3.65
X5.86Y-4.25
X5.96Y-3.65
X5.96Y-4.25
X6.06Y-3.65
X6.06Y-4.25
X6.16Y-3.65
X6.16Y-4.25
X6.26Y-3.65
X6.26Y-4.25
X6.36Y-3.65
X6.36Y-4.25
X6.46Y-3.65
X6.46Y-4.25
X6.56Y-3.65
X6.56Y-4.25
X6.66Y-3.65
X6.66Y-4.25
X5.59Y-3.105
X5.375Y-1.7
X5.375Y-1.8
X5.375Y-1.9
X3.7951Y-3.9822
X3.8935Y-3.9822
X4.1888Y-3.9822
X4.2872Y-3.9822
T7
X3.7361Y-2.4468
X3.8935Y-2.4468
X4.2479Y-2.4468
X4.4054Y-2.4468
T4
G00X4.5731Y-1.8831
M15
G01X4.5731Y-1.9106
M16
G05
G00X4.6716Y-1.8831
M15
G01X4.6716Y-1.9106
M16
G05
G00X4.7838Y-1.7
M15
G01X4.7562Y-1.7
M16
G05
G00X4.8684Y-1.8831
M15
G01X4.8684Y-1.9106
M16
G05
G00X4.9669Y-1.8831
M15
G01X4.9669Y-1.9106
M16
G05
T5
G00X4.01Y-2.0602
M15
G01X4.01Y-2.0091
M16
G05
G00X4.0992Y-4.5041
M15
G01X4.0008Y-4.5041
M16
G05
G00X4.0894Y-4.7403
M15
G01X4.0106Y-4.7403
M16
G05
G00X4.235Y-4.5828
M15
G01X4.235Y-4.6616
M16
G05
G00X5.89Y-2.0502
M15
G01X5.89Y-1.9991
M16
G05
T6
G00X3.9687Y-1.8575
M15
G01X4.0513Y-1.8575
M16
G05
G00X5.8487Y-1.8475
M15
G01X5.9313Y-1.8475
M16
G05
T0
M30
