%TF.GenerationSoftware,KiCad,Pcbnew,5.1.5+dfsg1-2build2*%
%TF.CreationDate,2022-03-24T11:55:02-04:00*%
%TF.ProjectId,Arduino controlled radio,41726475-696e-46f2-9063-6f6e74726f6c,rev?*%
%TF.SameCoordinates,Original*%
%TF.FileFunction,Profile,NP*%
%FSLAX46Y46*%
G04 Gerber Fmt 4.6, Leading zero omitted, Abs format (unit mm)*
G04 Created by KiCad (PCBNEW 5.1.5+dfsg1-2build2) date 2022-03-24 11:55:02*
%MOMM*%
%LPD*%
G04 APERTURE LIST*
%TA.AperFunction,Profile*%
%ADD10C,0.050000*%
%TD*%
%TA.AperFunction,Profile*%
%ADD11C,0.000100*%
%TD*%
G04 APERTURE END LIST*
D10*
X83820000Y-130175000D02*
X83820000Y-38100000D01*
X175895000Y-38100000D02*
X175895000Y-130175000D01*
X83820000Y-38100000D02*
X175895000Y-38100000D01*
X175895000Y-130175000D02*
X83820000Y-130175000D01*
D11*
%TO.C,J8*%
X96704000Y-44880000D02*
X98504000Y-44880000D01*
X98504000Y-44880000D02*
X98504000Y-43180000D01*
X98504000Y-43180000D02*
X96704000Y-43180000D01*
X96704000Y-43180000D02*
X96704000Y-44880000D01*
X105204000Y-44880000D02*
X107004000Y-44880000D01*
X107004000Y-44880000D02*
X107004000Y-43180000D01*
X107004000Y-43180000D02*
X105204000Y-43180000D01*
X105204000Y-43180000D02*
X105204000Y-44880000D01*
%TO.C,J7*%
X119158000Y-38680000D02*
X115158000Y-38680000D01*
X119158000Y-39880000D02*
X119158000Y-38680000D01*
X123158000Y-39880000D02*
X119158000Y-39880000D01*
X123158000Y-38680000D02*
X123158000Y-39880000D01*
X127158000Y-38680000D02*
X123158000Y-38680000D01*
%TO.C,J5*%
X144456000Y-44626000D02*
X146256000Y-44626000D01*
X146256000Y-44626000D02*
X146256000Y-42926000D01*
X146256000Y-42926000D02*
X144456000Y-42926000D01*
X144456000Y-42926000D02*
X144456000Y-44626000D01*
X152956000Y-44626000D02*
X154756000Y-44626000D01*
X154756000Y-44626000D02*
X154756000Y-42926000D01*
X154756000Y-42926000D02*
X152956000Y-42926000D01*
X152956000Y-42926000D02*
X152956000Y-44626000D01*
%TD*%
M02*
