%TF.GenerationSoftware,KiCad,Pcbnew,5.1.5+dfsg1-2build2*%
%TF.CreationDate,2022-03-24T11:55:02-04:00*%
%TF.ProjectId,Arduino controlled radio,41726475-696e-46f2-9063-6f6e74726f6c,rev?*%
%TF.SameCoordinates,Original*%
%TF.FileFunction,Soldermask,Bot*%
%TF.FilePolarity,Negative*%
%FSLAX46Y46*%
G04 Gerber Fmt 4.6, Leading zero omitted, Abs format (unit mm)*
G04 Created by KiCad (PCBNEW 5.1.5+dfsg1-2build2) date 2022-03-24 11:55:02*
%MOMM*%
%LPD*%
G04 APERTURE LIST*
%ADD10O,1.700000X1.700000*%
%ADD11R,1.700000X1.700000*%
%ADD12C,3.000000*%
%ADD13C,3.200000*%
%ADD14O,1.600000X1.600000*%
%ADD15R,1.600000X1.600000*%
%ADD16C,4.300000*%
%ADD17C,1.000000*%
%ADD18O,4.800001X2.400000*%
%ADD19O,1.700000X3.400001*%
%ADD20O,2.616000X1.308000*%
%ADD21O,1.308000X2.616000*%
%ADD22C,1.200000*%
%ADD23C,2.000000*%
%ADD24O,5.000000X2.500000*%
%ADD25O,4.500000X2.250000*%
%ADD26O,2.250000X4.500000*%
G04 APERTURE END LIST*
D10*
%TO.C,J2*%
X161544000Y-123698000D03*
X161544000Y-126238000D03*
X159004000Y-123698000D03*
X159004000Y-126238000D03*
X156464000Y-123698000D03*
X156464000Y-126238000D03*
X153924000Y-123698000D03*
X153924000Y-126238000D03*
X151384000Y-123698000D03*
X151384000Y-126238000D03*
X148844000Y-123698000D03*
X148844000Y-126238000D03*
X146304000Y-123698000D03*
X146304000Y-126238000D03*
X143764000Y-123698000D03*
X143764000Y-126238000D03*
X141224000Y-123698000D03*
X141224000Y-126238000D03*
X138684000Y-123698000D03*
X138684000Y-126238000D03*
X136144000Y-123698000D03*
X136144000Y-126238000D03*
X133604000Y-123698000D03*
X133604000Y-126238000D03*
X131064000Y-123698000D03*
X131064000Y-126238000D03*
X128524000Y-123698000D03*
X128524000Y-126238000D03*
X125984000Y-123698000D03*
D11*
X125984000Y-126238000D03*
%TD*%
D12*
%TO.C,U4*%
X111896000Y-62148000D03*
X107896000Y-62148000D03*
X98896000Y-62148000D03*
X94896000Y-62148000D03*
D10*
X108896000Y-101148000D03*
X106396000Y-101148000D03*
X98896000Y-101148000D03*
X96396000Y-101148000D03*
D13*
X88396000Y-61648000D03*
X88396000Y-101648000D03*
X117396000Y-61648000D03*
X117396000Y-101648000D03*
%TD*%
D14*
%TO.C,A1*%
X169164000Y-92710000D03*
X169164000Y-107950000D03*
X133604000Y-92710000D03*
X166624000Y-107950000D03*
X136144000Y-92710000D03*
X164084000Y-107950000D03*
X138684000Y-92710000D03*
X161544000Y-107950000D03*
X141224000Y-92710000D03*
X159004000Y-107950000D03*
X143764000Y-92710000D03*
X156464000Y-107950000D03*
X146304000Y-92710000D03*
X153924000Y-107950000D03*
X148844000Y-92710000D03*
X151384000Y-107950000D03*
X151384000Y-92710000D03*
X148844000Y-107950000D03*
X153924000Y-92710000D03*
X146304000Y-107950000D03*
X156464000Y-92710000D03*
X143764000Y-107950000D03*
X159004000Y-92710000D03*
X141224000Y-107950000D03*
X161544000Y-92710000D03*
X138684000Y-107950000D03*
X164084000Y-92710000D03*
X136144000Y-107950000D03*
X166624000Y-92710000D03*
D15*
X133604000Y-107950000D03*
%TD*%
D16*
%TO.C,REF\002A\002A*%
X90120000Y-44175000D03*
%TD*%
%TO.C,REF\002A\002A*%
X170120000Y-44175000D03*
%TD*%
%TO.C,REF\002A\002A*%
X170120000Y-124175000D03*
%TD*%
%TO.C,REF\002A\002A*%
X89820000Y-124175000D03*
%TD*%
D17*
%TO.C,Y1*%
X156464000Y-65659000D03*
X156464000Y-68199000D03*
%TD*%
D18*
%TO.C,J8*%
X101854000Y-47180000D03*
D19*
X101854000Y-51680000D03*
%TD*%
D20*
%TO.C,J7*%
X121158000Y-43180000D03*
D21*
X116158000Y-48180000D03*
X118658000Y-48180000D03*
X123658000Y-48180000D03*
X126158000Y-48180000D03*
D22*
X126158000Y-40680000D03*
X126158000Y-43180000D03*
X121158000Y-48180000D03*
X116158000Y-40680000D03*
X116158000Y-43180000D03*
%TD*%
D23*
%TO.C,TP2*%
X147320000Y-78867000D03*
%TD*%
D10*
%TO.C,J4*%
X170180000Y-84328000D03*
X170180000Y-81788000D03*
X170180000Y-79248000D03*
D11*
X170180000Y-76708000D03*
%TD*%
D24*
%TO.C,J1*%
X102870000Y-114404000D03*
D25*
X102870000Y-120404000D03*
D26*
X107570000Y-117404000D03*
%TD*%
D23*
%TO.C,TP3*%
X141986000Y-78867000D03*
%TD*%
D10*
%TO.C,J6*%
X141605000Y-45720000D03*
D11*
X141605000Y-43180000D03*
%TD*%
D23*
%TO.C,TP1*%
X153416000Y-78867000D03*
%TD*%
D10*
%TO.C,JP1*%
X136525000Y-43180000D03*
X136525000Y-45720000D03*
D11*
X136525000Y-48260000D03*
%TD*%
D10*
%TO.C,J3*%
X115062000Y-125730000D03*
D11*
X112522000Y-125730000D03*
%TD*%
D18*
%TO.C,J5*%
X149606000Y-46926000D03*
D19*
X149606000Y-51426000D03*
%TD*%
M02*
