%TF.GenerationSoftware,KiCad,Pcbnew,5.1.5+dfsg1-2build2*%
%TF.CreationDate,2022-03-24T11:55:02-04:00*%
%TF.ProjectId,Arduino controlled radio,41726475-696e-46f2-9063-6f6e74726f6c,rev?*%
%TF.SameCoordinates,Original*%
%TF.FileFunction,Soldermask,Top*%
%TF.FilePolarity,Negative*%
%FSLAX46Y46*%
G04 Gerber Fmt 4.6, Leading zero omitted, Abs format (unit mm)*
G04 Created by KiCad (PCBNEW 5.1.5+dfsg1-2build2) date 2022-03-24 11:55:02*
%MOMM*%
%LPD*%
G04 APERTURE LIST*
%ADD10O,1.700000X1.700000*%
%ADD11R,1.700000X1.700000*%
%ADD12R,0.558800X1.981200*%
%ADD13C,0.100000*%
%ADD14C,3.000000*%
%ADD15C,3.200000*%
%ADD16O,1.600000X1.600000*%
%ADD17R,1.600000X1.600000*%
%ADD18C,4.300000*%
%ADD19C,1.000000*%
%ADD20O,4.800001X2.400000*%
%ADD21O,1.700000X3.400001*%
%ADD22O,2.616000X1.308000*%
%ADD23O,1.308000X2.616000*%
%ADD24C,1.200000*%
%ADD25C,2.000000*%
%ADD26R,0.800000X0.900000*%
%ADD27R,0.800000X1.900000*%
%ADD28O,5.000000X2.500000*%
%ADD29O,4.500000X2.250000*%
%ADD30O,2.250000X4.500000*%
%ADD31R,0.400000X1.200000*%
G04 APERTURE END LIST*
D10*
%TO.C,J2*%
X161544000Y-123698000D03*
X161544000Y-126238000D03*
X159004000Y-123698000D03*
X159004000Y-126238000D03*
X156464000Y-123698000D03*
X156464000Y-126238000D03*
X153924000Y-123698000D03*
X153924000Y-126238000D03*
X151384000Y-123698000D03*
X151384000Y-126238000D03*
X148844000Y-123698000D03*
X148844000Y-126238000D03*
X146304000Y-123698000D03*
X146304000Y-126238000D03*
X143764000Y-123698000D03*
X143764000Y-126238000D03*
X141224000Y-123698000D03*
X141224000Y-126238000D03*
X138684000Y-123698000D03*
X138684000Y-126238000D03*
X136144000Y-123698000D03*
X136144000Y-126238000D03*
X133604000Y-123698000D03*
X133604000Y-126238000D03*
X131064000Y-123698000D03*
X131064000Y-126238000D03*
X128524000Y-123698000D03*
X128524000Y-126238000D03*
X125984000Y-123698000D03*
D11*
X125984000Y-126238000D03*
%TD*%
D12*
%TO.C,U3*%
X129794000Y-71120000D03*
X128524000Y-71120000D03*
X127254000Y-71120000D03*
X125984000Y-71120000D03*
X125984000Y-66192400D03*
X127254000Y-66192400D03*
X128524000Y-66192400D03*
X129794000Y-66192400D03*
%TD*%
D13*
%TO.C,R13*%
G36*
X126079505Y-74485204D02*
G01*
X126103773Y-74488804D01*
X126127572Y-74494765D01*
X126150671Y-74503030D01*
X126172850Y-74513520D01*
X126193893Y-74526132D01*
X126213599Y-74540747D01*
X126231777Y-74557223D01*
X126248253Y-74575401D01*
X126262868Y-74595107D01*
X126275480Y-74616150D01*
X126285970Y-74638329D01*
X126294235Y-74661428D01*
X126300196Y-74685227D01*
X126303796Y-74709495D01*
X126305000Y-74733999D01*
X126305000Y-75634001D01*
X126303796Y-75658505D01*
X126300196Y-75682773D01*
X126294235Y-75706572D01*
X126285970Y-75729671D01*
X126275480Y-75751850D01*
X126262868Y-75772893D01*
X126248253Y-75792599D01*
X126231777Y-75810777D01*
X126213599Y-75827253D01*
X126193893Y-75841868D01*
X126172850Y-75854480D01*
X126150671Y-75864970D01*
X126127572Y-75873235D01*
X126103773Y-75879196D01*
X126079505Y-75882796D01*
X126055001Y-75884000D01*
X125404999Y-75884000D01*
X125380495Y-75882796D01*
X125356227Y-75879196D01*
X125332428Y-75873235D01*
X125309329Y-75864970D01*
X125287150Y-75854480D01*
X125266107Y-75841868D01*
X125246401Y-75827253D01*
X125228223Y-75810777D01*
X125211747Y-75792599D01*
X125197132Y-75772893D01*
X125184520Y-75751850D01*
X125174030Y-75729671D01*
X125165765Y-75706572D01*
X125159804Y-75682773D01*
X125156204Y-75658505D01*
X125155000Y-75634001D01*
X125155000Y-74733999D01*
X125156204Y-74709495D01*
X125159804Y-74685227D01*
X125165765Y-74661428D01*
X125174030Y-74638329D01*
X125184520Y-74616150D01*
X125197132Y-74595107D01*
X125211747Y-74575401D01*
X125228223Y-74557223D01*
X125246401Y-74540747D01*
X125266107Y-74526132D01*
X125287150Y-74513520D01*
X125309329Y-74503030D01*
X125332428Y-74494765D01*
X125356227Y-74488804D01*
X125380495Y-74485204D01*
X125404999Y-74484000D01*
X126055001Y-74484000D01*
X126079505Y-74485204D01*
G37*
G36*
X124029505Y-74485204D02*
G01*
X124053773Y-74488804D01*
X124077572Y-74494765D01*
X124100671Y-74503030D01*
X124122850Y-74513520D01*
X124143893Y-74526132D01*
X124163599Y-74540747D01*
X124181777Y-74557223D01*
X124198253Y-74575401D01*
X124212868Y-74595107D01*
X124225480Y-74616150D01*
X124235970Y-74638329D01*
X124244235Y-74661428D01*
X124250196Y-74685227D01*
X124253796Y-74709495D01*
X124255000Y-74733999D01*
X124255000Y-75634001D01*
X124253796Y-75658505D01*
X124250196Y-75682773D01*
X124244235Y-75706572D01*
X124235970Y-75729671D01*
X124225480Y-75751850D01*
X124212868Y-75772893D01*
X124198253Y-75792599D01*
X124181777Y-75810777D01*
X124163599Y-75827253D01*
X124143893Y-75841868D01*
X124122850Y-75854480D01*
X124100671Y-75864970D01*
X124077572Y-75873235D01*
X124053773Y-75879196D01*
X124029505Y-75882796D01*
X124005001Y-75884000D01*
X123354999Y-75884000D01*
X123330495Y-75882796D01*
X123306227Y-75879196D01*
X123282428Y-75873235D01*
X123259329Y-75864970D01*
X123237150Y-75854480D01*
X123216107Y-75841868D01*
X123196401Y-75827253D01*
X123178223Y-75810777D01*
X123161747Y-75792599D01*
X123147132Y-75772893D01*
X123134520Y-75751850D01*
X123124030Y-75729671D01*
X123115765Y-75706572D01*
X123109804Y-75682773D01*
X123106204Y-75658505D01*
X123105000Y-75634001D01*
X123105000Y-74733999D01*
X123106204Y-74709495D01*
X123109804Y-74685227D01*
X123115765Y-74661428D01*
X123124030Y-74638329D01*
X123134520Y-74616150D01*
X123147132Y-74595107D01*
X123161747Y-74575401D01*
X123178223Y-74557223D01*
X123196401Y-74540747D01*
X123216107Y-74526132D01*
X123237150Y-74513520D01*
X123259329Y-74503030D01*
X123282428Y-74494765D01*
X123306227Y-74488804D01*
X123330495Y-74485204D01*
X123354999Y-74484000D01*
X124005001Y-74484000D01*
X124029505Y-74485204D01*
G37*
%TD*%
%TO.C,C10*%
G36*
X140557505Y-65087204D02*
G01*
X140581773Y-65090804D01*
X140605572Y-65096765D01*
X140628671Y-65105030D01*
X140650850Y-65115520D01*
X140671893Y-65128132D01*
X140691599Y-65142747D01*
X140709777Y-65159223D01*
X140726253Y-65177401D01*
X140740868Y-65197107D01*
X140753480Y-65218150D01*
X140763970Y-65240329D01*
X140772235Y-65263428D01*
X140778196Y-65287227D01*
X140781796Y-65311495D01*
X140783000Y-65335999D01*
X140783000Y-66236001D01*
X140781796Y-66260505D01*
X140778196Y-66284773D01*
X140772235Y-66308572D01*
X140763970Y-66331671D01*
X140753480Y-66353850D01*
X140740868Y-66374893D01*
X140726253Y-66394599D01*
X140709777Y-66412777D01*
X140691599Y-66429253D01*
X140671893Y-66443868D01*
X140650850Y-66456480D01*
X140628671Y-66466970D01*
X140605572Y-66475235D01*
X140581773Y-66481196D01*
X140557505Y-66484796D01*
X140533001Y-66486000D01*
X139882999Y-66486000D01*
X139858495Y-66484796D01*
X139834227Y-66481196D01*
X139810428Y-66475235D01*
X139787329Y-66466970D01*
X139765150Y-66456480D01*
X139744107Y-66443868D01*
X139724401Y-66429253D01*
X139706223Y-66412777D01*
X139689747Y-66394599D01*
X139675132Y-66374893D01*
X139662520Y-66353850D01*
X139652030Y-66331671D01*
X139643765Y-66308572D01*
X139637804Y-66284773D01*
X139634204Y-66260505D01*
X139633000Y-66236001D01*
X139633000Y-65335999D01*
X139634204Y-65311495D01*
X139637804Y-65287227D01*
X139643765Y-65263428D01*
X139652030Y-65240329D01*
X139662520Y-65218150D01*
X139675132Y-65197107D01*
X139689747Y-65177401D01*
X139706223Y-65159223D01*
X139724401Y-65142747D01*
X139744107Y-65128132D01*
X139765150Y-65115520D01*
X139787329Y-65105030D01*
X139810428Y-65096765D01*
X139834227Y-65090804D01*
X139858495Y-65087204D01*
X139882999Y-65086000D01*
X140533001Y-65086000D01*
X140557505Y-65087204D01*
G37*
G36*
X138507505Y-65087204D02*
G01*
X138531773Y-65090804D01*
X138555572Y-65096765D01*
X138578671Y-65105030D01*
X138600850Y-65115520D01*
X138621893Y-65128132D01*
X138641599Y-65142747D01*
X138659777Y-65159223D01*
X138676253Y-65177401D01*
X138690868Y-65197107D01*
X138703480Y-65218150D01*
X138713970Y-65240329D01*
X138722235Y-65263428D01*
X138728196Y-65287227D01*
X138731796Y-65311495D01*
X138733000Y-65335999D01*
X138733000Y-66236001D01*
X138731796Y-66260505D01*
X138728196Y-66284773D01*
X138722235Y-66308572D01*
X138713970Y-66331671D01*
X138703480Y-66353850D01*
X138690868Y-66374893D01*
X138676253Y-66394599D01*
X138659777Y-66412777D01*
X138641599Y-66429253D01*
X138621893Y-66443868D01*
X138600850Y-66456480D01*
X138578671Y-66466970D01*
X138555572Y-66475235D01*
X138531773Y-66481196D01*
X138507505Y-66484796D01*
X138483001Y-66486000D01*
X137832999Y-66486000D01*
X137808495Y-66484796D01*
X137784227Y-66481196D01*
X137760428Y-66475235D01*
X137737329Y-66466970D01*
X137715150Y-66456480D01*
X137694107Y-66443868D01*
X137674401Y-66429253D01*
X137656223Y-66412777D01*
X137639747Y-66394599D01*
X137625132Y-66374893D01*
X137612520Y-66353850D01*
X137602030Y-66331671D01*
X137593765Y-66308572D01*
X137587804Y-66284773D01*
X137584204Y-66260505D01*
X137583000Y-66236001D01*
X137583000Y-65335999D01*
X137584204Y-65311495D01*
X137587804Y-65287227D01*
X137593765Y-65263428D01*
X137602030Y-65240329D01*
X137612520Y-65218150D01*
X137625132Y-65197107D01*
X137639747Y-65177401D01*
X137656223Y-65159223D01*
X137674401Y-65142747D01*
X137694107Y-65128132D01*
X137715150Y-65115520D01*
X137737329Y-65105030D01*
X137760428Y-65096765D01*
X137784227Y-65090804D01*
X137808495Y-65087204D01*
X137832999Y-65086000D01*
X138483001Y-65086000D01*
X138507505Y-65087204D01*
G37*
%TD*%
%TO.C,R12*%
G36*
X134207505Y-69151204D02*
G01*
X134231773Y-69154804D01*
X134255572Y-69160765D01*
X134278671Y-69169030D01*
X134300850Y-69179520D01*
X134321893Y-69192132D01*
X134341599Y-69206747D01*
X134359777Y-69223223D01*
X134376253Y-69241401D01*
X134390868Y-69261107D01*
X134403480Y-69282150D01*
X134413970Y-69304329D01*
X134422235Y-69327428D01*
X134428196Y-69351227D01*
X134431796Y-69375495D01*
X134433000Y-69399999D01*
X134433000Y-70300001D01*
X134431796Y-70324505D01*
X134428196Y-70348773D01*
X134422235Y-70372572D01*
X134413970Y-70395671D01*
X134403480Y-70417850D01*
X134390868Y-70438893D01*
X134376253Y-70458599D01*
X134359777Y-70476777D01*
X134341599Y-70493253D01*
X134321893Y-70507868D01*
X134300850Y-70520480D01*
X134278671Y-70530970D01*
X134255572Y-70539235D01*
X134231773Y-70545196D01*
X134207505Y-70548796D01*
X134183001Y-70550000D01*
X133532999Y-70550000D01*
X133508495Y-70548796D01*
X133484227Y-70545196D01*
X133460428Y-70539235D01*
X133437329Y-70530970D01*
X133415150Y-70520480D01*
X133394107Y-70507868D01*
X133374401Y-70493253D01*
X133356223Y-70476777D01*
X133339747Y-70458599D01*
X133325132Y-70438893D01*
X133312520Y-70417850D01*
X133302030Y-70395671D01*
X133293765Y-70372572D01*
X133287804Y-70348773D01*
X133284204Y-70324505D01*
X133283000Y-70300001D01*
X133283000Y-69399999D01*
X133284204Y-69375495D01*
X133287804Y-69351227D01*
X133293765Y-69327428D01*
X133302030Y-69304329D01*
X133312520Y-69282150D01*
X133325132Y-69261107D01*
X133339747Y-69241401D01*
X133356223Y-69223223D01*
X133374401Y-69206747D01*
X133394107Y-69192132D01*
X133415150Y-69179520D01*
X133437329Y-69169030D01*
X133460428Y-69160765D01*
X133484227Y-69154804D01*
X133508495Y-69151204D01*
X133532999Y-69150000D01*
X134183001Y-69150000D01*
X134207505Y-69151204D01*
G37*
G36*
X136257505Y-69151204D02*
G01*
X136281773Y-69154804D01*
X136305572Y-69160765D01*
X136328671Y-69169030D01*
X136350850Y-69179520D01*
X136371893Y-69192132D01*
X136391599Y-69206747D01*
X136409777Y-69223223D01*
X136426253Y-69241401D01*
X136440868Y-69261107D01*
X136453480Y-69282150D01*
X136463970Y-69304329D01*
X136472235Y-69327428D01*
X136478196Y-69351227D01*
X136481796Y-69375495D01*
X136483000Y-69399999D01*
X136483000Y-70300001D01*
X136481796Y-70324505D01*
X136478196Y-70348773D01*
X136472235Y-70372572D01*
X136463970Y-70395671D01*
X136453480Y-70417850D01*
X136440868Y-70438893D01*
X136426253Y-70458599D01*
X136409777Y-70476777D01*
X136391599Y-70493253D01*
X136371893Y-70507868D01*
X136350850Y-70520480D01*
X136328671Y-70530970D01*
X136305572Y-70539235D01*
X136281773Y-70545196D01*
X136257505Y-70548796D01*
X136233001Y-70550000D01*
X135582999Y-70550000D01*
X135558495Y-70548796D01*
X135534227Y-70545196D01*
X135510428Y-70539235D01*
X135487329Y-70530970D01*
X135465150Y-70520480D01*
X135444107Y-70507868D01*
X135424401Y-70493253D01*
X135406223Y-70476777D01*
X135389747Y-70458599D01*
X135375132Y-70438893D01*
X135362520Y-70417850D01*
X135352030Y-70395671D01*
X135343765Y-70372572D01*
X135337804Y-70348773D01*
X135334204Y-70324505D01*
X135333000Y-70300001D01*
X135333000Y-69399999D01*
X135334204Y-69375495D01*
X135337804Y-69351227D01*
X135343765Y-69327428D01*
X135352030Y-69304329D01*
X135362520Y-69282150D01*
X135375132Y-69261107D01*
X135389747Y-69241401D01*
X135406223Y-69223223D01*
X135424401Y-69206747D01*
X135444107Y-69192132D01*
X135465150Y-69179520D01*
X135487329Y-69169030D01*
X135510428Y-69160765D01*
X135534227Y-69154804D01*
X135558495Y-69151204D01*
X135582999Y-69150000D01*
X136233001Y-69150000D01*
X136257505Y-69151204D01*
G37*
%TD*%
D14*
%TO.C,U4*%
X111896000Y-62148000D03*
X107896000Y-62148000D03*
X98896000Y-62148000D03*
X94896000Y-62148000D03*
D10*
X108896000Y-101148000D03*
X106396000Y-101148000D03*
X98896000Y-101148000D03*
X96396000Y-101148000D03*
D15*
X88396000Y-61648000D03*
X88396000Y-101648000D03*
X117396000Y-61648000D03*
X117396000Y-101648000D03*
%TD*%
D13*
%TO.C,C15*%
G36*
X129704504Y-86069204D02*
G01*
X129728773Y-86072804D01*
X129752571Y-86078765D01*
X129775671Y-86087030D01*
X129797849Y-86097520D01*
X129818893Y-86110133D01*
X129838598Y-86124747D01*
X129856777Y-86141223D01*
X129873253Y-86159402D01*
X129887867Y-86179107D01*
X129900480Y-86200151D01*
X129910970Y-86222329D01*
X129919235Y-86245429D01*
X129925196Y-86269227D01*
X129928796Y-86293496D01*
X129930000Y-86318000D01*
X129930000Y-87418000D01*
X129928796Y-87442504D01*
X129925196Y-87466773D01*
X129919235Y-87490571D01*
X129910970Y-87513671D01*
X129900480Y-87535849D01*
X129887867Y-87556893D01*
X129873253Y-87576598D01*
X129856777Y-87594777D01*
X129838598Y-87611253D01*
X129818893Y-87625867D01*
X129797849Y-87638480D01*
X129775671Y-87648970D01*
X129752571Y-87657235D01*
X129728773Y-87663196D01*
X129704504Y-87666796D01*
X129680000Y-87668000D01*
X126855000Y-87668000D01*
X126830496Y-87666796D01*
X126806227Y-87663196D01*
X126782429Y-87657235D01*
X126759329Y-87648970D01*
X126737151Y-87638480D01*
X126716107Y-87625867D01*
X126696402Y-87611253D01*
X126678223Y-87594777D01*
X126661747Y-87576598D01*
X126647133Y-87556893D01*
X126634520Y-87535849D01*
X126624030Y-87513671D01*
X126615765Y-87490571D01*
X126609804Y-87466773D01*
X126606204Y-87442504D01*
X126605000Y-87418000D01*
X126605000Y-86318000D01*
X126606204Y-86293496D01*
X126609804Y-86269227D01*
X126615765Y-86245429D01*
X126624030Y-86222329D01*
X126634520Y-86200151D01*
X126647133Y-86179107D01*
X126661747Y-86159402D01*
X126678223Y-86141223D01*
X126696402Y-86124747D01*
X126716107Y-86110133D01*
X126737151Y-86097520D01*
X126759329Y-86087030D01*
X126782429Y-86078765D01*
X126806227Y-86072804D01*
X126830496Y-86069204D01*
X126855000Y-86068000D01*
X129680000Y-86068000D01*
X129704504Y-86069204D01*
G37*
G36*
X124629504Y-86069204D02*
G01*
X124653773Y-86072804D01*
X124677571Y-86078765D01*
X124700671Y-86087030D01*
X124722849Y-86097520D01*
X124743893Y-86110133D01*
X124763598Y-86124747D01*
X124781777Y-86141223D01*
X124798253Y-86159402D01*
X124812867Y-86179107D01*
X124825480Y-86200151D01*
X124835970Y-86222329D01*
X124844235Y-86245429D01*
X124850196Y-86269227D01*
X124853796Y-86293496D01*
X124855000Y-86318000D01*
X124855000Y-87418000D01*
X124853796Y-87442504D01*
X124850196Y-87466773D01*
X124844235Y-87490571D01*
X124835970Y-87513671D01*
X124825480Y-87535849D01*
X124812867Y-87556893D01*
X124798253Y-87576598D01*
X124781777Y-87594777D01*
X124763598Y-87611253D01*
X124743893Y-87625867D01*
X124722849Y-87638480D01*
X124700671Y-87648970D01*
X124677571Y-87657235D01*
X124653773Y-87663196D01*
X124629504Y-87666796D01*
X124605000Y-87668000D01*
X121780000Y-87668000D01*
X121755496Y-87666796D01*
X121731227Y-87663196D01*
X121707429Y-87657235D01*
X121684329Y-87648970D01*
X121662151Y-87638480D01*
X121641107Y-87625867D01*
X121621402Y-87611253D01*
X121603223Y-87594777D01*
X121586747Y-87576598D01*
X121572133Y-87556893D01*
X121559520Y-87535849D01*
X121549030Y-87513671D01*
X121540765Y-87490571D01*
X121534804Y-87466773D01*
X121531204Y-87442504D01*
X121530000Y-87418000D01*
X121530000Y-86318000D01*
X121531204Y-86293496D01*
X121534804Y-86269227D01*
X121540765Y-86245429D01*
X121549030Y-86222329D01*
X121559520Y-86200151D01*
X121572133Y-86179107D01*
X121586747Y-86159402D01*
X121603223Y-86141223D01*
X121621402Y-86124747D01*
X121641107Y-86110133D01*
X121662151Y-86097520D01*
X121684329Y-86087030D01*
X121707429Y-86078765D01*
X121731227Y-86072804D01*
X121755496Y-86069204D01*
X121780000Y-86068000D01*
X124605000Y-86068000D01*
X124629504Y-86069204D01*
G37*
%TD*%
%TO.C,C16*%
G36*
X112635505Y-54165204D02*
G01*
X112659773Y-54168804D01*
X112683572Y-54174765D01*
X112706671Y-54183030D01*
X112728850Y-54193520D01*
X112749893Y-54206132D01*
X112769599Y-54220747D01*
X112787777Y-54237223D01*
X112804253Y-54255401D01*
X112818868Y-54275107D01*
X112831480Y-54296150D01*
X112841970Y-54318329D01*
X112850235Y-54341428D01*
X112856196Y-54365227D01*
X112859796Y-54389495D01*
X112861000Y-54413999D01*
X112861000Y-55314001D01*
X112859796Y-55338505D01*
X112856196Y-55362773D01*
X112850235Y-55386572D01*
X112841970Y-55409671D01*
X112831480Y-55431850D01*
X112818868Y-55452893D01*
X112804253Y-55472599D01*
X112787777Y-55490777D01*
X112769599Y-55507253D01*
X112749893Y-55521868D01*
X112728850Y-55534480D01*
X112706671Y-55544970D01*
X112683572Y-55553235D01*
X112659773Y-55559196D01*
X112635505Y-55562796D01*
X112611001Y-55564000D01*
X111960999Y-55564000D01*
X111936495Y-55562796D01*
X111912227Y-55559196D01*
X111888428Y-55553235D01*
X111865329Y-55544970D01*
X111843150Y-55534480D01*
X111822107Y-55521868D01*
X111802401Y-55507253D01*
X111784223Y-55490777D01*
X111767747Y-55472599D01*
X111753132Y-55452893D01*
X111740520Y-55431850D01*
X111730030Y-55409671D01*
X111721765Y-55386572D01*
X111715804Y-55362773D01*
X111712204Y-55338505D01*
X111711000Y-55314001D01*
X111711000Y-54413999D01*
X111712204Y-54389495D01*
X111715804Y-54365227D01*
X111721765Y-54341428D01*
X111730030Y-54318329D01*
X111740520Y-54296150D01*
X111753132Y-54275107D01*
X111767747Y-54255401D01*
X111784223Y-54237223D01*
X111802401Y-54220747D01*
X111822107Y-54206132D01*
X111843150Y-54193520D01*
X111865329Y-54183030D01*
X111888428Y-54174765D01*
X111912227Y-54168804D01*
X111936495Y-54165204D01*
X111960999Y-54164000D01*
X112611001Y-54164000D01*
X112635505Y-54165204D01*
G37*
G36*
X110585505Y-54165204D02*
G01*
X110609773Y-54168804D01*
X110633572Y-54174765D01*
X110656671Y-54183030D01*
X110678850Y-54193520D01*
X110699893Y-54206132D01*
X110719599Y-54220747D01*
X110737777Y-54237223D01*
X110754253Y-54255401D01*
X110768868Y-54275107D01*
X110781480Y-54296150D01*
X110791970Y-54318329D01*
X110800235Y-54341428D01*
X110806196Y-54365227D01*
X110809796Y-54389495D01*
X110811000Y-54413999D01*
X110811000Y-55314001D01*
X110809796Y-55338505D01*
X110806196Y-55362773D01*
X110800235Y-55386572D01*
X110791970Y-55409671D01*
X110781480Y-55431850D01*
X110768868Y-55452893D01*
X110754253Y-55472599D01*
X110737777Y-55490777D01*
X110719599Y-55507253D01*
X110699893Y-55521868D01*
X110678850Y-55534480D01*
X110656671Y-55544970D01*
X110633572Y-55553235D01*
X110609773Y-55559196D01*
X110585505Y-55562796D01*
X110561001Y-55564000D01*
X109910999Y-55564000D01*
X109886495Y-55562796D01*
X109862227Y-55559196D01*
X109838428Y-55553235D01*
X109815329Y-55544970D01*
X109793150Y-55534480D01*
X109772107Y-55521868D01*
X109752401Y-55507253D01*
X109734223Y-55490777D01*
X109717747Y-55472599D01*
X109703132Y-55452893D01*
X109690520Y-55431850D01*
X109680030Y-55409671D01*
X109671765Y-55386572D01*
X109665804Y-55362773D01*
X109662204Y-55338505D01*
X109661000Y-55314001D01*
X109661000Y-54413999D01*
X109662204Y-54389495D01*
X109665804Y-54365227D01*
X109671765Y-54341428D01*
X109680030Y-54318329D01*
X109690520Y-54296150D01*
X109703132Y-54275107D01*
X109717747Y-54255401D01*
X109734223Y-54237223D01*
X109752401Y-54220747D01*
X109772107Y-54206132D01*
X109793150Y-54193520D01*
X109815329Y-54183030D01*
X109838428Y-54174765D01*
X109862227Y-54168804D01*
X109886495Y-54165204D01*
X109910999Y-54164000D01*
X110561001Y-54164000D01*
X110585505Y-54165204D01*
G37*
%TD*%
%TO.C,C7*%
G36*
X138675504Y-56944704D02*
G01*
X138699773Y-56948304D01*
X138723571Y-56954265D01*
X138746671Y-56962530D01*
X138768849Y-56973020D01*
X138789893Y-56985633D01*
X138809598Y-57000247D01*
X138827777Y-57016723D01*
X138844253Y-57034902D01*
X138858867Y-57054607D01*
X138871480Y-57075651D01*
X138881970Y-57097829D01*
X138890235Y-57120929D01*
X138896196Y-57144727D01*
X138899796Y-57168996D01*
X138901000Y-57193500D01*
X138901000Y-57868500D01*
X138899796Y-57893004D01*
X138896196Y-57917273D01*
X138890235Y-57941071D01*
X138881970Y-57964171D01*
X138871480Y-57986349D01*
X138858867Y-58007393D01*
X138844253Y-58027098D01*
X138827777Y-58045277D01*
X138809598Y-58061753D01*
X138789893Y-58076367D01*
X138768849Y-58088980D01*
X138746671Y-58099470D01*
X138723571Y-58107735D01*
X138699773Y-58113696D01*
X138675504Y-58117296D01*
X138651000Y-58118500D01*
X137701000Y-58118500D01*
X137676496Y-58117296D01*
X137652227Y-58113696D01*
X137628429Y-58107735D01*
X137605329Y-58099470D01*
X137583151Y-58088980D01*
X137562107Y-58076367D01*
X137542402Y-58061753D01*
X137524223Y-58045277D01*
X137507747Y-58027098D01*
X137493133Y-58007393D01*
X137480520Y-57986349D01*
X137470030Y-57964171D01*
X137461765Y-57941071D01*
X137455804Y-57917273D01*
X137452204Y-57893004D01*
X137451000Y-57868500D01*
X137451000Y-57193500D01*
X137452204Y-57168996D01*
X137455804Y-57144727D01*
X137461765Y-57120929D01*
X137470030Y-57097829D01*
X137480520Y-57075651D01*
X137493133Y-57054607D01*
X137507747Y-57034902D01*
X137524223Y-57016723D01*
X137542402Y-57000247D01*
X137562107Y-56985633D01*
X137583151Y-56973020D01*
X137605329Y-56962530D01*
X137628429Y-56954265D01*
X137652227Y-56948304D01*
X137676496Y-56944704D01*
X137701000Y-56943500D01*
X138651000Y-56943500D01*
X138675504Y-56944704D01*
G37*
G36*
X138675504Y-54869704D02*
G01*
X138699773Y-54873304D01*
X138723571Y-54879265D01*
X138746671Y-54887530D01*
X138768849Y-54898020D01*
X138789893Y-54910633D01*
X138809598Y-54925247D01*
X138827777Y-54941723D01*
X138844253Y-54959902D01*
X138858867Y-54979607D01*
X138871480Y-55000651D01*
X138881970Y-55022829D01*
X138890235Y-55045929D01*
X138896196Y-55069727D01*
X138899796Y-55093996D01*
X138901000Y-55118500D01*
X138901000Y-55793500D01*
X138899796Y-55818004D01*
X138896196Y-55842273D01*
X138890235Y-55866071D01*
X138881970Y-55889171D01*
X138871480Y-55911349D01*
X138858867Y-55932393D01*
X138844253Y-55952098D01*
X138827777Y-55970277D01*
X138809598Y-55986753D01*
X138789893Y-56001367D01*
X138768849Y-56013980D01*
X138746671Y-56024470D01*
X138723571Y-56032735D01*
X138699773Y-56038696D01*
X138675504Y-56042296D01*
X138651000Y-56043500D01*
X137701000Y-56043500D01*
X137676496Y-56042296D01*
X137652227Y-56038696D01*
X137628429Y-56032735D01*
X137605329Y-56024470D01*
X137583151Y-56013980D01*
X137562107Y-56001367D01*
X137542402Y-55986753D01*
X137524223Y-55970277D01*
X137507747Y-55952098D01*
X137493133Y-55932393D01*
X137480520Y-55911349D01*
X137470030Y-55889171D01*
X137461765Y-55866071D01*
X137455804Y-55842273D01*
X137452204Y-55818004D01*
X137451000Y-55793500D01*
X137451000Y-55118500D01*
X137452204Y-55093996D01*
X137455804Y-55069727D01*
X137461765Y-55045929D01*
X137470030Y-55022829D01*
X137480520Y-55000651D01*
X137493133Y-54979607D01*
X137507747Y-54959902D01*
X137524223Y-54941723D01*
X137542402Y-54925247D01*
X137562107Y-54910633D01*
X137583151Y-54898020D01*
X137605329Y-54887530D01*
X137628429Y-54879265D01*
X137652227Y-54873304D01*
X137676496Y-54869704D01*
X137701000Y-54868500D01*
X138651000Y-54868500D01*
X138675504Y-54869704D01*
G37*
%TD*%
D16*
%TO.C,A1*%
X169164000Y-92710000D03*
X169164000Y-107950000D03*
X133604000Y-92710000D03*
X166624000Y-107950000D03*
X136144000Y-92710000D03*
X164084000Y-107950000D03*
X138684000Y-92710000D03*
X161544000Y-107950000D03*
X141224000Y-92710000D03*
X159004000Y-107950000D03*
X143764000Y-92710000D03*
X156464000Y-107950000D03*
X146304000Y-92710000D03*
X153924000Y-107950000D03*
X148844000Y-92710000D03*
X151384000Y-107950000D03*
X151384000Y-92710000D03*
X148844000Y-107950000D03*
X153924000Y-92710000D03*
X146304000Y-107950000D03*
X156464000Y-92710000D03*
X143764000Y-107950000D03*
X159004000Y-92710000D03*
X141224000Y-107950000D03*
X161544000Y-92710000D03*
X138684000Y-107950000D03*
X164084000Y-92710000D03*
X136144000Y-107950000D03*
X166624000Y-92710000D03*
D17*
X133604000Y-107950000D03*
%TD*%
D13*
%TO.C,R2*%
G36*
X168622505Y-116783204D02*
G01*
X168646773Y-116786804D01*
X168670572Y-116792765D01*
X168693671Y-116801030D01*
X168715850Y-116811520D01*
X168736893Y-116824132D01*
X168756599Y-116838747D01*
X168774777Y-116855223D01*
X168791253Y-116873401D01*
X168805868Y-116893107D01*
X168818480Y-116914150D01*
X168828970Y-116936329D01*
X168837235Y-116959428D01*
X168843196Y-116983227D01*
X168846796Y-117007495D01*
X168848000Y-117031999D01*
X168848000Y-117682001D01*
X168846796Y-117706505D01*
X168843196Y-117730773D01*
X168837235Y-117754572D01*
X168828970Y-117777671D01*
X168818480Y-117799850D01*
X168805868Y-117820893D01*
X168791253Y-117840599D01*
X168774777Y-117858777D01*
X168756599Y-117875253D01*
X168736893Y-117889868D01*
X168715850Y-117902480D01*
X168693671Y-117912970D01*
X168670572Y-117921235D01*
X168646773Y-117927196D01*
X168622505Y-117930796D01*
X168598001Y-117932000D01*
X167697999Y-117932000D01*
X167673495Y-117930796D01*
X167649227Y-117927196D01*
X167625428Y-117921235D01*
X167602329Y-117912970D01*
X167580150Y-117902480D01*
X167559107Y-117889868D01*
X167539401Y-117875253D01*
X167521223Y-117858777D01*
X167504747Y-117840599D01*
X167490132Y-117820893D01*
X167477520Y-117799850D01*
X167467030Y-117777671D01*
X167458765Y-117754572D01*
X167452804Y-117730773D01*
X167449204Y-117706505D01*
X167448000Y-117682001D01*
X167448000Y-117031999D01*
X167449204Y-117007495D01*
X167452804Y-116983227D01*
X167458765Y-116959428D01*
X167467030Y-116936329D01*
X167477520Y-116914150D01*
X167490132Y-116893107D01*
X167504747Y-116873401D01*
X167521223Y-116855223D01*
X167539401Y-116838747D01*
X167559107Y-116824132D01*
X167580150Y-116811520D01*
X167602329Y-116801030D01*
X167625428Y-116792765D01*
X167649227Y-116786804D01*
X167673495Y-116783204D01*
X167697999Y-116782000D01*
X168598001Y-116782000D01*
X168622505Y-116783204D01*
G37*
G36*
X168622505Y-114733204D02*
G01*
X168646773Y-114736804D01*
X168670572Y-114742765D01*
X168693671Y-114751030D01*
X168715850Y-114761520D01*
X168736893Y-114774132D01*
X168756599Y-114788747D01*
X168774777Y-114805223D01*
X168791253Y-114823401D01*
X168805868Y-114843107D01*
X168818480Y-114864150D01*
X168828970Y-114886329D01*
X168837235Y-114909428D01*
X168843196Y-114933227D01*
X168846796Y-114957495D01*
X168848000Y-114981999D01*
X168848000Y-115632001D01*
X168846796Y-115656505D01*
X168843196Y-115680773D01*
X168837235Y-115704572D01*
X168828970Y-115727671D01*
X168818480Y-115749850D01*
X168805868Y-115770893D01*
X168791253Y-115790599D01*
X168774777Y-115808777D01*
X168756599Y-115825253D01*
X168736893Y-115839868D01*
X168715850Y-115852480D01*
X168693671Y-115862970D01*
X168670572Y-115871235D01*
X168646773Y-115877196D01*
X168622505Y-115880796D01*
X168598001Y-115882000D01*
X167697999Y-115882000D01*
X167673495Y-115880796D01*
X167649227Y-115877196D01*
X167625428Y-115871235D01*
X167602329Y-115862970D01*
X167580150Y-115852480D01*
X167559107Y-115839868D01*
X167539401Y-115825253D01*
X167521223Y-115808777D01*
X167504747Y-115790599D01*
X167490132Y-115770893D01*
X167477520Y-115749850D01*
X167467030Y-115727671D01*
X167458765Y-115704572D01*
X167452804Y-115680773D01*
X167449204Y-115656505D01*
X167448000Y-115632001D01*
X167448000Y-114981999D01*
X167449204Y-114957495D01*
X167452804Y-114933227D01*
X167458765Y-114909428D01*
X167467030Y-114886329D01*
X167477520Y-114864150D01*
X167490132Y-114843107D01*
X167504747Y-114823401D01*
X167521223Y-114805223D01*
X167539401Y-114788747D01*
X167559107Y-114774132D01*
X167580150Y-114761520D01*
X167602329Y-114751030D01*
X167625428Y-114742765D01*
X167649227Y-114736804D01*
X167673495Y-114733204D01*
X167697999Y-114732000D01*
X168598001Y-114732000D01*
X168622505Y-114733204D01*
G37*
%TD*%
D18*
%TO.C,REF\002A\002A*%
X90120000Y-44175000D03*
%TD*%
%TO.C,REF\002A\002A*%
X170120000Y-44175000D03*
%TD*%
%TO.C,REF\002A\002A*%
X170120000Y-124175000D03*
%TD*%
%TO.C,REF\002A\002A*%
X89820000Y-124175000D03*
%TD*%
D13*
%TO.C,C14*%
G36*
X130143505Y-78041204D02*
G01*
X130167773Y-78044804D01*
X130191572Y-78050765D01*
X130214671Y-78059030D01*
X130236850Y-78069520D01*
X130257893Y-78082132D01*
X130277599Y-78096747D01*
X130295777Y-78113223D01*
X130312253Y-78131401D01*
X130326868Y-78151107D01*
X130339480Y-78172150D01*
X130349970Y-78194329D01*
X130358235Y-78217428D01*
X130364196Y-78241227D01*
X130367796Y-78265495D01*
X130369000Y-78289999D01*
X130369000Y-79190001D01*
X130367796Y-79214505D01*
X130364196Y-79238773D01*
X130358235Y-79262572D01*
X130349970Y-79285671D01*
X130339480Y-79307850D01*
X130326868Y-79328893D01*
X130312253Y-79348599D01*
X130295777Y-79366777D01*
X130277599Y-79383253D01*
X130257893Y-79397868D01*
X130236850Y-79410480D01*
X130214671Y-79420970D01*
X130191572Y-79429235D01*
X130167773Y-79435196D01*
X130143505Y-79438796D01*
X130119001Y-79440000D01*
X129468999Y-79440000D01*
X129444495Y-79438796D01*
X129420227Y-79435196D01*
X129396428Y-79429235D01*
X129373329Y-79420970D01*
X129351150Y-79410480D01*
X129330107Y-79397868D01*
X129310401Y-79383253D01*
X129292223Y-79366777D01*
X129275747Y-79348599D01*
X129261132Y-79328893D01*
X129248520Y-79307850D01*
X129238030Y-79285671D01*
X129229765Y-79262572D01*
X129223804Y-79238773D01*
X129220204Y-79214505D01*
X129219000Y-79190001D01*
X129219000Y-78289999D01*
X129220204Y-78265495D01*
X129223804Y-78241227D01*
X129229765Y-78217428D01*
X129238030Y-78194329D01*
X129248520Y-78172150D01*
X129261132Y-78151107D01*
X129275747Y-78131401D01*
X129292223Y-78113223D01*
X129310401Y-78096747D01*
X129330107Y-78082132D01*
X129351150Y-78069520D01*
X129373329Y-78059030D01*
X129396428Y-78050765D01*
X129420227Y-78044804D01*
X129444495Y-78041204D01*
X129468999Y-78040000D01*
X130119001Y-78040000D01*
X130143505Y-78041204D01*
G37*
G36*
X128093505Y-78041204D02*
G01*
X128117773Y-78044804D01*
X128141572Y-78050765D01*
X128164671Y-78059030D01*
X128186850Y-78069520D01*
X128207893Y-78082132D01*
X128227599Y-78096747D01*
X128245777Y-78113223D01*
X128262253Y-78131401D01*
X128276868Y-78151107D01*
X128289480Y-78172150D01*
X128299970Y-78194329D01*
X128308235Y-78217428D01*
X128314196Y-78241227D01*
X128317796Y-78265495D01*
X128319000Y-78289999D01*
X128319000Y-79190001D01*
X128317796Y-79214505D01*
X128314196Y-79238773D01*
X128308235Y-79262572D01*
X128299970Y-79285671D01*
X128289480Y-79307850D01*
X128276868Y-79328893D01*
X128262253Y-79348599D01*
X128245777Y-79366777D01*
X128227599Y-79383253D01*
X128207893Y-79397868D01*
X128186850Y-79410480D01*
X128164671Y-79420970D01*
X128141572Y-79429235D01*
X128117773Y-79435196D01*
X128093505Y-79438796D01*
X128069001Y-79440000D01*
X127418999Y-79440000D01*
X127394495Y-79438796D01*
X127370227Y-79435196D01*
X127346428Y-79429235D01*
X127323329Y-79420970D01*
X127301150Y-79410480D01*
X127280107Y-79397868D01*
X127260401Y-79383253D01*
X127242223Y-79366777D01*
X127225747Y-79348599D01*
X127211132Y-79328893D01*
X127198520Y-79307850D01*
X127188030Y-79285671D01*
X127179765Y-79262572D01*
X127173804Y-79238773D01*
X127170204Y-79214505D01*
X127169000Y-79190001D01*
X127169000Y-78289999D01*
X127170204Y-78265495D01*
X127173804Y-78241227D01*
X127179765Y-78217428D01*
X127188030Y-78194329D01*
X127198520Y-78172150D01*
X127211132Y-78151107D01*
X127225747Y-78131401D01*
X127242223Y-78113223D01*
X127260401Y-78096747D01*
X127280107Y-78082132D01*
X127301150Y-78069520D01*
X127323329Y-78059030D01*
X127346428Y-78050765D01*
X127370227Y-78044804D01*
X127394495Y-78041204D01*
X127418999Y-78040000D01*
X128069001Y-78040000D01*
X128093505Y-78041204D01*
G37*
%TD*%
%TO.C,C13*%
G36*
X130651505Y-57467204D02*
G01*
X130675773Y-57470804D01*
X130699572Y-57476765D01*
X130722671Y-57485030D01*
X130744850Y-57495520D01*
X130765893Y-57508132D01*
X130785599Y-57522747D01*
X130803777Y-57539223D01*
X130820253Y-57557401D01*
X130834868Y-57577107D01*
X130847480Y-57598150D01*
X130857970Y-57620329D01*
X130866235Y-57643428D01*
X130872196Y-57667227D01*
X130875796Y-57691495D01*
X130877000Y-57715999D01*
X130877000Y-58616001D01*
X130875796Y-58640505D01*
X130872196Y-58664773D01*
X130866235Y-58688572D01*
X130857970Y-58711671D01*
X130847480Y-58733850D01*
X130834868Y-58754893D01*
X130820253Y-58774599D01*
X130803777Y-58792777D01*
X130785599Y-58809253D01*
X130765893Y-58823868D01*
X130744850Y-58836480D01*
X130722671Y-58846970D01*
X130699572Y-58855235D01*
X130675773Y-58861196D01*
X130651505Y-58864796D01*
X130627001Y-58866000D01*
X129976999Y-58866000D01*
X129952495Y-58864796D01*
X129928227Y-58861196D01*
X129904428Y-58855235D01*
X129881329Y-58846970D01*
X129859150Y-58836480D01*
X129838107Y-58823868D01*
X129818401Y-58809253D01*
X129800223Y-58792777D01*
X129783747Y-58774599D01*
X129769132Y-58754893D01*
X129756520Y-58733850D01*
X129746030Y-58711671D01*
X129737765Y-58688572D01*
X129731804Y-58664773D01*
X129728204Y-58640505D01*
X129727000Y-58616001D01*
X129727000Y-57715999D01*
X129728204Y-57691495D01*
X129731804Y-57667227D01*
X129737765Y-57643428D01*
X129746030Y-57620329D01*
X129756520Y-57598150D01*
X129769132Y-57577107D01*
X129783747Y-57557401D01*
X129800223Y-57539223D01*
X129818401Y-57522747D01*
X129838107Y-57508132D01*
X129859150Y-57495520D01*
X129881329Y-57485030D01*
X129904428Y-57476765D01*
X129928227Y-57470804D01*
X129952495Y-57467204D01*
X129976999Y-57466000D01*
X130627001Y-57466000D01*
X130651505Y-57467204D01*
G37*
G36*
X128601505Y-57467204D02*
G01*
X128625773Y-57470804D01*
X128649572Y-57476765D01*
X128672671Y-57485030D01*
X128694850Y-57495520D01*
X128715893Y-57508132D01*
X128735599Y-57522747D01*
X128753777Y-57539223D01*
X128770253Y-57557401D01*
X128784868Y-57577107D01*
X128797480Y-57598150D01*
X128807970Y-57620329D01*
X128816235Y-57643428D01*
X128822196Y-57667227D01*
X128825796Y-57691495D01*
X128827000Y-57715999D01*
X128827000Y-58616001D01*
X128825796Y-58640505D01*
X128822196Y-58664773D01*
X128816235Y-58688572D01*
X128807970Y-58711671D01*
X128797480Y-58733850D01*
X128784868Y-58754893D01*
X128770253Y-58774599D01*
X128753777Y-58792777D01*
X128735599Y-58809253D01*
X128715893Y-58823868D01*
X128694850Y-58836480D01*
X128672671Y-58846970D01*
X128649572Y-58855235D01*
X128625773Y-58861196D01*
X128601505Y-58864796D01*
X128577001Y-58866000D01*
X127926999Y-58866000D01*
X127902495Y-58864796D01*
X127878227Y-58861196D01*
X127854428Y-58855235D01*
X127831329Y-58846970D01*
X127809150Y-58836480D01*
X127788107Y-58823868D01*
X127768401Y-58809253D01*
X127750223Y-58792777D01*
X127733747Y-58774599D01*
X127719132Y-58754893D01*
X127706520Y-58733850D01*
X127696030Y-58711671D01*
X127687765Y-58688572D01*
X127681804Y-58664773D01*
X127678204Y-58640505D01*
X127677000Y-58616001D01*
X127677000Y-57715999D01*
X127678204Y-57691495D01*
X127681804Y-57667227D01*
X127687765Y-57643428D01*
X127696030Y-57620329D01*
X127706520Y-57598150D01*
X127719132Y-57577107D01*
X127733747Y-57557401D01*
X127750223Y-57539223D01*
X127768401Y-57522747D01*
X127788107Y-57508132D01*
X127809150Y-57495520D01*
X127831329Y-57485030D01*
X127854428Y-57476765D01*
X127878227Y-57470804D01*
X127902495Y-57467204D01*
X127926999Y-57466000D01*
X128577001Y-57466000D01*
X128601505Y-57467204D01*
G37*
%TD*%
%TO.C,C3*%
G36*
X157885004Y-70142204D02*
G01*
X157909273Y-70145804D01*
X157933071Y-70151765D01*
X157956171Y-70160030D01*
X157978349Y-70170520D01*
X157999393Y-70183133D01*
X158019098Y-70197747D01*
X158037277Y-70214223D01*
X158053753Y-70232402D01*
X158068367Y-70252107D01*
X158080980Y-70273151D01*
X158091470Y-70295329D01*
X158099735Y-70318429D01*
X158105696Y-70342227D01*
X158109296Y-70366496D01*
X158110500Y-70391000D01*
X158110500Y-71341000D01*
X158109296Y-71365504D01*
X158105696Y-71389773D01*
X158099735Y-71413571D01*
X158091470Y-71436671D01*
X158080980Y-71458849D01*
X158068367Y-71479893D01*
X158053753Y-71499598D01*
X158037277Y-71517777D01*
X158019098Y-71534253D01*
X157999393Y-71548867D01*
X157978349Y-71561480D01*
X157956171Y-71571970D01*
X157933071Y-71580235D01*
X157909273Y-71586196D01*
X157885004Y-71589796D01*
X157860500Y-71591000D01*
X157185500Y-71591000D01*
X157160996Y-71589796D01*
X157136727Y-71586196D01*
X157112929Y-71580235D01*
X157089829Y-71571970D01*
X157067651Y-71561480D01*
X157046607Y-71548867D01*
X157026902Y-71534253D01*
X157008723Y-71517777D01*
X156992247Y-71499598D01*
X156977633Y-71479893D01*
X156965020Y-71458849D01*
X156954530Y-71436671D01*
X156946265Y-71413571D01*
X156940304Y-71389773D01*
X156936704Y-71365504D01*
X156935500Y-71341000D01*
X156935500Y-70391000D01*
X156936704Y-70366496D01*
X156940304Y-70342227D01*
X156946265Y-70318429D01*
X156954530Y-70295329D01*
X156965020Y-70273151D01*
X156977633Y-70252107D01*
X156992247Y-70232402D01*
X157008723Y-70214223D01*
X157026902Y-70197747D01*
X157046607Y-70183133D01*
X157067651Y-70170520D01*
X157089829Y-70160030D01*
X157112929Y-70151765D01*
X157136727Y-70145804D01*
X157160996Y-70142204D01*
X157185500Y-70141000D01*
X157860500Y-70141000D01*
X157885004Y-70142204D01*
G37*
G36*
X155810004Y-70142204D02*
G01*
X155834273Y-70145804D01*
X155858071Y-70151765D01*
X155881171Y-70160030D01*
X155903349Y-70170520D01*
X155924393Y-70183133D01*
X155944098Y-70197747D01*
X155962277Y-70214223D01*
X155978753Y-70232402D01*
X155993367Y-70252107D01*
X156005980Y-70273151D01*
X156016470Y-70295329D01*
X156024735Y-70318429D01*
X156030696Y-70342227D01*
X156034296Y-70366496D01*
X156035500Y-70391000D01*
X156035500Y-71341000D01*
X156034296Y-71365504D01*
X156030696Y-71389773D01*
X156024735Y-71413571D01*
X156016470Y-71436671D01*
X156005980Y-71458849D01*
X155993367Y-71479893D01*
X155978753Y-71499598D01*
X155962277Y-71517777D01*
X155944098Y-71534253D01*
X155924393Y-71548867D01*
X155903349Y-71561480D01*
X155881171Y-71571970D01*
X155858071Y-71580235D01*
X155834273Y-71586196D01*
X155810004Y-71589796D01*
X155785500Y-71591000D01*
X155110500Y-71591000D01*
X155085996Y-71589796D01*
X155061727Y-71586196D01*
X155037929Y-71580235D01*
X155014829Y-71571970D01*
X154992651Y-71561480D01*
X154971607Y-71548867D01*
X154951902Y-71534253D01*
X154933723Y-71517777D01*
X154917247Y-71499598D01*
X154902633Y-71479893D01*
X154890020Y-71458849D01*
X154879530Y-71436671D01*
X154871265Y-71413571D01*
X154865304Y-71389773D01*
X154861704Y-71365504D01*
X154860500Y-71341000D01*
X154860500Y-70391000D01*
X154861704Y-70366496D01*
X154865304Y-70342227D01*
X154871265Y-70318429D01*
X154879530Y-70295329D01*
X154890020Y-70273151D01*
X154902633Y-70252107D01*
X154917247Y-70232402D01*
X154933723Y-70214223D01*
X154951902Y-70197747D01*
X154971607Y-70183133D01*
X154992651Y-70170520D01*
X155014829Y-70160030D01*
X155037929Y-70151765D01*
X155061727Y-70145804D01*
X155085996Y-70142204D01*
X155110500Y-70141000D01*
X155785500Y-70141000D01*
X155810004Y-70142204D01*
G37*
%TD*%
D19*
%TO.C,Y1*%
X156464000Y-65659000D03*
X156464000Y-68199000D03*
%TD*%
D13*
%TO.C,R18*%
G36*
X119346505Y-54544204D02*
G01*
X119370773Y-54547804D01*
X119394572Y-54553765D01*
X119417671Y-54562030D01*
X119439850Y-54572520D01*
X119460893Y-54585132D01*
X119480599Y-54599747D01*
X119498777Y-54616223D01*
X119515253Y-54634401D01*
X119529868Y-54654107D01*
X119542480Y-54675150D01*
X119552970Y-54697329D01*
X119561235Y-54720428D01*
X119567196Y-54744227D01*
X119570796Y-54768495D01*
X119572000Y-54792999D01*
X119572000Y-55443001D01*
X119570796Y-55467505D01*
X119567196Y-55491773D01*
X119561235Y-55515572D01*
X119552970Y-55538671D01*
X119542480Y-55560850D01*
X119529868Y-55581893D01*
X119515253Y-55601599D01*
X119498777Y-55619777D01*
X119480599Y-55636253D01*
X119460893Y-55650868D01*
X119439850Y-55663480D01*
X119417671Y-55673970D01*
X119394572Y-55682235D01*
X119370773Y-55688196D01*
X119346505Y-55691796D01*
X119322001Y-55693000D01*
X118421999Y-55693000D01*
X118397495Y-55691796D01*
X118373227Y-55688196D01*
X118349428Y-55682235D01*
X118326329Y-55673970D01*
X118304150Y-55663480D01*
X118283107Y-55650868D01*
X118263401Y-55636253D01*
X118245223Y-55619777D01*
X118228747Y-55601599D01*
X118214132Y-55581893D01*
X118201520Y-55560850D01*
X118191030Y-55538671D01*
X118182765Y-55515572D01*
X118176804Y-55491773D01*
X118173204Y-55467505D01*
X118172000Y-55443001D01*
X118172000Y-54792999D01*
X118173204Y-54768495D01*
X118176804Y-54744227D01*
X118182765Y-54720428D01*
X118191030Y-54697329D01*
X118201520Y-54675150D01*
X118214132Y-54654107D01*
X118228747Y-54634401D01*
X118245223Y-54616223D01*
X118263401Y-54599747D01*
X118283107Y-54585132D01*
X118304150Y-54572520D01*
X118326329Y-54562030D01*
X118349428Y-54553765D01*
X118373227Y-54547804D01*
X118397495Y-54544204D01*
X118421999Y-54543000D01*
X119322001Y-54543000D01*
X119346505Y-54544204D01*
G37*
G36*
X119346505Y-52494204D02*
G01*
X119370773Y-52497804D01*
X119394572Y-52503765D01*
X119417671Y-52512030D01*
X119439850Y-52522520D01*
X119460893Y-52535132D01*
X119480599Y-52549747D01*
X119498777Y-52566223D01*
X119515253Y-52584401D01*
X119529868Y-52604107D01*
X119542480Y-52625150D01*
X119552970Y-52647329D01*
X119561235Y-52670428D01*
X119567196Y-52694227D01*
X119570796Y-52718495D01*
X119572000Y-52742999D01*
X119572000Y-53393001D01*
X119570796Y-53417505D01*
X119567196Y-53441773D01*
X119561235Y-53465572D01*
X119552970Y-53488671D01*
X119542480Y-53510850D01*
X119529868Y-53531893D01*
X119515253Y-53551599D01*
X119498777Y-53569777D01*
X119480599Y-53586253D01*
X119460893Y-53600868D01*
X119439850Y-53613480D01*
X119417671Y-53623970D01*
X119394572Y-53632235D01*
X119370773Y-53638196D01*
X119346505Y-53641796D01*
X119322001Y-53643000D01*
X118421999Y-53643000D01*
X118397495Y-53641796D01*
X118373227Y-53638196D01*
X118349428Y-53632235D01*
X118326329Y-53623970D01*
X118304150Y-53613480D01*
X118283107Y-53600868D01*
X118263401Y-53586253D01*
X118245223Y-53569777D01*
X118228747Y-53551599D01*
X118214132Y-53531893D01*
X118201520Y-53510850D01*
X118191030Y-53488671D01*
X118182765Y-53465572D01*
X118176804Y-53441773D01*
X118173204Y-53417505D01*
X118172000Y-53393001D01*
X118172000Y-52742999D01*
X118173204Y-52718495D01*
X118176804Y-52694227D01*
X118182765Y-52670428D01*
X118191030Y-52647329D01*
X118201520Y-52625150D01*
X118214132Y-52604107D01*
X118228747Y-52584401D01*
X118245223Y-52566223D01*
X118263401Y-52549747D01*
X118283107Y-52535132D01*
X118304150Y-52522520D01*
X118326329Y-52512030D01*
X118349428Y-52503765D01*
X118373227Y-52497804D01*
X118397495Y-52494204D01*
X118421999Y-52493000D01*
X119322001Y-52493000D01*
X119346505Y-52494204D01*
G37*
%TD*%
%TO.C,R17*%
G36*
X124172505Y-54544204D02*
G01*
X124196773Y-54547804D01*
X124220572Y-54553765D01*
X124243671Y-54562030D01*
X124265850Y-54572520D01*
X124286893Y-54585132D01*
X124306599Y-54599747D01*
X124324777Y-54616223D01*
X124341253Y-54634401D01*
X124355868Y-54654107D01*
X124368480Y-54675150D01*
X124378970Y-54697329D01*
X124387235Y-54720428D01*
X124393196Y-54744227D01*
X124396796Y-54768495D01*
X124398000Y-54792999D01*
X124398000Y-55443001D01*
X124396796Y-55467505D01*
X124393196Y-55491773D01*
X124387235Y-55515572D01*
X124378970Y-55538671D01*
X124368480Y-55560850D01*
X124355868Y-55581893D01*
X124341253Y-55601599D01*
X124324777Y-55619777D01*
X124306599Y-55636253D01*
X124286893Y-55650868D01*
X124265850Y-55663480D01*
X124243671Y-55673970D01*
X124220572Y-55682235D01*
X124196773Y-55688196D01*
X124172505Y-55691796D01*
X124148001Y-55693000D01*
X123247999Y-55693000D01*
X123223495Y-55691796D01*
X123199227Y-55688196D01*
X123175428Y-55682235D01*
X123152329Y-55673970D01*
X123130150Y-55663480D01*
X123109107Y-55650868D01*
X123089401Y-55636253D01*
X123071223Y-55619777D01*
X123054747Y-55601599D01*
X123040132Y-55581893D01*
X123027520Y-55560850D01*
X123017030Y-55538671D01*
X123008765Y-55515572D01*
X123002804Y-55491773D01*
X122999204Y-55467505D01*
X122998000Y-55443001D01*
X122998000Y-54792999D01*
X122999204Y-54768495D01*
X123002804Y-54744227D01*
X123008765Y-54720428D01*
X123017030Y-54697329D01*
X123027520Y-54675150D01*
X123040132Y-54654107D01*
X123054747Y-54634401D01*
X123071223Y-54616223D01*
X123089401Y-54599747D01*
X123109107Y-54585132D01*
X123130150Y-54572520D01*
X123152329Y-54562030D01*
X123175428Y-54553765D01*
X123199227Y-54547804D01*
X123223495Y-54544204D01*
X123247999Y-54543000D01*
X124148001Y-54543000D01*
X124172505Y-54544204D01*
G37*
G36*
X124172505Y-52494204D02*
G01*
X124196773Y-52497804D01*
X124220572Y-52503765D01*
X124243671Y-52512030D01*
X124265850Y-52522520D01*
X124286893Y-52535132D01*
X124306599Y-52549747D01*
X124324777Y-52566223D01*
X124341253Y-52584401D01*
X124355868Y-52604107D01*
X124368480Y-52625150D01*
X124378970Y-52647329D01*
X124387235Y-52670428D01*
X124393196Y-52694227D01*
X124396796Y-52718495D01*
X124398000Y-52742999D01*
X124398000Y-53393001D01*
X124396796Y-53417505D01*
X124393196Y-53441773D01*
X124387235Y-53465572D01*
X124378970Y-53488671D01*
X124368480Y-53510850D01*
X124355868Y-53531893D01*
X124341253Y-53551599D01*
X124324777Y-53569777D01*
X124306599Y-53586253D01*
X124286893Y-53600868D01*
X124265850Y-53613480D01*
X124243671Y-53623970D01*
X124220572Y-53632235D01*
X124196773Y-53638196D01*
X124172505Y-53641796D01*
X124148001Y-53643000D01*
X123247999Y-53643000D01*
X123223495Y-53641796D01*
X123199227Y-53638196D01*
X123175428Y-53632235D01*
X123152329Y-53623970D01*
X123130150Y-53613480D01*
X123109107Y-53600868D01*
X123089401Y-53586253D01*
X123071223Y-53569777D01*
X123054747Y-53551599D01*
X123040132Y-53531893D01*
X123027520Y-53510850D01*
X123017030Y-53488671D01*
X123008765Y-53465572D01*
X123002804Y-53441773D01*
X122999204Y-53417505D01*
X122998000Y-53393001D01*
X122998000Y-52742999D01*
X122999204Y-52718495D01*
X123002804Y-52694227D01*
X123008765Y-52670428D01*
X123017030Y-52647329D01*
X123027520Y-52625150D01*
X123040132Y-52604107D01*
X123054747Y-52584401D01*
X123071223Y-52566223D01*
X123089401Y-52549747D01*
X123109107Y-52535132D01*
X123130150Y-52522520D01*
X123152329Y-52512030D01*
X123175428Y-52503765D01*
X123199227Y-52497804D01*
X123223495Y-52494204D01*
X123247999Y-52493000D01*
X124148001Y-52493000D01*
X124172505Y-52494204D01*
G37*
%TD*%
%TO.C,R16*%
G36*
X130143505Y-74485204D02*
G01*
X130167773Y-74488804D01*
X130191572Y-74494765D01*
X130214671Y-74503030D01*
X130236850Y-74513520D01*
X130257893Y-74526132D01*
X130277599Y-74540747D01*
X130295777Y-74557223D01*
X130312253Y-74575401D01*
X130326868Y-74595107D01*
X130339480Y-74616150D01*
X130349970Y-74638329D01*
X130358235Y-74661428D01*
X130364196Y-74685227D01*
X130367796Y-74709495D01*
X130369000Y-74733999D01*
X130369000Y-75634001D01*
X130367796Y-75658505D01*
X130364196Y-75682773D01*
X130358235Y-75706572D01*
X130349970Y-75729671D01*
X130339480Y-75751850D01*
X130326868Y-75772893D01*
X130312253Y-75792599D01*
X130295777Y-75810777D01*
X130277599Y-75827253D01*
X130257893Y-75841868D01*
X130236850Y-75854480D01*
X130214671Y-75864970D01*
X130191572Y-75873235D01*
X130167773Y-75879196D01*
X130143505Y-75882796D01*
X130119001Y-75884000D01*
X129468999Y-75884000D01*
X129444495Y-75882796D01*
X129420227Y-75879196D01*
X129396428Y-75873235D01*
X129373329Y-75864970D01*
X129351150Y-75854480D01*
X129330107Y-75841868D01*
X129310401Y-75827253D01*
X129292223Y-75810777D01*
X129275747Y-75792599D01*
X129261132Y-75772893D01*
X129248520Y-75751850D01*
X129238030Y-75729671D01*
X129229765Y-75706572D01*
X129223804Y-75682773D01*
X129220204Y-75658505D01*
X129219000Y-75634001D01*
X129219000Y-74733999D01*
X129220204Y-74709495D01*
X129223804Y-74685227D01*
X129229765Y-74661428D01*
X129238030Y-74638329D01*
X129248520Y-74616150D01*
X129261132Y-74595107D01*
X129275747Y-74575401D01*
X129292223Y-74557223D01*
X129310401Y-74540747D01*
X129330107Y-74526132D01*
X129351150Y-74513520D01*
X129373329Y-74503030D01*
X129396428Y-74494765D01*
X129420227Y-74488804D01*
X129444495Y-74485204D01*
X129468999Y-74484000D01*
X130119001Y-74484000D01*
X130143505Y-74485204D01*
G37*
G36*
X128093505Y-74485204D02*
G01*
X128117773Y-74488804D01*
X128141572Y-74494765D01*
X128164671Y-74503030D01*
X128186850Y-74513520D01*
X128207893Y-74526132D01*
X128227599Y-74540747D01*
X128245777Y-74557223D01*
X128262253Y-74575401D01*
X128276868Y-74595107D01*
X128289480Y-74616150D01*
X128299970Y-74638329D01*
X128308235Y-74661428D01*
X128314196Y-74685227D01*
X128317796Y-74709495D01*
X128319000Y-74733999D01*
X128319000Y-75634001D01*
X128317796Y-75658505D01*
X128314196Y-75682773D01*
X128308235Y-75706572D01*
X128299970Y-75729671D01*
X128289480Y-75751850D01*
X128276868Y-75772893D01*
X128262253Y-75792599D01*
X128245777Y-75810777D01*
X128227599Y-75827253D01*
X128207893Y-75841868D01*
X128186850Y-75854480D01*
X128164671Y-75864970D01*
X128141572Y-75873235D01*
X128117773Y-75879196D01*
X128093505Y-75882796D01*
X128069001Y-75884000D01*
X127418999Y-75884000D01*
X127394495Y-75882796D01*
X127370227Y-75879196D01*
X127346428Y-75873235D01*
X127323329Y-75864970D01*
X127301150Y-75854480D01*
X127280107Y-75841868D01*
X127260401Y-75827253D01*
X127242223Y-75810777D01*
X127225747Y-75792599D01*
X127211132Y-75772893D01*
X127198520Y-75751850D01*
X127188030Y-75729671D01*
X127179765Y-75706572D01*
X127173804Y-75682773D01*
X127170204Y-75658505D01*
X127169000Y-75634001D01*
X127169000Y-74733999D01*
X127170204Y-74709495D01*
X127173804Y-74685227D01*
X127179765Y-74661428D01*
X127188030Y-74638329D01*
X127198520Y-74616150D01*
X127211132Y-74595107D01*
X127225747Y-74575401D01*
X127242223Y-74557223D01*
X127260401Y-74540747D01*
X127280107Y-74526132D01*
X127301150Y-74513520D01*
X127323329Y-74503030D01*
X127346428Y-74494765D01*
X127370227Y-74488804D01*
X127394495Y-74485204D01*
X127418999Y-74484000D01*
X128069001Y-74484000D01*
X128093505Y-74485204D01*
G37*
%TD*%
%TO.C,R15*%
G36*
X130651505Y-61531204D02*
G01*
X130675773Y-61534804D01*
X130699572Y-61540765D01*
X130722671Y-61549030D01*
X130744850Y-61559520D01*
X130765893Y-61572132D01*
X130785599Y-61586747D01*
X130803777Y-61603223D01*
X130820253Y-61621401D01*
X130834868Y-61641107D01*
X130847480Y-61662150D01*
X130857970Y-61684329D01*
X130866235Y-61707428D01*
X130872196Y-61731227D01*
X130875796Y-61755495D01*
X130877000Y-61779999D01*
X130877000Y-62680001D01*
X130875796Y-62704505D01*
X130872196Y-62728773D01*
X130866235Y-62752572D01*
X130857970Y-62775671D01*
X130847480Y-62797850D01*
X130834868Y-62818893D01*
X130820253Y-62838599D01*
X130803777Y-62856777D01*
X130785599Y-62873253D01*
X130765893Y-62887868D01*
X130744850Y-62900480D01*
X130722671Y-62910970D01*
X130699572Y-62919235D01*
X130675773Y-62925196D01*
X130651505Y-62928796D01*
X130627001Y-62930000D01*
X129976999Y-62930000D01*
X129952495Y-62928796D01*
X129928227Y-62925196D01*
X129904428Y-62919235D01*
X129881329Y-62910970D01*
X129859150Y-62900480D01*
X129838107Y-62887868D01*
X129818401Y-62873253D01*
X129800223Y-62856777D01*
X129783747Y-62838599D01*
X129769132Y-62818893D01*
X129756520Y-62797850D01*
X129746030Y-62775671D01*
X129737765Y-62752572D01*
X129731804Y-62728773D01*
X129728204Y-62704505D01*
X129727000Y-62680001D01*
X129727000Y-61779999D01*
X129728204Y-61755495D01*
X129731804Y-61731227D01*
X129737765Y-61707428D01*
X129746030Y-61684329D01*
X129756520Y-61662150D01*
X129769132Y-61641107D01*
X129783747Y-61621401D01*
X129800223Y-61603223D01*
X129818401Y-61586747D01*
X129838107Y-61572132D01*
X129859150Y-61559520D01*
X129881329Y-61549030D01*
X129904428Y-61540765D01*
X129928227Y-61534804D01*
X129952495Y-61531204D01*
X129976999Y-61530000D01*
X130627001Y-61530000D01*
X130651505Y-61531204D01*
G37*
G36*
X128601505Y-61531204D02*
G01*
X128625773Y-61534804D01*
X128649572Y-61540765D01*
X128672671Y-61549030D01*
X128694850Y-61559520D01*
X128715893Y-61572132D01*
X128735599Y-61586747D01*
X128753777Y-61603223D01*
X128770253Y-61621401D01*
X128784868Y-61641107D01*
X128797480Y-61662150D01*
X128807970Y-61684329D01*
X128816235Y-61707428D01*
X128822196Y-61731227D01*
X128825796Y-61755495D01*
X128827000Y-61779999D01*
X128827000Y-62680001D01*
X128825796Y-62704505D01*
X128822196Y-62728773D01*
X128816235Y-62752572D01*
X128807970Y-62775671D01*
X128797480Y-62797850D01*
X128784868Y-62818893D01*
X128770253Y-62838599D01*
X128753777Y-62856777D01*
X128735599Y-62873253D01*
X128715893Y-62887868D01*
X128694850Y-62900480D01*
X128672671Y-62910970D01*
X128649572Y-62919235D01*
X128625773Y-62925196D01*
X128601505Y-62928796D01*
X128577001Y-62930000D01*
X127926999Y-62930000D01*
X127902495Y-62928796D01*
X127878227Y-62925196D01*
X127854428Y-62919235D01*
X127831329Y-62910970D01*
X127809150Y-62900480D01*
X127788107Y-62887868D01*
X127768401Y-62873253D01*
X127750223Y-62856777D01*
X127733747Y-62838599D01*
X127719132Y-62818893D01*
X127706520Y-62797850D01*
X127696030Y-62775671D01*
X127687765Y-62752572D01*
X127681804Y-62728773D01*
X127678204Y-62704505D01*
X127677000Y-62680001D01*
X127677000Y-61779999D01*
X127678204Y-61755495D01*
X127681804Y-61731227D01*
X127687765Y-61707428D01*
X127696030Y-61684329D01*
X127706520Y-61662150D01*
X127719132Y-61641107D01*
X127733747Y-61621401D01*
X127750223Y-61603223D01*
X127768401Y-61586747D01*
X127788107Y-61572132D01*
X127809150Y-61559520D01*
X127831329Y-61549030D01*
X127854428Y-61540765D01*
X127878227Y-61534804D01*
X127902495Y-61531204D01*
X127926999Y-61530000D01*
X128577001Y-61530000D01*
X128601505Y-61531204D01*
G37*
%TD*%
%TO.C,R14*%
G36*
X125571505Y-61531204D02*
G01*
X125595773Y-61534804D01*
X125619572Y-61540765D01*
X125642671Y-61549030D01*
X125664850Y-61559520D01*
X125685893Y-61572132D01*
X125705599Y-61586747D01*
X125723777Y-61603223D01*
X125740253Y-61621401D01*
X125754868Y-61641107D01*
X125767480Y-61662150D01*
X125777970Y-61684329D01*
X125786235Y-61707428D01*
X125792196Y-61731227D01*
X125795796Y-61755495D01*
X125797000Y-61779999D01*
X125797000Y-62680001D01*
X125795796Y-62704505D01*
X125792196Y-62728773D01*
X125786235Y-62752572D01*
X125777970Y-62775671D01*
X125767480Y-62797850D01*
X125754868Y-62818893D01*
X125740253Y-62838599D01*
X125723777Y-62856777D01*
X125705599Y-62873253D01*
X125685893Y-62887868D01*
X125664850Y-62900480D01*
X125642671Y-62910970D01*
X125619572Y-62919235D01*
X125595773Y-62925196D01*
X125571505Y-62928796D01*
X125547001Y-62930000D01*
X124896999Y-62930000D01*
X124872495Y-62928796D01*
X124848227Y-62925196D01*
X124824428Y-62919235D01*
X124801329Y-62910970D01*
X124779150Y-62900480D01*
X124758107Y-62887868D01*
X124738401Y-62873253D01*
X124720223Y-62856777D01*
X124703747Y-62838599D01*
X124689132Y-62818893D01*
X124676520Y-62797850D01*
X124666030Y-62775671D01*
X124657765Y-62752572D01*
X124651804Y-62728773D01*
X124648204Y-62704505D01*
X124647000Y-62680001D01*
X124647000Y-61779999D01*
X124648204Y-61755495D01*
X124651804Y-61731227D01*
X124657765Y-61707428D01*
X124666030Y-61684329D01*
X124676520Y-61662150D01*
X124689132Y-61641107D01*
X124703747Y-61621401D01*
X124720223Y-61603223D01*
X124738401Y-61586747D01*
X124758107Y-61572132D01*
X124779150Y-61559520D01*
X124801329Y-61549030D01*
X124824428Y-61540765D01*
X124848227Y-61534804D01*
X124872495Y-61531204D01*
X124896999Y-61530000D01*
X125547001Y-61530000D01*
X125571505Y-61531204D01*
G37*
G36*
X123521505Y-61531204D02*
G01*
X123545773Y-61534804D01*
X123569572Y-61540765D01*
X123592671Y-61549030D01*
X123614850Y-61559520D01*
X123635893Y-61572132D01*
X123655599Y-61586747D01*
X123673777Y-61603223D01*
X123690253Y-61621401D01*
X123704868Y-61641107D01*
X123717480Y-61662150D01*
X123727970Y-61684329D01*
X123736235Y-61707428D01*
X123742196Y-61731227D01*
X123745796Y-61755495D01*
X123747000Y-61779999D01*
X123747000Y-62680001D01*
X123745796Y-62704505D01*
X123742196Y-62728773D01*
X123736235Y-62752572D01*
X123727970Y-62775671D01*
X123717480Y-62797850D01*
X123704868Y-62818893D01*
X123690253Y-62838599D01*
X123673777Y-62856777D01*
X123655599Y-62873253D01*
X123635893Y-62887868D01*
X123614850Y-62900480D01*
X123592671Y-62910970D01*
X123569572Y-62919235D01*
X123545773Y-62925196D01*
X123521505Y-62928796D01*
X123497001Y-62930000D01*
X122846999Y-62930000D01*
X122822495Y-62928796D01*
X122798227Y-62925196D01*
X122774428Y-62919235D01*
X122751329Y-62910970D01*
X122729150Y-62900480D01*
X122708107Y-62887868D01*
X122688401Y-62873253D01*
X122670223Y-62856777D01*
X122653747Y-62838599D01*
X122639132Y-62818893D01*
X122626520Y-62797850D01*
X122616030Y-62775671D01*
X122607765Y-62752572D01*
X122601804Y-62728773D01*
X122598204Y-62704505D01*
X122597000Y-62680001D01*
X122597000Y-61779999D01*
X122598204Y-61755495D01*
X122601804Y-61731227D01*
X122607765Y-61707428D01*
X122616030Y-61684329D01*
X122626520Y-61662150D01*
X122639132Y-61641107D01*
X122653747Y-61621401D01*
X122670223Y-61603223D01*
X122688401Y-61586747D01*
X122708107Y-61572132D01*
X122729150Y-61559520D01*
X122751329Y-61549030D01*
X122774428Y-61540765D01*
X122798227Y-61534804D01*
X122822495Y-61531204D01*
X122846999Y-61530000D01*
X123497001Y-61530000D01*
X123521505Y-61531204D01*
G37*
%TD*%
%TO.C,R11*%
G36*
X134189505Y-65087204D02*
G01*
X134213773Y-65090804D01*
X134237572Y-65096765D01*
X134260671Y-65105030D01*
X134282850Y-65115520D01*
X134303893Y-65128132D01*
X134323599Y-65142747D01*
X134341777Y-65159223D01*
X134358253Y-65177401D01*
X134372868Y-65197107D01*
X134385480Y-65218150D01*
X134395970Y-65240329D01*
X134404235Y-65263428D01*
X134410196Y-65287227D01*
X134413796Y-65311495D01*
X134415000Y-65335999D01*
X134415000Y-66236001D01*
X134413796Y-66260505D01*
X134410196Y-66284773D01*
X134404235Y-66308572D01*
X134395970Y-66331671D01*
X134385480Y-66353850D01*
X134372868Y-66374893D01*
X134358253Y-66394599D01*
X134341777Y-66412777D01*
X134323599Y-66429253D01*
X134303893Y-66443868D01*
X134282850Y-66456480D01*
X134260671Y-66466970D01*
X134237572Y-66475235D01*
X134213773Y-66481196D01*
X134189505Y-66484796D01*
X134165001Y-66486000D01*
X133514999Y-66486000D01*
X133490495Y-66484796D01*
X133466227Y-66481196D01*
X133442428Y-66475235D01*
X133419329Y-66466970D01*
X133397150Y-66456480D01*
X133376107Y-66443868D01*
X133356401Y-66429253D01*
X133338223Y-66412777D01*
X133321747Y-66394599D01*
X133307132Y-66374893D01*
X133294520Y-66353850D01*
X133284030Y-66331671D01*
X133275765Y-66308572D01*
X133269804Y-66284773D01*
X133266204Y-66260505D01*
X133265000Y-66236001D01*
X133265000Y-65335999D01*
X133266204Y-65311495D01*
X133269804Y-65287227D01*
X133275765Y-65263428D01*
X133284030Y-65240329D01*
X133294520Y-65218150D01*
X133307132Y-65197107D01*
X133321747Y-65177401D01*
X133338223Y-65159223D01*
X133356401Y-65142747D01*
X133376107Y-65128132D01*
X133397150Y-65115520D01*
X133419329Y-65105030D01*
X133442428Y-65096765D01*
X133466227Y-65090804D01*
X133490495Y-65087204D01*
X133514999Y-65086000D01*
X134165001Y-65086000D01*
X134189505Y-65087204D01*
G37*
G36*
X136239505Y-65087204D02*
G01*
X136263773Y-65090804D01*
X136287572Y-65096765D01*
X136310671Y-65105030D01*
X136332850Y-65115520D01*
X136353893Y-65128132D01*
X136373599Y-65142747D01*
X136391777Y-65159223D01*
X136408253Y-65177401D01*
X136422868Y-65197107D01*
X136435480Y-65218150D01*
X136445970Y-65240329D01*
X136454235Y-65263428D01*
X136460196Y-65287227D01*
X136463796Y-65311495D01*
X136465000Y-65335999D01*
X136465000Y-66236001D01*
X136463796Y-66260505D01*
X136460196Y-66284773D01*
X136454235Y-66308572D01*
X136445970Y-66331671D01*
X136435480Y-66353850D01*
X136422868Y-66374893D01*
X136408253Y-66394599D01*
X136391777Y-66412777D01*
X136373599Y-66429253D01*
X136353893Y-66443868D01*
X136332850Y-66456480D01*
X136310671Y-66466970D01*
X136287572Y-66475235D01*
X136263773Y-66481196D01*
X136239505Y-66484796D01*
X136215001Y-66486000D01*
X135564999Y-66486000D01*
X135540495Y-66484796D01*
X135516227Y-66481196D01*
X135492428Y-66475235D01*
X135469329Y-66466970D01*
X135447150Y-66456480D01*
X135426107Y-66443868D01*
X135406401Y-66429253D01*
X135388223Y-66412777D01*
X135371747Y-66394599D01*
X135357132Y-66374893D01*
X135344520Y-66353850D01*
X135334030Y-66331671D01*
X135325765Y-66308572D01*
X135319804Y-66284773D01*
X135316204Y-66260505D01*
X135315000Y-66236001D01*
X135315000Y-65335999D01*
X135316204Y-65311495D01*
X135319804Y-65287227D01*
X135325765Y-65263428D01*
X135334030Y-65240329D01*
X135344520Y-65218150D01*
X135357132Y-65197107D01*
X135371747Y-65177401D01*
X135388223Y-65159223D01*
X135406401Y-65142747D01*
X135426107Y-65128132D01*
X135447150Y-65115520D01*
X135469329Y-65105030D01*
X135492428Y-65096765D01*
X135516227Y-65090804D01*
X135540495Y-65087204D01*
X135564999Y-65086000D01*
X136215001Y-65086000D01*
X136239505Y-65087204D01*
G37*
%TD*%
D20*
%TO.C,J8*%
X101854000Y-47180000D03*
D21*
X101854000Y-51680000D03*
%TD*%
D22*
%TO.C,J7*%
X121158000Y-43180000D03*
D23*
X116158000Y-48180000D03*
X118658000Y-48180000D03*
X123658000Y-48180000D03*
X126158000Y-48180000D03*
D24*
X126158000Y-40680000D03*
X126158000Y-43180000D03*
X121158000Y-48180000D03*
X116158000Y-40680000D03*
X116158000Y-43180000D03*
%TD*%
D13*
%TO.C,C12*%
G36*
X125571505Y-57467204D02*
G01*
X125595773Y-57470804D01*
X125619572Y-57476765D01*
X125642671Y-57485030D01*
X125664850Y-57495520D01*
X125685893Y-57508132D01*
X125705599Y-57522747D01*
X125723777Y-57539223D01*
X125740253Y-57557401D01*
X125754868Y-57577107D01*
X125767480Y-57598150D01*
X125777970Y-57620329D01*
X125786235Y-57643428D01*
X125792196Y-57667227D01*
X125795796Y-57691495D01*
X125797000Y-57715999D01*
X125797000Y-58616001D01*
X125795796Y-58640505D01*
X125792196Y-58664773D01*
X125786235Y-58688572D01*
X125777970Y-58711671D01*
X125767480Y-58733850D01*
X125754868Y-58754893D01*
X125740253Y-58774599D01*
X125723777Y-58792777D01*
X125705599Y-58809253D01*
X125685893Y-58823868D01*
X125664850Y-58836480D01*
X125642671Y-58846970D01*
X125619572Y-58855235D01*
X125595773Y-58861196D01*
X125571505Y-58864796D01*
X125547001Y-58866000D01*
X124896999Y-58866000D01*
X124872495Y-58864796D01*
X124848227Y-58861196D01*
X124824428Y-58855235D01*
X124801329Y-58846970D01*
X124779150Y-58836480D01*
X124758107Y-58823868D01*
X124738401Y-58809253D01*
X124720223Y-58792777D01*
X124703747Y-58774599D01*
X124689132Y-58754893D01*
X124676520Y-58733850D01*
X124666030Y-58711671D01*
X124657765Y-58688572D01*
X124651804Y-58664773D01*
X124648204Y-58640505D01*
X124647000Y-58616001D01*
X124647000Y-57715999D01*
X124648204Y-57691495D01*
X124651804Y-57667227D01*
X124657765Y-57643428D01*
X124666030Y-57620329D01*
X124676520Y-57598150D01*
X124689132Y-57577107D01*
X124703747Y-57557401D01*
X124720223Y-57539223D01*
X124738401Y-57522747D01*
X124758107Y-57508132D01*
X124779150Y-57495520D01*
X124801329Y-57485030D01*
X124824428Y-57476765D01*
X124848227Y-57470804D01*
X124872495Y-57467204D01*
X124896999Y-57466000D01*
X125547001Y-57466000D01*
X125571505Y-57467204D01*
G37*
G36*
X123521505Y-57467204D02*
G01*
X123545773Y-57470804D01*
X123569572Y-57476765D01*
X123592671Y-57485030D01*
X123614850Y-57495520D01*
X123635893Y-57508132D01*
X123655599Y-57522747D01*
X123673777Y-57539223D01*
X123690253Y-57557401D01*
X123704868Y-57577107D01*
X123717480Y-57598150D01*
X123727970Y-57620329D01*
X123736235Y-57643428D01*
X123742196Y-57667227D01*
X123745796Y-57691495D01*
X123747000Y-57715999D01*
X123747000Y-58616001D01*
X123745796Y-58640505D01*
X123742196Y-58664773D01*
X123736235Y-58688572D01*
X123727970Y-58711671D01*
X123717480Y-58733850D01*
X123704868Y-58754893D01*
X123690253Y-58774599D01*
X123673777Y-58792777D01*
X123655599Y-58809253D01*
X123635893Y-58823868D01*
X123614850Y-58836480D01*
X123592671Y-58846970D01*
X123569572Y-58855235D01*
X123545773Y-58861196D01*
X123521505Y-58864796D01*
X123497001Y-58866000D01*
X122846999Y-58866000D01*
X122822495Y-58864796D01*
X122798227Y-58861196D01*
X122774428Y-58855235D01*
X122751329Y-58846970D01*
X122729150Y-58836480D01*
X122708107Y-58823868D01*
X122688401Y-58809253D01*
X122670223Y-58792777D01*
X122653747Y-58774599D01*
X122639132Y-58754893D01*
X122626520Y-58733850D01*
X122616030Y-58711671D01*
X122607765Y-58688572D01*
X122601804Y-58664773D01*
X122598204Y-58640505D01*
X122597000Y-58616001D01*
X122597000Y-57715999D01*
X122598204Y-57691495D01*
X122601804Y-57667227D01*
X122607765Y-57643428D01*
X122616030Y-57620329D01*
X122626520Y-57598150D01*
X122639132Y-57577107D01*
X122653747Y-57557401D01*
X122670223Y-57539223D01*
X122688401Y-57522747D01*
X122708107Y-57508132D01*
X122729150Y-57495520D01*
X122751329Y-57485030D01*
X122774428Y-57476765D01*
X122798227Y-57470804D01*
X122822495Y-57467204D01*
X122846999Y-57466000D01*
X123497001Y-57466000D01*
X123521505Y-57467204D01*
G37*
%TD*%
%TO.C,C11*%
G36*
X140557505Y-69151204D02*
G01*
X140581773Y-69154804D01*
X140605572Y-69160765D01*
X140628671Y-69169030D01*
X140650850Y-69179520D01*
X140671893Y-69192132D01*
X140691599Y-69206747D01*
X140709777Y-69223223D01*
X140726253Y-69241401D01*
X140740868Y-69261107D01*
X140753480Y-69282150D01*
X140763970Y-69304329D01*
X140772235Y-69327428D01*
X140778196Y-69351227D01*
X140781796Y-69375495D01*
X140783000Y-69399999D01*
X140783000Y-70300001D01*
X140781796Y-70324505D01*
X140778196Y-70348773D01*
X140772235Y-70372572D01*
X140763970Y-70395671D01*
X140753480Y-70417850D01*
X140740868Y-70438893D01*
X140726253Y-70458599D01*
X140709777Y-70476777D01*
X140691599Y-70493253D01*
X140671893Y-70507868D01*
X140650850Y-70520480D01*
X140628671Y-70530970D01*
X140605572Y-70539235D01*
X140581773Y-70545196D01*
X140557505Y-70548796D01*
X140533001Y-70550000D01*
X139882999Y-70550000D01*
X139858495Y-70548796D01*
X139834227Y-70545196D01*
X139810428Y-70539235D01*
X139787329Y-70530970D01*
X139765150Y-70520480D01*
X139744107Y-70507868D01*
X139724401Y-70493253D01*
X139706223Y-70476777D01*
X139689747Y-70458599D01*
X139675132Y-70438893D01*
X139662520Y-70417850D01*
X139652030Y-70395671D01*
X139643765Y-70372572D01*
X139637804Y-70348773D01*
X139634204Y-70324505D01*
X139633000Y-70300001D01*
X139633000Y-69399999D01*
X139634204Y-69375495D01*
X139637804Y-69351227D01*
X139643765Y-69327428D01*
X139652030Y-69304329D01*
X139662520Y-69282150D01*
X139675132Y-69261107D01*
X139689747Y-69241401D01*
X139706223Y-69223223D01*
X139724401Y-69206747D01*
X139744107Y-69192132D01*
X139765150Y-69179520D01*
X139787329Y-69169030D01*
X139810428Y-69160765D01*
X139834227Y-69154804D01*
X139858495Y-69151204D01*
X139882999Y-69150000D01*
X140533001Y-69150000D01*
X140557505Y-69151204D01*
G37*
G36*
X138507505Y-69151204D02*
G01*
X138531773Y-69154804D01*
X138555572Y-69160765D01*
X138578671Y-69169030D01*
X138600850Y-69179520D01*
X138621893Y-69192132D01*
X138641599Y-69206747D01*
X138659777Y-69223223D01*
X138676253Y-69241401D01*
X138690868Y-69261107D01*
X138703480Y-69282150D01*
X138713970Y-69304329D01*
X138722235Y-69327428D01*
X138728196Y-69351227D01*
X138731796Y-69375495D01*
X138733000Y-69399999D01*
X138733000Y-70300001D01*
X138731796Y-70324505D01*
X138728196Y-70348773D01*
X138722235Y-70372572D01*
X138713970Y-70395671D01*
X138703480Y-70417850D01*
X138690868Y-70438893D01*
X138676253Y-70458599D01*
X138659777Y-70476777D01*
X138641599Y-70493253D01*
X138621893Y-70507868D01*
X138600850Y-70520480D01*
X138578671Y-70530970D01*
X138555572Y-70539235D01*
X138531773Y-70545196D01*
X138507505Y-70548796D01*
X138483001Y-70550000D01*
X137832999Y-70550000D01*
X137808495Y-70548796D01*
X137784227Y-70545196D01*
X137760428Y-70539235D01*
X137737329Y-70530970D01*
X137715150Y-70520480D01*
X137694107Y-70507868D01*
X137674401Y-70493253D01*
X137656223Y-70476777D01*
X137639747Y-70458599D01*
X137625132Y-70438893D01*
X137612520Y-70417850D01*
X137602030Y-70395671D01*
X137593765Y-70372572D01*
X137587804Y-70348773D01*
X137584204Y-70324505D01*
X137583000Y-70300001D01*
X137583000Y-69399999D01*
X137584204Y-69375495D01*
X137587804Y-69351227D01*
X137593765Y-69327428D01*
X137602030Y-69304329D01*
X137612520Y-69282150D01*
X137625132Y-69261107D01*
X137639747Y-69241401D01*
X137656223Y-69223223D01*
X137674401Y-69206747D01*
X137694107Y-69192132D01*
X137715150Y-69179520D01*
X137737329Y-69169030D01*
X137760428Y-69160765D01*
X137784227Y-69154804D01*
X137808495Y-69151204D01*
X137832999Y-69150000D01*
X138483001Y-69150000D01*
X138507505Y-69151204D01*
G37*
%TD*%
D25*
%TO.C,TP2*%
X147320000Y-78867000D03*
%TD*%
D13*
%TO.C,R10*%
G36*
X165320505Y-79309204D02*
G01*
X165344773Y-79312804D01*
X165368572Y-79318765D01*
X165391671Y-79327030D01*
X165413850Y-79337520D01*
X165434893Y-79350132D01*
X165454599Y-79364747D01*
X165472777Y-79381223D01*
X165489253Y-79399401D01*
X165503868Y-79419107D01*
X165516480Y-79440150D01*
X165526970Y-79462329D01*
X165535235Y-79485428D01*
X165541196Y-79509227D01*
X165544796Y-79533495D01*
X165546000Y-79557999D01*
X165546000Y-80208001D01*
X165544796Y-80232505D01*
X165541196Y-80256773D01*
X165535235Y-80280572D01*
X165526970Y-80303671D01*
X165516480Y-80325850D01*
X165503868Y-80346893D01*
X165489253Y-80366599D01*
X165472777Y-80384777D01*
X165454599Y-80401253D01*
X165434893Y-80415868D01*
X165413850Y-80428480D01*
X165391671Y-80438970D01*
X165368572Y-80447235D01*
X165344773Y-80453196D01*
X165320505Y-80456796D01*
X165296001Y-80458000D01*
X164395999Y-80458000D01*
X164371495Y-80456796D01*
X164347227Y-80453196D01*
X164323428Y-80447235D01*
X164300329Y-80438970D01*
X164278150Y-80428480D01*
X164257107Y-80415868D01*
X164237401Y-80401253D01*
X164219223Y-80384777D01*
X164202747Y-80366599D01*
X164188132Y-80346893D01*
X164175520Y-80325850D01*
X164165030Y-80303671D01*
X164156765Y-80280572D01*
X164150804Y-80256773D01*
X164147204Y-80232505D01*
X164146000Y-80208001D01*
X164146000Y-79557999D01*
X164147204Y-79533495D01*
X164150804Y-79509227D01*
X164156765Y-79485428D01*
X164165030Y-79462329D01*
X164175520Y-79440150D01*
X164188132Y-79419107D01*
X164202747Y-79399401D01*
X164219223Y-79381223D01*
X164237401Y-79364747D01*
X164257107Y-79350132D01*
X164278150Y-79337520D01*
X164300329Y-79327030D01*
X164323428Y-79318765D01*
X164347227Y-79312804D01*
X164371495Y-79309204D01*
X164395999Y-79308000D01*
X165296001Y-79308000D01*
X165320505Y-79309204D01*
G37*
G36*
X165320505Y-81359204D02*
G01*
X165344773Y-81362804D01*
X165368572Y-81368765D01*
X165391671Y-81377030D01*
X165413850Y-81387520D01*
X165434893Y-81400132D01*
X165454599Y-81414747D01*
X165472777Y-81431223D01*
X165489253Y-81449401D01*
X165503868Y-81469107D01*
X165516480Y-81490150D01*
X165526970Y-81512329D01*
X165535235Y-81535428D01*
X165541196Y-81559227D01*
X165544796Y-81583495D01*
X165546000Y-81607999D01*
X165546000Y-82258001D01*
X165544796Y-82282505D01*
X165541196Y-82306773D01*
X165535235Y-82330572D01*
X165526970Y-82353671D01*
X165516480Y-82375850D01*
X165503868Y-82396893D01*
X165489253Y-82416599D01*
X165472777Y-82434777D01*
X165454599Y-82451253D01*
X165434893Y-82465868D01*
X165413850Y-82478480D01*
X165391671Y-82488970D01*
X165368572Y-82497235D01*
X165344773Y-82503196D01*
X165320505Y-82506796D01*
X165296001Y-82508000D01*
X164395999Y-82508000D01*
X164371495Y-82506796D01*
X164347227Y-82503196D01*
X164323428Y-82497235D01*
X164300329Y-82488970D01*
X164278150Y-82478480D01*
X164257107Y-82465868D01*
X164237401Y-82451253D01*
X164219223Y-82434777D01*
X164202747Y-82416599D01*
X164188132Y-82396893D01*
X164175520Y-82375850D01*
X164165030Y-82353671D01*
X164156765Y-82330572D01*
X164150804Y-82306773D01*
X164147204Y-82282505D01*
X164146000Y-82258001D01*
X164146000Y-81607999D01*
X164147204Y-81583495D01*
X164150804Y-81559227D01*
X164156765Y-81535428D01*
X164165030Y-81512329D01*
X164175520Y-81490150D01*
X164188132Y-81469107D01*
X164202747Y-81449401D01*
X164219223Y-81431223D01*
X164237401Y-81414747D01*
X164257107Y-81400132D01*
X164278150Y-81387520D01*
X164300329Y-81377030D01*
X164323428Y-81368765D01*
X164347227Y-81362804D01*
X164371495Y-81359204D01*
X164395999Y-81358000D01*
X165296001Y-81358000D01*
X165320505Y-81359204D01*
G37*
%TD*%
%TO.C,R9*%
G36*
X165320505Y-83745204D02*
G01*
X165344773Y-83748804D01*
X165368572Y-83754765D01*
X165391671Y-83763030D01*
X165413850Y-83773520D01*
X165434893Y-83786132D01*
X165454599Y-83800747D01*
X165472777Y-83817223D01*
X165489253Y-83835401D01*
X165503868Y-83855107D01*
X165516480Y-83876150D01*
X165526970Y-83898329D01*
X165535235Y-83921428D01*
X165541196Y-83945227D01*
X165544796Y-83969495D01*
X165546000Y-83993999D01*
X165546000Y-84644001D01*
X165544796Y-84668505D01*
X165541196Y-84692773D01*
X165535235Y-84716572D01*
X165526970Y-84739671D01*
X165516480Y-84761850D01*
X165503868Y-84782893D01*
X165489253Y-84802599D01*
X165472777Y-84820777D01*
X165454599Y-84837253D01*
X165434893Y-84851868D01*
X165413850Y-84864480D01*
X165391671Y-84874970D01*
X165368572Y-84883235D01*
X165344773Y-84889196D01*
X165320505Y-84892796D01*
X165296001Y-84894000D01*
X164395999Y-84894000D01*
X164371495Y-84892796D01*
X164347227Y-84889196D01*
X164323428Y-84883235D01*
X164300329Y-84874970D01*
X164278150Y-84864480D01*
X164257107Y-84851868D01*
X164237401Y-84837253D01*
X164219223Y-84820777D01*
X164202747Y-84802599D01*
X164188132Y-84782893D01*
X164175520Y-84761850D01*
X164165030Y-84739671D01*
X164156765Y-84716572D01*
X164150804Y-84692773D01*
X164147204Y-84668505D01*
X164146000Y-84644001D01*
X164146000Y-83993999D01*
X164147204Y-83969495D01*
X164150804Y-83945227D01*
X164156765Y-83921428D01*
X164165030Y-83898329D01*
X164175520Y-83876150D01*
X164188132Y-83855107D01*
X164202747Y-83835401D01*
X164219223Y-83817223D01*
X164237401Y-83800747D01*
X164257107Y-83786132D01*
X164278150Y-83773520D01*
X164300329Y-83763030D01*
X164323428Y-83754765D01*
X164347227Y-83748804D01*
X164371495Y-83745204D01*
X164395999Y-83744000D01*
X165296001Y-83744000D01*
X165320505Y-83745204D01*
G37*
G36*
X165320505Y-85795204D02*
G01*
X165344773Y-85798804D01*
X165368572Y-85804765D01*
X165391671Y-85813030D01*
X165413850Y-85823520D01*
X165434893Y-85836132D01*
X165454599Y-85850747D01*
X165472777Y-85867223D01*
X165489253Y-85885401D01*
X165503868Y-85905107D01*
X165516480Y-85926150D01*
X165526970Y-85948329D01*
X165535235Y-85971428D01*
X165541196Y-85995227D01*
X165544796Y-86019495D01*
X165546000Y-86043999D01*
X165546000Y-86694001D01*
X165544796Y-86718505D01*
X165541196Y-86742773D01*
X165535235Y-86766572D01*
X165526970Y-86789671D01*
X165516480Y-86811850D01*
X165503868Y-86832893D01*
X165489253Y-86852599D01*
X165472777Y-86870777D01*
X165454599Y-86887253D01*
X165434893Y-86901868D01*
X165413850Y-86914480D01*
X165391671Y-86924970D01*
X165368572Y-86933235D01*
X165344773Y-86939196D01*
X165320505Y-86942796D01*
X165296001Y-86944000D01*
X164395999Y-86944000D01*
X164371495Y-86942796D01*
X164347227Y-86939196D01*
X164323428Y-86933235D01*
X164300329Y-86924970D01*
X164278150Y-86914480D01*
X164257107Y-86901868D01*
X164237401Y-86887253D01*
X164219223Y-86870777D01*
X164202747Y-86852599D01*
X164188132Y-86832893D01*
X164175520Y-86811850D01*
X164165030Y-86789671D01*
X164156765Y-86766572D01*
X164150804Y-86742773D01*
X164147204Y-86718505D01*
X164146000Y-86694001D01*
X164146000Y-86043999D01*
X164147204Y-86019495D01*
X164150804Y-85995227D01*
X164156765Y-85971428D01*
X164165030Y-85948329D01*
X164175520Y-85926150D01*
X164188132Y-85905107D01*
X164202747Y-85885401D01*
X164219223Y-85867223D01*
X164237401Y-85850747D01*
X164257107Y-85836132D01*
X164278150Y-85823520D01*
X164300329Y-85813030D01*
X164323428Y-85804765D01*
X164347227Y-85798804D01*
X164371495Y-85795204D01*
X164395999Y-85794000D01*
X165296001Y-85794000D01*
X165320505Y-85795204D01*
G37*
%TD*%
%TO.C,R8*%
G36*
X143222505Y-84244204D02*
G01*
X143246773Y-84247804D01*
X143270572Y-84253765D01*
X143293671Y-84262030D01*
X143315850Y-84272520D01*
X143336893Y-84285132D01*
X143356599Y-84299747D01*
X143374777Y-84316223D01*
X143391253Y-84334401D01*
X143405868Y-84354107D01*
X143418480Y-84375150D01*
X143428970Y-84397329D01*
X143437235Y-84420428D01*
X143443196Y-84444227D01*
X143446796Y-84468495D01*
X143448000Y-84492999D01*
X143448000Y-85143001D01*
X143446796Y-85167505D01*
X143443196Y-85191773D01*
X143437235Y-85215572D01*
X143428970Y-85238671D01*
X143418480Y-85260850D01*
X143405868Y-85281893D01*
X143391253Y-85301599D01*
X143374777Y-85319777D01*
X143356599Y-85336253D01*
X143336893Y-85350868D01*
X143315850Y-85363480D01*
X143293671Y-85373970D01*
X143270572Y-85382235D01*
X143246773Y-85388196D01*
X143222505Y-85391796D01*
X143198001Y-85393000D01*
X142297999Y-85393000D01*
X142273495Y-85391796D01*
X142249227Y-85388196D01*
X142225428Y-85382235D01*
X142202329Y-85373970D01*
X142180150Y-85363480D01*
X142159107Y-85350868D01*
X142139401Y-85336253D01*
X142121223Y-85319777D01*
X142104747Y-85301599D01*
X142090132Y-85281893D01*
X142077520Y-85260850D01*
X142067030Y-85238671D01*
X142058765Y-85215572D01*
X142052804Y-85191773D01*
X142049204Y-85167505D01*
X142048000Y-85143001D01*
X142048000Y-84492999D01*
X142049204Y-84468495D01*
X142052804Y-84444227D01*
X142058765Y-84420428D01*
X142067030Y-84397329D01*
X142077520Y-84375150D01*
X142090132Y-84354107D01*
X142104747Y-84334401D01*
X142121223Y-84316223D01*
X142139401Y-84299747D01*
X142159107Y-84285132D01*
X142180150Y-84272520D01*
X142202329Y-84262030D01*
X142225428Y-84253765D01*
X142249227Y-84247804D01*
X142273495Y-84244204D01*
X142297999Y-84243000D01*
X143198001Y-84243000D01*
X143222505Y-84244204D01*
G37*
G36*
X143222505Y-86294204D02*
G01*
X143246773Y-86297804D01*
X143270572Y-86303765D01*
X143293671Y-86312030D01*
X143315850Y-86322520D01*
X143336893Y-86335132D01*
X143356599Y-86349747D01*
X143374777Y-86366223D01*
X143391253Y-86384401D01*
X143405868Y-86404107D01*
X143418480Y-86425150D01*
X143428970Y-86447329D01*
X143437235Y-86470428D01*
X143443196Y-86494227D01*
X143446796Y-86518495D01*
X143448000Y-86542999D01*
X143448000Y-87193001D01*
X143446796Y-87217505D01*
X143443196Y-87241773D01*
X143437235Y-87265572D01*
X143428970Y-87288671D01*
X143418480Y-87310850D01*
X143405868Y-87331893D01*
X143391253Y-87351599D01*
X143374777Y-87369777D01*
X143356599Y-87386253D01*
X143336893Y-87400868D01*
X143315850Y-87413480D01*
X143293671Y-87423970D01*
X143270572Y-87432235D01*
X143246773Y-87438196D01*
X143222505Y-87441796D01*
X143198001Y-87443000D01*
X142297999Y-87443000D01*
X142273495Y-87441796D01*
X142249227Y-87438196D01*
X142225428Y-87432235D01*
X142202329Y-87423970D01*
X142180150Y-87413480D01*
X142159107Y-87400868D01*
X142139401Y-87386253D01*
X142121223Y-87369777D01*
X142104747Y-87351599D01*
X142090132Y-87331893D01*
X142077520Y-87310850D01*
X142067030Y-87288671D01*
X142058765Y-87265572D01*
X142052804Y-87241773D01*
X142049204Y-87217505D01*
X142048000Y-87193001D01*
X142048000Y-86542999D01*
X142049204Y-86518495D01*
X142052804Y-86494227D01*
X142058765Y-86470428D01*
X142067030Y-86447329D01*
X142077520Y-86425150D01*
X142090132Y-86404107D01*
X142104747Y-86384401D01*
X142121223Y-86366223D01*
X142139401Y-86349747D01*
X142159107Y-86335132D01*
X142180150Y-86322520D01*
X142202329Y-86312030D01*
X142225428Y-86303765D01*
X142249227Y-86297804D01*
X142273495Y-86294204D01*
X142297999Y-86293000D01*
X143198001Y-86293000D01*
X143222505Y-86294204D01*
G37*
%TD*%
%TO.C,R7*%
G36*
X149826505Y-86185204D02*
G01*
X149850773Y-86188804D01*
X149874572Y-86194765D01*
X149897671Y-86203030D01*
X149919850Y-86213520D01*
X149940893Y-86226132D01*
X149960599Y-86240747D01*
X149978777Y-86257223D01*
X149995253Y-86275401D01*
X150009868Y-86295107D01*
X150022480Y-86316150D01*
X150032970Y-86338329D01*
X150041235Y-86361428D01*
X150047196Y-86385227D01*
X150050796Y-86409495D01*
X150052000Y-86433999D01*
X150052000Y-87084001D01*
X150050796Y-87108505D01*
X150047196Y-87132773D01*
X150041235Y-87156572D01*
X150032970Y-87179671D01*
X150022480Y-87201850D01*
X150009868Y-87222893D01*
X149995253Y-87242599D01*
X149978777Y-87260777D01*
X149960599Y-87277253D01*
X149940893Y-87291868D01*
X149919850Y-87304480D01*
X149897671Y-87314970D01*
X149874572Y-87323235D01*
X149850773Y-87329196D01*
X149826505Y-87332796D01*
X149802001Y-87334000D01*
X148901999Y-87334000D01*
X148877495Y-87332796D01*
X148853227Y-87329196D01*
X148829428Y-87323235D01*
X148806329Y-87314970D01*
X148784150Y-87304480D01*
X148763107Y-87291868D01*
X148743401Y-87277253D01*
X148725223Y-87260777D01*
X148708747Y-87242599D01*
X148694132Y-87222893D01*
X148681520Y-87201850D01*
X148671030Y-87179671D01*
X148662765Y-87156572D01*
X148656804Y-87132773D01*
X148653204Y-87108505D01*
X148652000Y-87084001D01*
X148652000Y-86433999D01*
X148653204Y-86409495D01*
X148656804Y-86385227D01*
X148662765Y-86361428D01*
X148671030Y-86338329D01*
X148681520Y-86316150D01*
X148694132Y-86295107D01*
X148708747Y-86275401D01*
X148725223Y-86257223D01*
X148743401Y-86240747D01*
X148763107Y-86226132D01*
X148784150Y-86213520D01*
X148806329Y-86203030D01*
X148829428Y-86194765D01*
X148853227Y-86188804D01*
X148877495Y-86185204D01*
X148901999Y-86184000D01*
X149802001Y-86184000D01*
X149826505Y-86185204D01*
G37*
G36*
X149826505Y-84135204D02*
G01*
X149850773Y-84138804D01*
X149874572Y-84144765D01*
X149897671Y-84153030D01*
X149919850Y-84163520D01*
X149940893Y-84176132D01*
X149960599Y-84190747D01*
X149978777Y-84207223D01*
X149995253Y-84225401D01*
X150009868Y-84245107D01*
X150022480Y-84266150D01*
X150032970Y-84288329D01*
X150041235Y-84311428D01*
X150047196Y-84335227D01*
X150050796Y-84359495D01*
X150052000Y-84383999D01*
X150052000Y-85034001D01*
X150050796Y-85058505D01*
X150047196Y-85082773D01*
X150041235Y-85106572D01*
X150032970Y-85129671D01*
X150022480Y-85151850D01*
X150009868Y-85172893D01*
X149995253Y-85192599D01*
X149978777Y-85210777D01*
X149960599Y-85227253D01*
X149940893Y-85241868D01*
X149919850Y-85254480D01*
X149897671Y-85264970D01*
X149874572Y-85273235D01*
X149850773Y-85279196D01*
X149826505Y-85282796D01*
X149802001Y-85284000D01*
X148901999Y-85284000D01*
X148877495Y-85282796D01*
X148853227Y-85279196D01*
X148829428Y-85273235D01*
X148806329Y-85264970D01*
X148784150Y-85254480D01*
X148763107Y-85241868D01*
X148743401Y-85227253D01*
X148725223Y-85210777D01*
X148708747Y-85192599D01*
X148694132Y-85172893D01*
X148681520Y-85151850D01*
X148671030Y-85129671D01*
X148662765Y-85106572D01*
X148656804Y-85082773D01*
X148653204Y-85058505D01*
X148652000Y-85034001D01*
X148652000Y-84383999D01*
X148653204Y-84359495D01*
X148656804Y-84335227D01*
X148662765Y-84311428D01*
X148671030Y-84288329D01*
X148681520Y-84266150D01*
X148694132Y-84245107D01*
X148708747Y-84225401D01*
X148725223Y-84207223D01*
X148743401Y-84190747D01*
X148763107Y-84176132D01*
X148784150Y-84163520D01*
X148806329Y-84153030D01*
X148829428Y-84144765D01*
X148853227Y-84138804D01*
X148877495Y-84135204D01*
X148901999Y-84134000D01*
X149802001Y-84134000D01*
X149826505Y-84135204D01*
G37*
%TD*%
%TO.C,R6*%
G36*
X133824505Y-84244204D02*
G01*
X133848773Y-84247804D01*
X133872572Y-84253765D01*
X133895671Y-84262030D01*
X133917850Y-84272520D01*
X133938893Y-84285132D01*
X133958599Y-84299747D01*
X133976777Y-84316223D01*
X133993253Y-84334401D01*
X134007868Y-84354107D01*
X134020480Y-84375150D01*
X134030970Y-84397329D01*
X134039235Y-84420428D01*
X134045196Y-84444227D01*
X134048796Y-84468495D01*
X134050000Y-84492999D01*
X134050000Y-85143001D01*
X134048796Y-85167505D01*
X134045196Y-85191773D01*
X134039235Y-85215572D01*
X134030970Y-85238671D01*
X134020480Y-85260850D01*
X134007868Y-85281893D01*
X133993253Y-85301599D01*
X133976777Y-85319777D01*
X133958599Y-85336253D01*
X133938893Y-85350868D01*
X133917850Y-85363480D01*
X133895671Y-85373970D01*
X133872572Y-85382235D01*
X133848773Y-85388196D01*
X133824505Y-85391796D01*
X133800001Y-85393000D01*
X132899999Y-85393000D01*
X132875495Y-85391796D01*
X132851227Y-85388196D01*
X132827428Y-85382235D01*
X132804329Y-85373970D01*
X132782150Y-85363480D01*
X132761107Y-85350868D01*
X132741401Y-85336253D01*
X132723223Y-85319777D01*
X132706747Y-85301599D01*
X132692132Y-85281893D01*
X132679520Y-85260850D01*
X132669030Y-85238671D01*
X132660765Y-85215572D01*
X132654804Y-85191773D01*
X132651204Y-85167505D01*
X132650000Y-85143001D01*
X132650000Y-84492999D01*
X132651204Y-84468495D01*
X132654804Y-84444227D01*
X132660765Y-84420428D01*
X132669030Y-84397329D01*
X132679520Y-84375150D01*
X132692132Y-84354107D01*
X132706747Y-84334401D01*
X132723223Y-84316223D01*
X132741401Y-84299747D01*
X132761107Y-84285132D01*
X132782150Y-84272520D01*
X132804329Y-84262030D01*
X132827428Y-84253765D01*
X132851227Y-84247804D01*
X132875495Y-84244204D01*
X132899999Y-84243000D01*
X133800001Y-84243000D01*
X133824505Y-84244204D01*
G37*
G36*
X133824505Y-86294204D02*
G01*
X133848773Y-86297804D01*
X133872572Y-86303765D01*
X133895671Y-86312030D01*
X133917850Y-86322520D01*
X133938893Y-86335132D01*
X133958599Y-86349747D01*
X133976777Y-86366223D01*
X133993253Y-86384401D01*
X134007868Y-86404107D01*
X134020480Y-86425150D01*
X134030970Y-86447329D01*
X134039235Y-86470428D01*
X134045196Y-86494227D01*
X134048796Y-86518495D01*
X134050000Y-86542999D01*
X134050000Y-87193001D01*
X134048796Y-87217505D01*
X134045196Y-87241773D01*
X134039235Y-87265572D01*
X134030970Y-87288671D01*
X134020480Y-87310850D01*
X134007868Y-87331893D01*
X133993253Y-87351599D01*
X133976777Y-87369777D01*
X133958599Y-87386253D01*
X133938893Y-87400868D01*
X133917850Y-87413480D01*
X133895671Y-87423970D01*
X133872572Y-87432235D01*
X133848773Y-87438196D01*
X133824505Y-87441796D01*
X133800001Y-87443000D01*
X132899999Y-87443000D01*
X132875495Y-87441796D01*
X132851227Y-87438196D01*
X132827428Y-87432235D01*
X132804329Y-87423970D01*
X132782150Y-87413480D01*
X132761107Y-87400868D01*
X132741401Y-87386253D01*
X132723223Y-87369777D01*
X132706747Y-87351599D01*
X132692132Y-87331893D01*
X132679520Y-87310850D01*
X132669030Y-87288671D01*
X132660765Y-87265572D01*
X132654804Y-87241773D01*
X132651204Y-87217505D01*
X132650000Y-87193001D01*
X132650000Y-86542999D01*
X132651204Y-86518495D01*
X132654804Y-86494227D01*
X132660765Y-86470428D01*
X132669030Y-86447329D01*
X132679520Y-86425150D01*
X132692132Y-86404107D01*
X132706747Y-86384401D01*
X132723223Y-86366223D01*
X132741401Y-86349747D01*
X132761107Y-86335132D01*
X132782150Y-86322520D01*
X132804329Y-86312030D01*
X132827428Y-86303765D01*
X132851227Y-86297804D01*
X132875495Y-86294204D01*
X132899999Y-86293000D01*
X133800001Y-86293000D01*
X133824505Y-86294204D01*
G37*
%TD*%
%TO.C,R5*%
G36*
X153636505Y-84126204D02*
G01*
X153660773Y-84129804D01*
X153684572Y-84135765D01*
X153707671Y-84144030D01*
X153729850Y-84154520D01*
X153750893Y-84167132D01*
X153770599Y-84181747D01*
X153788777Y-84198223D01*
X153805253Y-84216401D01*
X153819868Y-84236107D01*
X153832480Y-84257150D01*
X153842970Y-84279329D01*
X153851235Y-84302428D01*
X153857196Y-84326227D01*
X153860796Y-84350495D01*
X153862000Y-84374999D01*
X153862000Y-85025001D01*
X153860796Y-85049505D01*
X153857196Y-85073773D01*
X153851235Y-85097572D01*
X153842970Y-85120671D01*
X153832480Y-85142850D01*
X153819868Y-85163893D01*
X153805253Y-85183599D01*
X153788777Y-85201777D01*
X153770599Y-85218253D01*
X153750893Y-85232868D01*
X153729850Y-85245480D01*
X153707671Y-85255970D01*
X153684572Y-85264235D01*
X153660773Y-85270196D01*
X153636505Y-85273796D01*
X153612001Y-85275000D01*
X152711999Y-85275000D01*
X152687495Y-85273796D01*
X152663227Y-85270196D01*
X152639428Y-85264235D01*
X152616329Y-85255970D01*
X152594150Y-85245480D01*
X152573107Y-85232868D01*
X152553401Y-85218253D01*
X152535223Y-85201777D01*
X152518747Y-85183599D01*
X152504132Y-85163893D01*
X152491520Y-85142850D01*
X152481030Y-85120671D01*
X152472765Y-85097572D01*
X152466804Y-85073773D01*
X152463204Y-85049505D01*
X152462000Y-85025001D01*
X152462000Y-84374999D01*
X152463204Y-84350495D01*
X152466804Y-84326227D01*
X152472765Y-84302428D01*
X152481030Y-84279329D01*
X152491520Y-84257150D01*
X152504132Y-84236107D01*
X152518747Y-84216401D01*
X152535223Y-84198223D01*
X152553401Y-84181747D01*
X152573107Y-84167132D01*
X152594150Y-84154520D01*
X152616329Y-84144030D01*
X152639428Y-84135765D01*
X152663227Y-84129804D01*
X152687495Y-84126204D01*
X152711999Y-84125000D01*
X153612001Y-84125000D01*
X153636505Y-84126204D01*
G37*
G36*
X153636505Y-86176204D02*
G01*
X153660773Y-86179804D01*
X153684572Y-86185765D01*
X153707671Y-86194030D01*
X153729850Y-86204520D01*
X153750893Y-86217132D01*
X153770599Y-86231747D01*
X153788777Y-86248223D01*
X153805253Y-86266401D01*
X153819868Y-86286107D01*
X153832480Y-86307150D01*
X153842970Y-86329329D01*
X153851235Y-86352428D01*
X153857196Y-86376227D01*
X153860796Y-86400495D01*
X153862000Y-86424999D01*
X153862000Y-87075001D01*
X153860796Y-87099505D01*
X153857196Y-87123773D01*
X153851235Y-87147572D01*
X153842970Y-87170671D01*
X153832480Y-87192850D01*
X153819868Y-87213893D01*
X153805253Y-87233599D01*
X153788777Y-87251777D01*
X153770599Y-87268253D01*
X153750893Y-87282868D01*
X153729850Y-87295480D01*
X153707671Y-87305970D01*
X153684572Y-87314235D01*
X153660773Y-87320196D01*
X153636505Y-87323796D01*
X153612001Y-87325000D01*
X152711999Y-87325000D01*
X152687495Y-87323796D01*
X152663227Y-87320196D01*
X152639428Y-87314235D01*
X152616329Y-87305970D01*
X152594150Y-87295480D01*
X152573107Y-87282868D01*
X152553401Y-87268253D01*
X152535223Y-87251777D01*
X152518747Y-87233599D01*
X152504132Y-87213893D01*
X152491520Y-87192850D01*
X152481030Y-87170671D01*
X152472765Y-87147572D01*
X152466804Y-87123773D01*
X152463204Y-87099505D01*
X152462000Y-87075001D01*
X152462000Y-86424999D01*
X152463204Y-86400495D01*
X152466804Y-86376227D01*
X152472765Y-86352428D01*
X152481030Y-86329329D01*
X152491520Y-86307150D01*
X152504132Y-86286107D01*
X152518747Y-86266401D01*
X152535223Y-86248223D01*
X152553401Y-86231747D01*
X152573107Y-86217132D01*
X152594150Y-86204520D01*
X152616329Y-86194030D01*
X152639428Y-86185765D01*
X152663227Y-86179804D01*
X152687495Y-86176204D01*
X152711999Y-86175000D01*
X153612001Y-86175000D01*
X153636505Y-86176204D01*
G37*
%TD*%
%TO.C,R4*%
G36*
X140428505Y-86294204D02*
G01*
X140452773Y-86297804D01*
X140476572Y-86303765D01*
X140499671Y-86312030D01*
X140521850Y-86322520D01*
X140542893Y-86335132D01*
X140562599Y-86349747D01*
X140580777Y-86366223D01*
X140597253Y-86384401D01*
X140611868Y-86404107D01*
X140624480Y-86425150D01*
X140634970Y-86447329D01*
X140643235Y-86470428D01*
X140649196Y-86494227D01*
X140652796Y-86518495D01*
X140654000Y-86542999D01*
X140654000Y-87193001D01*
X140652796Y-87217505D01*
X140649196Y-87241773D01*
X140643235Y-87265572D01*
X140634970Y-87288671D01*
X140624480Y-87310850D01*
X140611868Y-87331893D01*
X140597253Y-87351599D01*
X140580777Y-87369777D01*
X140562599Y-87386253D01*
X140542893Y-87400868D01*
X140521850Y-87413480D01*
X140499671Y-87423970D01*
X140476572Y-87432235D01*
X140452773Y-87438196D01*
X140428505Y-87441796D01*
X140404001Y-87443000D01*
X139503999Y-87443000D01*
X139479495Y-87441796D01*
X139455227Y-87438196D01*
X139431428Y-87432235D01*
X139408329Y-87423970D01*
X139386150Y-87413480D01*
X139365107Y-87400868D01*
X139345401Y-87386253D01*
X139327223Y-87369777D01*
X139310747Y-87351599D01*
X139296132Y-87331893D01*
X139283520Y-87310850D01*
X139273030Y-87288671D01*
X139264765Y-87265572D01*
X139258804Y-87241773D01*
X139255204Y-87217505D01*
X139254000Y-87193001D01*
X139254000Y-86542999D01*
X139255204Y-86518495D01*
X139258804Y-86494227D01*
X139264765Y-86470428D01*
X139273030Y-86447329D01*
X139283520Y-86425150D01*
X139296132Y-86404107D01*
X139310747Y-86384401D01*
X139327223Y-86366223D01*
X139345401Y-86349747D01*
X139365107Y-86335132D01*
X139386150Y-86322520D01*
X139408329Y-86312030D01*
X139431428Y-86303765D01*
X139455227Y-86297804D01*
X139479495Y-86294204D01*
X139503999Y-86293000D01*
X140404001Y-86293000D01*
X140428505Y-86294204D01*
G37*
G36*
X140428505Y-84244204D02*
G01*
X140452773Y-84247804D01*
X140476572Y-84253765D01*
X140499671Y-84262030D01*
X140521850Y-84272520D01*
X140542893Y-84285132D01*
X140562599Y-84299747D01*
X140580777Y-84316223D01*
X140597253Y-84334401D01*
X140611868Y-84354107D01*
X140624480Y-84375150D01*
X140634970Y-84397329D01*
X140643235Y-84420428D01*
X140649196Y-84444227D01*
X140652796Y-84468495D01*
X140654000Y-84492999D01*
X140654000Y-85143001D01*
X140652796Y-85167505D01*
X140649196Y-85191773D01*
X140643235Y-85215572D01*
X140634970Y-85238671D01*
X140624480Y-85260850D01*
X140611868Y-85281893D01*
X140597253Y-85301599D01*
X140580777Y-85319777D01*
X140562599Y-85336253D01*
X140542893Y-85350868D01*
X140521850Y-85363480D01*
X140499671Y-85373970D01*
X140476572Y-85382235D01*
X140452773Y-85388196D01*
X140428505Y-85391796D01*
X140404001Y-85393000D01*
X139503999Y-85393000D01*
X139479495Y-85391796D01*
X139455227Y-85388196D01*
X139431428Y-85382235D01*
X139408329Y-85373970D01*
X139386150Y-85363480D01*
X139365107Y-85350868D01*
X139345401Y-85336253D01*
X139327223Y-85319777D01*
X139310747Y-85301599D01*
X139296132Y-85281893D01*
X139283520Y-85260850D01*
X139273030Y-85238671D01*
X139264765Y-85215572D01*
X139258804Y-85191773D01*
X139255204Y-85167505D01*
X139254000Y-85143001D01*
X139254000Y-84492999D01*
X139255204Y-84468495D01*
X139258804Y-84444227D01*
X139264765Y-84420428D01*
X139273030Y-84397329D01*
X139283520Y-84375150D01*
X139296132Y-84354107D01*
X139310747Y-84334401D01*
X139327223Y-84316223D01*
X139345401Y-84299747D01*
X139365107Y-84285132D01*
X139386150Y-84272520D01*
X139408329Y-84262030D01*
X139431428Y-84253765D01*
X139455227Y-84247804D01*
X139479495Y-84244204D01*
X139503999Y-84243000D01*
X140404001Y-84243000D01*
X140428505Y-84244204D01*
G37*
%TD*%
%TO.C,R3*%
G36*
X160621505Y-86167204D02*
G01*
X160645773Y-86170804D01*
X160669572Y-86176765D01*
X160692671Y-86185030D01*
X160714850Y-86195520D01*
X160735893Y-86208132D01*
X160755599Y-86222747D01*
X160773777Y-86239223D01*
X160790253Y-86257401D01*
X160804868Y-86277107D01*
X160817480Y-86298150D01*
X160827970Y-86320329D01*
X160836235Y-86343428D01*
X160842196Y-86367227D01*
X160845796Y-86391495D01*
X160847000Y-86415999D01*
X160847000Y-87066001D01*
X160845796Y-87090505D01*
X160842196Y-87114773D01*
X160836235Y-87138572D01*
X160827970Y-87161671D01*
X160817480Y-87183850D01*
X160804868Y-87204893D01*
X160790253Y-87224599D01*
X160773777Y-87242777D01*
X160755599Y-87259253D01*
X160735893Y-87273868D01*
X160714850Y-87286480D01*
X160692671Y-87296970D01*
X160669572Y-87305235D01*
X160645773Y-87311196D01*
X160621505Y-87314796D01*
X160597001Y-87316000D01*
X159696999Y-87316000D01*
X159672495Y-87314796D01*
X159648227Y-87311196D01*
X159624428Y-87305235D01*
X159601329Y-87296970D01*
X159579150Y-87286480D01*
X159558107Y-87273868D01*
X159538401Y-87259253D01*
X159520223Y-87242777D01*
X159503747Y-87224599D01*
X159489132Y-87204893D01*
X159476520Y-87183850D01*
X159466030Y-87161671D01*
X159457765Y-87138572D01*
X159451804Y-87114773D01*
X159448204Y-87090505D01*
X159447000Y-87066001D01*
X159447000Y-86415999D01*
X159448204Y-86391495D01*
X159451804Y-86367227D01*
X159457765Y-86343428D01*
X159466030Y-86320329D01*
X159476520Y-86298150D01*
X159489132Y-86277107D01*
X159503747Y-86257401D01*
X159520223Y-86239223D01*
X159538401Y-86222747D01*
X159558107Y-86208132D01*
X159579150Y-86195520D01*
X159601329Y-86185030D01*
X159624428Y-86176765D01*
X159648227Y-86170804D01*
X159672495Y-86167204D01*
X159696999Y-86166000D01*
X160597001Y-86166000D01*
X160621505Y-86167204D01*
G37*
G36*
X160621505Y-84117204D02*
G01*
X160645773Y-84120804D01*
X160669572Y-84126765D01*
X160692671Y-84135030D01*
X160714850Y-84145520D01*
X160735893Y-84158132D01*
X160755599Y-84172747D01*
X160773777Y-84189223D01*
X160790253Y-84207401D01*
X160804868Y-84227107D01*
X160817480Y-84248150D01*
X160827970Y-84270329D01*
X160836235Y-84293428D01*
X160842196Y-84317227D01*
X160845796Y-84341495D01*
X160847000Y-84365999D01*
X160847000Y-85016001D01*
X160845796Y-85040505D01*
X160842196Y-85064773D01*
X160836235Y-85088572D01*
X160827970Y-85111671D01*
X160817480Y-85133850D01*
X160804868Y-85154893D01*
X160790253Y-85174599D01*
X160773777Y-85192777D01*
X160755599Y-85209253D01*
X160735893Y-85223868D01*
X160714850Y-85236480D01*
X160692671Y-85246970D01*
X160669572Y-85255235D01*
X160645773Y-85261196D01*
X160621505Y-85264796D01*
X160597001Y-85266000D01*
X159696999Y-85266000D01*
X159672495Y-85264796D01*
X159648227Y-85261196D01*
X159624428Y-85255235D01*
X159601329Y-85246970D01*
X159579150Y-85236480D01*
X159558107Y-85223868D01*
X159538401Y-85209253D01*
X159520223Y-85192777D01*
X159503747Y-85174599D01*
X159489132Y-85154893D01*
X159476520Y-85133850D01*
X159466030Y-85111671D01*
X159457765Y-85088572D01*
X159451804Y-85064773D01*
X159448204Y-85040505D01*
X159447000Y-85016001D01*
X159447000Y-84365999D01*
X159448204Y-84341495D01*
X159451804Y-84317227D01*
X159457765Y-84293428D01*
X159466030Y-84270329D01*
X159476520Y-84248150D01*
X159489132Y-84227107D01*
X159503747Y-84207401D01*
X159520223Y-84189223D01*
X159538401Y-84172747D01*
X159558107Y-84158132D01*
X159579150Y-84145520D01*
X159601329Y-84135030D01*
X159624428Y-84126765D01*
X159648227Y-84120804D01*
X159672495Y-84117204D01*
X159696999Y-84116000D01*
X160597001Y-84116000D01*
X160621505Y-84117204D01*
G37*
%TD*%
D26*
%TO.C,Q3*%
X146050000Y-86786000D03*
X145100000Y-84786000D03*
X147000000Y-84786000D03*
%TD*%
%TO.C,Q2*%
X136652000Y-86868000D03*
X135702000Y-84868000D03*
X137602000Y-84868000D03*
%TD*%
%TO.C,Q1*%
X156718000Y-86725000D03*
X155768000Y-84725000D03*
X157668000Y-84725000D03*
%TD*%
D27*
%TO.C,D2*%
X142240000Y-55523000D03*
X143190000Y-58523000D03*
X141290000Y-58523000D03*
%TD*%
%TO.C,D1*%
X153096000Y-55547000D03*
X154046000Y-58547000D03*
X152146000Y-58547000D03*
%TD*%
D10*
%TO.C,J4*%
X170180000Y-84328000D03*
X170180000Y-81788000D03*
X170180000Y-79248000D03*
D11*
X170180000Y-76708000D03*
%TD*%
D28*
%TO.C,J1*%
X102870000Y-114404000D03*
D29*
X102870000Y-120404000D03*
D30*
X107570000Y-117404000D03*
%TD*%
D13*
%TO.C,L2*%
G36*
X141952505Y-49337204D02*
G01*
X141976773Y-49340804D01*
X142000572Y-49346765D01*
X142023671Y-49355030D01*
X142045850Y-49365520D01*
X142066893Y-49378132D01*
X142086599Y-49392747D01*
X142104777Y-49409223D01*
X142121253Y-49427401D01*
X142135868Y-49447107D01*
X142148480Y-49468150D01*
X142158970Y-49490329D01*
X142167235Y-49513428D01*
X142173196Y-49537227D01*
X142176796Y-49561495D01*
X142178000Y-49585999D01*
X142178000Y-50236001D01*
X142176796Y-50260505D01*
X142173196Y-50284773D01*
X142167235Y-50308572D01*
X142158970Y-50331671D01*
X142148480Y-50353850D01*
X142135868Y-50374893D01*
X142121253Y-50394599D01*
X142104777Y-50412777D01*
X142086599Y-50429253D01*
X142066893Y-50443868D01*
X142045850Y-50456480D01*
X142023671Y-50466970D01*
X142000572Y-50475235D01*
X141976773Y-50481196D01*
X141952505Y-50484796D01*
X141928001Y-50486000D01*
X141027999Y-50486000D01*
X141003495Y-50484796D01*
X140979227Y-50481196D01*
X140955428Y-50475235D01*
X140932329Y-50466970D01*
X140910150Y-50456480D01*
X140889107Y-50443868D01*
X140869401Y-50429253D01*
X140851223Y-50412777D01*
X140834747Y-50394599D01*
X140820132Y-50374893D01*
X140807520Y-50353850D01*
X140797030Y-50331671D01*
X140788765Y-50308572D01*
X140782804Y-50284773D01*
X140779204Y-50260505D01*
X140778000Y-50236001D01*
X140778000Y-49585999D01*
X140779204Y-49561495D01*
X140782804Y-49537227D01*
X140788765Y-49513428D01*
X140797030Y-49490329D01*
X140807520Y-49468150D01*
X140820132Y-49447107D01*
X140834747Y-49427401D01*
X140851223Y-49409223D01*
X140869401Y-49392747D01*
X140889107Y-49378132D01*
X140910150Y-49365520D01*
X140932329Y-49355030D01*
X140955428Y-49346765D01*
X140979227Y-49340804D01*
X141003495Y-49337204D01*
X141027999Y-49336000D01*
X141928001Y-49336000D01*
X141952505Y-49337204D01*
G37*
G36*
X141952505Y-51387204D02*
G01*
X141976773Y-51390804D01*
X142000572Y-51396765D01*
X142023671Y-51405030D01*
X142045850Y-51415520D01*
X142066893Y-51428132D01*
X142086599Y-51442747D01*
X142104777Y-51459223D01*
X142121253Y-51477401D01*
X142135868Y-51497107D01*
X142148480Y-51518150D01*
X142158970Y-51540329D01*
X142167235Y-51563428D01*
X142173196Y-51587227D01*
X142176796Y-51611495D01*
X142178000Y-51635999D01*
X142178000Y-52286001D01*
X142176796Y-52310505D01*
X142173196Y-52334773D01*
X142167235Y-52358572D01*
X142158970Y-52381671D01*
X142148480Y-52403850D01*
X142135868Y-52424893D01*
X142121253Y-52444599D01*
X142104777Y-52462777D01*
X142086599Y-52479253D01*
X142066893Y-52493868D01*
X142045850Y-52506480D01*
X142023671Y-52516970D01*
X142000572Y-52525235D01*
X141976773Y-52531196D01*
X141952505Y-52534796D01*
X141928001Y-52536000D01*
X141027999Y-52536000D01*
X141003495Y-52534796D01*
X140979227Y-52531196D01*
X140955428Y-52525235D01*
X140932329Y-52516970D01*
X140910150Y-52506480D01*
X140889107Y-52493868D01*
X140869401Y-52479253D01*
X140851223Y-52462777D01*
X140834747Y-52444599D01*
X140820132Y-52424893D01*
X140807520Y-52403850D01*
X140797030Y-52381671D01*
X140788765Y-52358572D01*
X140782804Y-52334773D01*
X140779204Y-52310505D01*
X140778000Y-52286001D01*
X140778000Y-51635999D01*
X140779204Y-51611495D01*
X140782804Y-51587227D01*
X140788765Y-51563428D01*
X140797030Y-51540329D01*
X140807520Y-51518150D01*
X140820132Y-51497107D01*
X140834747Y-51477401D01*
X140851223Y-51459223D01*
X140869401Y-51442747D01*
X140889107Y-51428132D01*
X140910150Y-51415520D01*
X140932329Y-51405030D01*
X140955428Y-51396765D01*
X140979227Y-51390804D01*
X141003495Y-51387204D01*
X141027999Y-51386000D01*
X141928001Y-51386000D01*
X141952505Y-51387204D01*
G37*
%TD*%
%TO.C,C4*%
G36*
X157885004Y-62522204D02*
G01*
X157909273Y-62525804D01*
X157933071Y-62531765D01*
X157956171Y-62540030D01*
X157978349Y-62550520D01*
X157999393Y-62563133D01*
X158019098Y-62577747D01*
X158037277Y-62594223D01*
X158053753Y-62612402D01*
X158068367Y-62632107D01*
X158080980Y-62653151D01*
X158091470Y-62675329D01*
X158099735Y-62698429D01*
X158105696Y-62722227D01*
X158109296Y-62746496D01*
X158110500Y-62771000D01*
X158110500Y-63721000D01*
X158109296Y-63745504D01*
X158105696Y-63769773D01*
X158099735Y-63793571D01*
X158091470Y-63816671D01*
X158080980Y-63838849D01*
X158068367Y-63859893D01*
X158053753Y-63879598D01*
X158037277Y-63897777D01*
X158019098Y-63914253D01*
X157999393Y-63928867D01*
X157978349Y-63941480D01*
X157956171Y-63951970D01*
X157933071Y-63960235D01*
X157909273Y-63966196D01*
X157885004Y-63969796D01*
X157860500Y-63971000D01*
X157185500Y-63971000D01*
X157160996Y-63969796D01*
X157136727Y-63966196D01*
X157112929Y-63960235D01*
X157089829Y-63951970D01*
X157067651Y-63941480D01*
X157046607Y-63928867D01*
X157026902Y-63914253D01*
X157008723Y-63897777D01*
X156992247Y-63879598D01*
X156977633Y-63859893D01*
X156965020Y-63838849D01*
X156954530Y-63816671D01*
X156946265Y-63793571D01*
X156940304Y-63769773D01*
X156936704Y-63745504D01*
X156935500Y-63721000D01*
X156935500Y-62771000D01*
X156936704Y-62746496D01*
X156940304Y-62722227D01*
X156946265Y-62698429D01*
X156954530Y-62675329D01*
X156965020Y-62653151D01*
X156977633Y-62632107D01*
X156992247Y-62612402D01*
X157008723Y-62594223D01*
X157026902Y-62577747D01*
X157046607Y-62563133D01*
X157067651Y-62550520D01*
X157089829Y-62540030D01*
X157112929Y-62531765D01*
X157136727Y-62525804D01*
X157160996Y-62522204D01*
X157185500Y-62521000D01*
X157860500Y-62521000D01*
X157885004Y-62522204D01*
G37*
G36*
X155810004Y-62522204D02*
G01*
X155834273Y-62525804D01*
X155858071Y-62531765D01*
X155881171Y-62540030D01*
X155903349Y-62550520D01*
X155924393Y-62563133D01*
X155944098Y-62577747D01*
X155962277Y-62594223D01*
X155978753Y-62612402D01*
X155993367Y-62632107D01*
X156005980Y-62653151D01*
X156016470Y-62675329D01*
X156024735Y-62698429D01*
X156030696Y-62722227D01*
X156034296Y-62746496D01*
X156035500Y-62771000D01*
X156035500Y-63721000D01*
X156034296Y-63745504D01*
X156030696Y-63769773D01*
X156024735Y-63793571D01*
X156016470Y-63816671D01*
X156005980Y-63838849D01*
X155993367Y-63859893D01*
X155978753Y-63879598D01*
X155962277Y-63897777D01*
X155944098Y-63914253D01*
X155924393Y-63928867D01*
X155903349Y-63941480D01*
X155881171Y-63951970D01*
X155858071Y-63960235D01*
X155834273Y-63966196D01*
X155810004Y-63969796D01*
X155785500Y-63971000D01*
X155110500Y-63971000D01*
X155085996Y-63969796D01*
X155061727Y-63966196D01*
X155037929Y-63960235D01*
X155014829Y-63951970D01*
X154992651Y-63941480D01*
X154971607Y-63928867D01*
X154951902Y-63914253D01*
X154933723Y-63897777D01*
X154917247Y-63879598D01*
X154902633Y-63859893D01*
X154890020Y-63838849D01*
X154879530Y-63816671D01*
X154871265Y-63793571D01*
X154865304Y-63769773D01*
X154861704Y-63745504D01*
X154860500Y-63721000D01*
X154860500Y-62771000D01*
X154861704Y-62746496D01*
X154865304Y-62722227D01*
X154871265Y-62698429D01*
X154879530Y-62675329D01*
X154890020Y-62653151D01*
X154902633Y-62632107D01*
X154917247Y-62612402D01*
X154933723Y-62594223D01*
X154951902Y-62577747D01*
X154971607Y-62563133D01*
X154992651Y-62550520D01*
X155014829Y-62540030D01*
X155037929Y-62531765D01*
X155061727Y-62525804D01*
X155085996Y-62522204D01*
X155110500Y-62521000D01*
X155785500Y-62521000D01*
X155810004Y-62522204D01*
G37*
%TD*%
D25*
%TO.C,TP3*%
X141986000Y-78867000D03*
%TD*%
D13*
%TO.C,C9*%
G36*
X150105504Y-57495704D02*
G01*
X150129773Y-57499304D01*
X150153571Y-57505265D01*
X150176671Y-57513530D01*
X150198849Y-57524020D01*
X150219893Y-57536633D01*
X150239598Y-57551247D01*
X150257777Y-57567723D01*
X150274253Y-57585902D01*
X150288867Y-57605607D01*
X150301480Y-57626651D01*
X150311970Y-57648829D01*
X150320235Y-57671929D01*
X150326196Y-57695727D01*
X150329796Y-57719996D01*
X150331000Y-57744500D01*
X150331000Y-58419500D01*
X150329796Y-58444004D01*
X150326196Y-58468273D01*
X150320235Y-58492071D01*
X150311970Y-58515171D01*
X150301480Y-58537349D01*
X150288867Y-58558393D01*
X150274253Y-58578098D01*
X150257777Y-58596277D01*
X150239598Y-58612753D01*
X150219893Y-58627367D01*
X150198849Y-58639980D01*
X150176671Y-58650470D01*
X150153571Y-58658735D01*
X150129773Y-58664696D01*
X150105504Y-58668296D01*
X150081000Y-58669500D01*
X149131000Y-58669500D01*
X149106496Y-58668296D01*
X149082227Y-58664696D01*
X149058429Y-58658735D01*
X149035329Y-58650470D01*
X149013151Y-58639980D01*
X148992107Y-58627367D01*
X148972402Y-58612753D01*
X148954223Y-58596277D01*
X148937747Y-58578098D01*
X148923133Y-58558393D01*
X148910520Y-58537349D01*
X148900030Y-58515171D01*
X148891765Y-58492071D01*
X148885804Y-58468273D01*
X148882204Y-58444004D01*
X148881000Y-58419500D01*
X148881000Y-57744500D01*
X148882204Y-57719996D01*
X148885804Y-57695727D01*
X148891765Y-57671929D01*
X148900030Y-57648829D01*
X148910520Y-57626651D01*
X148923133Y-57605607D01*
X148937747Y-57585902D01*
X148954223Y-57567723D01*
X148972402Y-57551247D01*
X148992107Y-57536633D01*
X149013151Y-57524020D01*
X149035329Y-57513530D01*
X149058429Y-57505265D01*
X149082227Y-57499304D01*
X149106496Y-57495704D01*
X149131000Y-57494500D01*
X150081000Y-57494500D01*
X150105504Y-57495704D01*
G37*
G36*
X150105504Y-55420704D02*
G01*
X150129773Y-55424304D01*
X150153571Y-55430265D01*
X150176671Y-55438530D01*
X150198849Y-55449020D01*
X150219893Y-55461633D01*
X150239598Y-55476247D01*
X150257777Y-55492723D01*
X150274253Y-55510902D01*
X150288867Y-55530607D01*
X150301480Y-55551651D01*
X150311970Y-55573829D01*
X150320235Y-55596929D01*
X150326196Y-55620727D01*
X150329796Y-55644996D01*
X150331000Y-55669500D01*
X150331000Y-56344500D01*
X150329796Y-56369004D01*
X150326196Y-56393273D01*
X150320235Y-56417071D01*
X150311970Y-56440171D01*
X150301480Y-56462349D01*
X150288867Y-56483393D01*
X150274253Y-56503098D01*
X150257777Y-56521277D01*
X150239598Y-56537753D01*
X150219893Y-56552367D01*
X150198849Y-56564980D01*
X150176671Y-56575470D01*
X150153571Y-56583735D01*
X150129773Y-56589696D01*
X150105504Y-56593296D01*
X150081000Y-56594500D01*
X149131000Y-56594500D01*
X149106496Y-56593296D01*
X149082227Y-56589696D01*
X149058429Y-56583735D01*
X149035329Y-56575470D01*
X149013151Y-56564980D01*
X148992107Y-56552367D01*
X148972402Y-56537753D01*
X148954223Y-56521277D01*
X148937747Y-56503098D01*
X148923133Y-56483393D01*
X148910520Y-56462349D01*
X148900030Y-56440171D01*
X148891765Y-56417071D01*
X148885804Y-56393273D01*
X148882204Y-56369004D01*
X148881000Y-56344500D01*
X148881000Y-55669500D01*
X148882204Y-55644996D01*
X148885804Y-55620727D01*
X148891765Y-55596929D01*
X148900030Y-55573829D01*
X148910520Y-55551651D01*
X148923133Y-55530607D01*
X148937747Y-55510902D01*
X148954223Y-55492723D01*
X148972402Y-55476247D01*
X148992107Y-55461633D01*
X149013151Y-55449020D01*
X149035329Y-55438530D01*
X149058429Y-55430265D01*
X149082227Y-55424304D01*
X149106496Y-55420704D01*
X149131000Y-55419500D01*
X150081000Y-55419500D01*
X150105504Y-55420704D01*
G37*
%TD*%
%TO.C,C8*%
G36*
X138559504Y-52213704D02*
G01*
X138583773Y-52217304D01*
X138607571Y-52223265D01*
X138630671Y-52231530D01*
X138652849Y-52242020D01*
X138673893Y-52254633D01*
X138693598Y-52269247D01*
X138711777Y-52285723D01*
X138728253Y-52303902D01*
X138742867Y-52323607D01*
X138755480Y-52344651D01*
X138765970Y-52366829D01*
X138774235Y-52389929D01*
X138780196Y-52413727D01*
X138783796Y-52437996D01*
X138785000Y-52462500D01*
X138785000Y-53412500D01*
X138783796Y-53437004D01*
X138780196Y-53461273D01*
X138774235Y-53485071D01*
X138765970Y-53508171D01*
X138755480Y-53530349D01*
X138742867Y-53551393D01*
X138728253Y-53571098D01*
X138711777Y-53589277D01*
X138693598Y-53605753D01*
X138673893Y-53620367D01*
X138652849Y-53632980D01*
X138630671Y-53643470D01*
X138607571Y-53651735D01*
X138583773Y-53657696D01*
X138559504Y-53661296D01*
X138535000Y-53662500D01*
X137860000Y-53662500D01*
X137835496Y-53661296D01*
X137811227Y-53657696D01*
X137787429Y-53651735D01*
X137764329Y-53643470D01*
X137742151Y-53632980D01*
X137721107Y-53620367D01*
X137701402Y-53605753D01*
X137683223Y-53589277D01*
X137666747Y-53571098D01*
X137652133Y-53551393D01*
X137639520Y-53530349D01*
X137629030Y-53508171D01*
X137620765Y-53485071D01*
X137614804Y-53461273D01*
X137611204Y-53437004D01*
X137610000Y-53412500D01*
X137610000Y-52462500D01*
X137611204Y-52437996D01*
X137614804Y-52413727D01*
X137620765Y-52389929D01*
X137629030Y-52366829D01*
X137639520Y-52344651D01*
X137652133Y-52323607D01*
X137666747Y-52303902D01*
X137683223Y-52285723D01*
X137701402Y-52269247D01*
X137721107Y-52254633D01*
X137742151Y-52242020D01*
X137764329Y-52231530D01*
X137787429Y-52223265D01*
X137811227Y-52217304D01*
X137835496Y-52213704D01*
X137860000Y-52212500D01*
X138535000Y-52212500D01*
X138559504Y-52213704D01*
G37*
G36*
X136484504Y-52213704D02*
G01*
X136508773Y-52217304D01*
X136532571Y-52223265D01*
X136555671Y-52231530D01*
X136577849Y-52242020D01*
X136598893Y-52254633D01*
X136618598Y-52269247D01*
X136636777Y-52285723D01*
X136653253Y-52303902D01*
X136667867Y-52323607D01*
X136680480Y-52344651D01*
X136690970Y-52366829D01*
X136699235Y-52389929D01*
X136705196Y-52413727D01*
X136708796Y-52437996D01*
X136710000Y-52462500D01*
X136710000Y-53412500D01*
X136708796Y-53437004D01*
X136705196Y-53461273D01*
X136699235Y-53485071D01*
X136690970Y-53508171D01*
X136680480Y-53530349D01*
X136667867Y-53551393D01*
X136653253Y-53571098D01*
X136636777Y-53589277D01*
X136618598Y-53605753D01*
X136598893Y-53620367D01*
X136577849Y-53632980D01*
X136555671Y-53643470D01*
X136532571Y-53651735D01*
X136508773Y-53657696D01*
X136484504Y-53661296D01*
X136460000Y-53662500D01*
X135785000Y-53662500D01*
X135760496Y-53661296D01*
X135736227Y-53657696D01*
X135712429Y-53651735D01*
X135689329Y-53643470D01*
X135667151Y-53632980D01*
X135646107Y-53620367D01*
X135626402Y-53605753D01*
X135608223Y-53589277D01*
X135591747Y-53571098D01*
X135577133Y-53551393D01*
X135564520Y-53530349D01*
X135554030Y-53508171D01*
X135545765Y-53485071D01*
X135539804Y-53461273D01*
X135536204Y-53437004D01*
X135535000Y-53412500D01*
X135535000Y-52462500D01*
X135536204Y-52437996D01*
X135539804Y-52413727D01*
X135545765Y-52389929D01*
X135554030Y-52366829D01*
X135564520Y-52344651D01*
X135577133Y-52323607D01*
X135591747Y-52303902D01*
X135608223Y-52285723D01*
X135626402Y-52269247D01*
X135646107Y-52254633D01*
X135667151Y-52242020D01*
X135689329Y-52231530D01*
X135712429Y-52223265D01*
X135736227Y-52217304D01*
X135760496Y-52213704D01*
X135785000Y-52212500D01*
X136460000Y-52212500D01*
X136484504Y-52213704D01*
G37*
%TD*%
%TO.C,C2*%
G36*
X137659504Y-76502704D02*
G01*
X137683773Y-76506304D01*
X137707571Y-76512265D01*
X137730671Y-76520530D01*
X137752849Y-76531020D01*
X137773893Y-76543633D01*
X137793598Y-76558247D01*
X137811777Y-76574723D01*
X137828253Y-76592902D01*
X137842867Y-76612607D01*
X137855480Y-76633651D01*
X137865970Y-76655829D01*
X137874235Y-76678929D01*
X137880196Y-76702727D01*
X137883796Y-76726996D01*
X137885000Y-76751500D01*
X137885000Y-77426500D01*
X137883796Y-77451004D01*
X137880196Y-77475273D01*
X137874235Y-77499071D01*
X137865970Y-77522171D01*
X137855480Y-77544349D01*
X137842867Y-77565393D01*
X137828253Y-77585098D01*
X137811777Y-77603277D01*
X137793598Y-77619753D01*
X137773893Y-77634367D01*
X137752849Y-77646980D01*
X137730671Y-77657470D01*
X137707571Y-77665735D01*
X137683773Y-77671696D01*
X137659504Y-77675296D01*
X137635000Y-77676500D01*
X136685000Y-77676500D01*
X136660496Y-77675296D01*
X136636227Y-77671696D01*
X136612429Y-77665735D01*
X136589329Y-77657470D01*
X136567151Y-77646980D01*
X136546107Y-77634367D01*
X136526402Y-77619753D01*
X136508223Y-77603277D01*
X136491747Y-77585098D01*
X136477133Y-77565393D01*
X136464520Y-77544349D01*
X136454030Y-77522171D01*
X136445765Y-77499071D01*
X136439804Y-77475273D01*
X136436204Y-77451004D01*
X136435000Y-77426500D01*
X136435000Y-76751500D01*
X136436204Y-76726996D01*
X136439804Y-76702727D01*
X136445765Y-76678929D01*
X136454030Y-76655829D01*
X136464520Y-76633651D01*
X136477133Y-76612607D01*
X136491747Y-76592902D01*
X136508223Y-76574723D01*
X136526402Y-76558247D01*
X136546107Y-76543633D01*
X136567151Y-76531020D01*
X136589329Y-76520530D01*
X136612429Y-76512265D01*
X136636227Y-76506304D01*
X136660496Y-76502704D01*
X136685000Y-76501500D01*
X137635000Y-76501500D01*
X137659504Y-76502704D01*
G37*
G36*
X137659504Y-78577704D02*
G01*
X137683773Y-78581304D01*
X137707571Y-78587265D01*
X137730671Y-78595530D01*
X137752849Y-78606020D01*
X137773893Y-78618633D01*
X137793598Y-78633247D01*
X137811777Y-78649723D01*
X137828253Y-78667902D01*
X137842867Y-78687607D01*
X137855480Y-78708651D01*
X137865970Y-78730829D01*
X137874235Y-78753929D01*
X137880196Y-78777727D01*
X137883796Y-78801996D01*
X137885000Y-78826500D01*
X137885000Y-79501500D01*
X137883796Y-79526004D01*
X137880196Y-79550273D01*
X137874235Y-79574071D01*
X137865970Y-79597171D01*
X137855480Y-79619349D01*
X137842867Y-79640393D01*
X137828253Y-79660098D01*
X137811777Y-79678277D01*
X137793598Y-79694753D01*
X137773893Y-79709367D01*
X137752849Y-79721980D01*
X137730671Y-79732470D01*
X137707571Y-79740735D01*
X137683773Y-79746696D01*
X137659504Y-79750296D01*
X137635000Y-79751500D01*
X136685000Y-79751500D01*
X136660496Y-79750296D01*
X136636227Y-79746696D01*
X136612429Y-79740735D01*
X136589329Y-79732470D01*
X136567151Y-79721980D01*
X136546107Y-79709367D01*
X136526402Y-79694753D01*
X136508223Y-79678277D01*
X136491747Y-79660098D01*
X136477133Y-79640393D01*
X136464520Y-79619349D01*
X136454030Y-79597171D01*
X136445765Y-79574071D01*
X136439804Y-79550273D01*
X136436204Y-79526004D01*
X136435000Y-79501500D01*
X136435000Y-78826500D01*
X136436204Y-78801996D01*
X136439804Y-78777727D01*
X136445765Y-78753929D01*
X136454030Y-78730829D01*
X136464520Y-78708651D01*
X136477133Y-78687607D01*
X136491747Y-78667902D01*
X136508223Y-78649723D01*
X136526402Y-78633247D01*
X136546107Y-78618633D01*
X136567151Y-78606020D01*
X136589329Y-78595530D01*
X136612429Y-78587265D01*
X136636227Y-78581304D01*
X136660496Y-78577704D01*
X136685000Y-78576500D01*
X137635000Y-78576500D01*
X137659504Y-78577704D01*
G37*
%TD*%
D10*
%TO.C,J6*%
X141605000Y-45720000D03*
D11*
X141605000Y-43180000D03*
%TD*%
D25*
%TO.C,TP1*%
X153416000Y-78867000D03*
%TD*%
D10*
%TO.C,JP1*%
X136525000Y-43180000D03*
X136525000Y-45720000D03*
D11*
X136525000Y-48260000D03*
%TD*%
D13*
%TO.C,L1*%
G36*
X147540505Y-55424204D02*
G01*
X147564773Y-55427804D01*
X147588572Y-55433765D01*
X147611671Y-55442030D01*
X147633850Y-55452520D01*
X147654893Y-55465132D01*
X147674599Y-55479747D01*
X147692777Y-55496223D01*
X147709253Y-55514401D01*
X147723868Y-55534107D01*
X147736480Y-55555150D01*
X147746970Y-55577329D01*
X147755235Y-55600428D01*
X147761196Y-55624227D01*
X147764796Y-55648495D01*
X147766000Y-55672999D01*
X147766000Y-56323001D01*
X147764796Y-56347505D01*
X147761196Y-56371773D01*
X147755235Y-56395572D01*
X147746970Y-56418671D01*
X147736480Y-56440850D01*
X147723868Y-56461893D01*
X147709253Y-56481599D01*
X147692777Y-56499777D01*
X147674599Y-56516253D01*
X147654893Y-56530868D01*
X147633850Y-56543480D01*
X147611671Y-56553970D01*
X147588572Y-56562235D01*
X147564773Y-56568196D01*
X147540505Y-56571796D01*
X147516001Y-56573000D01*
X146615999Y-56573000D01*
X146591495Y-56571796D01*
X146567227Y-56568196D01*
X146543428Y-56562235D01*
X146520329Y-56553970D01*
X146498150Y-56543480D01*
X146477107Y-56530868D01*
X146457401Y-56516253D01*
X146439223Y-56499777D01*
X146422747Y-56481599D01*
X146408132Y-56461893D01*
X146395520Y-56440850D01*
X146385030Y-56418671D01*
X146376765Y-56395572D01*
X146370804Y-56371773D01*
X146367204Y-56347505D01*
X146366000Y-56323001D01*
X146366000Y-55672999D01*
X146367204Y-55648495D01*
X146370804Y-55624227D01*
X146376765Y-55600428D01*
X146385030Y-55577329D01*
X146395520Y-55555150D01*
X146408132Y-55534107D01*
X146422747Y-55514401D01*
X146439223Y-55496223D01*
X146457401Y-55479747D01*
X146477107Y-55465132D01*
X146498150Y-55452520D01*
X146520329Y-55442030D01*
X146543428Y-55433765D01*
X146567227Y-55427804D01*
X146591495Y-55424204D01*
X146615999Y-55423000D01*
X147516001Y-55423000D01*
X147540505Y-55424204D01*
G37*
G36*
X147540505Y-57474204D02*
G01*
X147564773Y-57477804D01*
X147588572Y-57483765D01*
X147611671Y-57492030D01*
X147633850Y-57502520D01*
X147654893Y-57515132D01*
X147674599Y-57529747D01*
X147692777Y-57546223D01*
X147709253Y-57564401D01*
X147723868Y-57584107D01*
X147736480Y-57605150D01*
X147746970Y-57627329D01*
X147755235Y-57650428D01*
X147761196Y-57674227D01*
X147764796Y-57698495D01*
X147766000Y-57722999D01*
X147766000Y-58373001D01*
X147764796Y-58397505D01*
X147761196Y-58421773D01*
X147755235Y-58445572D01*
X147746970Y-58468671D01*
X147736480Y-58490850D01*
X147723868Y-58511893D01*
X147709253Y-58531599D01*
X147692777Y-58549777D01*
X147674599Y-58566253D01*
X147654893Y-58580868D01*
X147633850Y-58593480D01*
X147611671Y-58603970D01*
X147588572Y-58612235D01*
X147564773Y-58618196D01*
X147540505Y-58621796D01*
X147516001Y-58623000D01*
X146615999Y-58623000D01*
X146591495Y-58621796D01*
X146567227Y-58618196D01*
X146543428Y-58612235D01*
X146520329Y-58603970D01*
X146498150Y-58593480D01*
X146477107Y-58580868D01*
X146457401Y-58566253D01*
X146439223Y-58549777D01*
X146422747Y-58531599D01*
X146408132Y-58511893D01*
X146395520Y-58490850D01*
X146385030Y-58468671D01*
X146376765Y-58445572D01*
X146370804Y-58421773D01*
X146367204Y-58397505D01*
X146366000Y-58373001D01*
X146366000Y-57722999D01*
X146367204Y-57698495D01*
X146370804Y-57674227D01*
X146376765Y-57650428D01*
X146385030Y-57627329D01*
X146395520Y-57605150D01*
X146408132Y-57584107D01*
X146422747Y-57564401D01*
X146439223Y-57546223D01*
X146457401Y-57529747D01*
X146477107Y-57515132D01*
X146498150Y-57502520D01*
X146520329Y-57492030D01*
X146543428Y-57483765D01*
X146567227Y-57477804D01*
X146591495Y-57474204D01*
X146615999Y-57473000D01*
X147516001Y-57473000D01*
X147540505Y-57474204D01*
G37*
%TD*%
%TO.C,U1*%
G36*
X165362117Y-113315202D02*
G01*
X165366194Y-113315807D01*
X165370192Y-113316809D01*
X165374073Y-113318197D01*
X165377799Y-113319959D01*
X165381334Y-113322078D01*
X165384645Y-113324534D01*
X165387698Y-113327302D01*
X165390466Y-113330355D01*
X165392922Y-113333666D01*
X165395041Y-113337201D01*
X165396803Y-113340927D01*
X165398191Y-113344808D01*
X165399193Y-113348806D01*
X165399798Y-113352883D01*
X165400000Y-113357000D01*
X165400000Y-115243000D01*
X165399798Y-115247117D01*
X165399193Y-115251194D01*
X165398191Y-115255192D01*
X165396803Y-115259073D01*
X165395041Y-115262799D01*
X165392922Y-115266334D01*
X165390466Y-115269645D01*
X165387698Y-115272698D01*
X165384645Y-115275466D01*
X165381334Y-115277922D01*
X165377799Y-115280041D01*
X165374073Y-115281803D01*
X165370192Y-115283191D01*
X165366194Y-115284193D01*
X165362117Y-115284798D01*
X165358000Y-115285000D01*
X164842000Y-115285000D01*
X164837883Y-115284798D01*
X164833806Y-115284193D01*
X164829808Y-115283191D01*
X164825927Y-115281803D01*
X164822201Y-115280041D01*
X164818666Y-115277922D01*
X164815355Y-115275466D01*
X164812302Y-115272698D01*
X164809534Y-115269645D01*
X164807078Y-115266334D01*
X164804959Y-115262799D01*
X164803197Y-115259073D01*
X164801809Y-115255192D01*
X164800807Y-115251194D01*
X164800202Y-115247117D01*
X164800000Y-115243000D01*
X164800000Y-113357000D01*
X164800202Y-113352883D01*
X164800807Y-113348806D01*
X164801809Y-113344808D01*
X164803197Y-113340927D01*
X164804959Y-113337201D01*
X164807078Y-113333666D01*
X164809534Y-113330355D01*
X164812302Y-113327302D01*
X164815355Y-113324534D01*
X164818666Y-113322078D01*
X164822201Y-113319959D01*
X164825927Y-113318197D01*
X164829808Y-113316809D01*
X164833806Y-113315807D01*
X164837883Y-113315202D01*
X164842000Y-113315000D01*
X165358000Y-113315000D01*
X165362117Y-113315202D01*
G37*
G36*
X164092117Y-113315202D02*
G01*
X164096194Y-113315807D01*
X164100192Y-113316809D01*
X164104073Y-113318197D01*
X164107799Y-113319959D01*
X164111334Y-113322078D01*
X164114645Y-113324534D01*
X164117698Y-113327302D01*
X164120466Y-113330355D01*
X164122922Y-113333666D01*
X164125041Y-113337201D01*
X164126803Y-113340927D01*
X164128191Y-113344808D01*
X164129193Y-113348806D01*
X164129798Y-113352883D01*
X164130000Y-113357000D01*
X164130000Y-115243000D01*
X164129798Y-115247117D01*
X164129193Y-115251194D01*
X164128191Y-115255192D01*
X164126803Y-115259073D01*
X164125041Y-115262799D01*
X164122922Y-115266334D01*
X164120466Y-115269645D01*
X164117698Y-115272698D01*
X164114645Y-115275466D01*
X164111334Y-115277922D01*
X164107799Y-115280041D01*
X164104073Y-115281803D01*
X164100192Y-115283191D01*
X164096194Y-115284193D01*
X164092117Y-115284798D01*
X164088000Y-115285000D01*
X163572000Y-115285000D01*
X163567883Y-115284798D01*
X163563806Y-115284193D01*
X163559808Y-115283191D01*
X163555927Y-115281803D01*
X163552201Y-115280041D01*
X163548666Y-115277922D01*
X163545355Y-115275466D01*
X163542302Y-115272698D01*
X163539534Y-115269645D01*
X163537078Y-115266334D01*
X163534959Y-115262799D01*
X163533197Y-115259073D01*
X163531809Y-115255192D01*
X163530807Y-115251194D01*
X163530202Y-115247117D01*
X163530000Y-115243000D01*
X163530000Y-113357000D01*
X163530202Y-113352883D01*
X163530807Y-113348806D01*
X163531809Y-113344808D01*
X163533197Y-113340927D01*
X163534959Y-113337201D01*
X163537078Y-113333666D01*
X163539534Y-113330355D01*
X163542302Y-113327302D01*
X163545355Y-113324534D01*
X163548666Y-113322078D01*
X163552201Y-113319959D01*
X163555927Y-113318197D01*
X163559808Y-113316809D01*
X163563806Y-113315807D01*
X163567883Y-113315202D01*
X163572000Y-113315000D01*
X164088000Y-113315000D01*
X164092117Y-113315202D01*
G37*
G36*
X162822117Y-113315202D02*
G01*
X162826194Y-113315807D01*
X162830192Y-113316809D01*
X162834073Y-113318197D01*
X162837799Y-113319959D01*
X162841334Y-113322078D01*
X162844645Y-113324534D01*
X162847698Y-113327302D01*
X162850466Y-113330355D01*
X162852922Y-113333666D01*
X162855041Y-113337201D01*
X162856803Y-113340927D01*
X162858191Y-113344808D01*
X162859193Y-113348806D01*
X162859798Y-113352883D01*
X162860000Y-113357000D01*
X162860000Y-115243000D01*
X162859798Y-115247117D01*
X162859193Y-115251194D01*
X162858191Y-115255192D01*
X162856803Y-115259073D01*
X162855041Y-115262799D01*
X162852922Y-115266334D01*
X162850466Y-115269645D01*
X162847698Y-115272698D01*
X162844645Y-115275466D01*
X162841334Y-115277922D01*
X162837799Y-115280041D01*
X162834073Y-115281803D01*
X162830192Y-115283191D01*
X162826194Y-115284193D01*
X162822117Y-115284798D01*
X162818000Y-115285000D01*
X162302000Y-115285000D01*
X162297883Y-115284798D01*
X162293806Y-115284193D01*
X162289808Y-115283191D01*
X162285927Y-115281803D01*
X162282201Y-115280041D01*
X162278666Y-115277922D01*
X162275355Y-115275466D01*
X162272302Y-115272698D01*
X162269534Y-115269645D01*
X162267078Y-115266334D01*
X162264959Y-115262799D01*
X162263197Y-115259073D01*
X162261809Y-115255192D01*
X162260807Y-115251194D01*
X162260202Y-115247117D01*
X162260000Y-115243000D01*
X162260000Y-113357000D01*
X162260202Y-113352883D01*
X162260807Y-113348806D01*
X162261809Y-113344808D01*
X162263197Y-113340927D01*
X162264959Y-113337201D01*
X162267078Y-113333666D01*
X162269534Y-113330355D01*
X162272302Y-113327302D01*
X162275355Y-113324534D01*
X162278666Y-113322078D01*
X162282201Y-113319959D01*
X162285927Y-113318197D01*
X162289808Y-113316809D01*
X162293806Y-113315807D01*
X162297883Y-113315202D01*
X162302000Y-113315000D01*
X162818000Y-113315000D01*
X162822117Y-113315202D01*
G37*
G36*
X161552117Y-113315202D02*
G01*
X161556194Y-113315807D01*
X161560192Y-113316809D01*
X161564073Y-113318197D01*
X161567799Y-113319959D01*
X161571334Y-113322078D01*
X161574645Y-113324534D01*
X161577698Y-113327302D01*
X161580466Y-113330355D01*
X161582922Y-113333666D01*
X161585041Y-113337201D01*
X161586803Y-113340927D01*
X161588191Y-113344808D01*
X161589193Y-113348806D01*
X161589798Y-113352883D01*
X161590000Y-113357000D01*
X161590000Y-115243000D01*
X161589798Y-115247117D01*
X161589193Y-115251194D01*
X161588191Y-115255192D01*
X161586803Y-115259073D01*
X161585041Y-115262799D01*
X161582922Y-115266334D01*
X161580466Y-115269645D01*
X161577698Y-115272698D01*
X161574645Y-115275466D01*
X161571334Y-115277922D01*
X161567799Y-115280041D01*
X161564073Y-115281803D01*
X161560192Y-115283191D01*
X161556194Y-115284193D01*
X161552117Y-115284798D01*
X161548000Y-115285000D01*
X161032000Y-115285000D01*
X161027883Y-115284798D01*
X161023806Y-115284193D01*
X161019808Y-115283191D01*
X161015927Y-115281803D01*
X161012201Y-115280041D01*
X161008666Y-115277922D01*
X161005355Y-115275466D01*
X161002302Y-115272698D01*
X160999534Y-115269645D01*
X160997078Y-115266334D01*
X160994959Y-115262799D01*
X160993197Y-115259073D01*
X160991809Y-115255192D01*
X160990807Y-115251194D01*
X160990202Y-115247117D01*
X160990000Y-115243000D01*
X160990000Y-113357000D01*
X160990202Y-113352883D01*
X160990807Y-113348806D01*
X160991809Y-113344808D01*
X160993197Y-113340927D01*
X160994959Y-113337201D01*
X160997078Y-113333666D01*
X160999534Y-113330355D01*
X161002302Y-113327302D01*
X161005355Y-113324534D01*
X161008666Y-113322078D01*
X161012201Y-113319959D01*
X161015927Y-113318197D01*
X161019808Y-113316809D01*
X161023806Y-113315807D01*
X161027883Y-113315202D01*
X161032000Y-113315000D01*
X161548000Y-113315000D01*
X161552117Y-113315202D01*
G37*
G36*
X161552117Y-118265202D02*
G01*
X161556194Y-118265807D01*
X161560192Y-118266809D01*
X161564073Y-118268197D01*
X161567799Y-118269959D01*
X161571334Y-118272078D01*
X161574645Y-118274534D01*
X161577698Y-118277302D01*
X161580466Y-118280355D01*
X161582922Y-118283666D01*
X161585041Y-118287201D01*
X161586803Y-118290927D01*
X161588191Y-118294808D01*
X161589193Y-118298806D01*
X161589798Y-118302883D01*
X161590000Y-118307000D01*
X161590000Y-120193000D01*
X161589798Y-120197117D01*
X161589193Y-120201194D01*
X161588191Y-120205192D01*
X161586803Y-120209073D01*
X161585041Y-120212799D01*
X161582922Y-120216334D01*
X161580466Y-120219645D01*
X161577698Y-120222698D01*
X161574645Y-120225466D01*
X161571334Y-120227922D01*
X161567799Y-120230041D01*
X161564073Y-120231803D01*
X161560192Y-120233191D01*
X161556194Y-120234193D01*
X161552117Y-120234798D01*
X161548000Y-120235000D01*
X161032000Y-120235000D01*
X161027883Y-120234798D01*
X161023806Y-120234193D01*
X161019808Y-120233191D01*
X161015927Y-120231803D01*
X161012201Y-120230041D01*
X161008666Y-120227922D01*
X161005355Y-120225466D01*
X161002302Y-120222698D01*
X160999534Y-120219645D01*
X160997078Y-120216334D01*
X160994959Y-120212799D01*
X160993197Y-120209073D01*
X160991809Y-120205192D01*
X160990807Y-120201194D01*
X160990202Y-120197117D01*
X160990000Y-120193000D01*
X160990000Y-118307000D01*
X160990202Y-118302883D01*
X160990807Y-118298806D01*
X160991809Y-118294808D01*
X160993197Y-118290927D01*
X160994959Y-118287201D01*
X160997078Y-118283666D01*
X160999534Y-118280355D01*
X161002302Y-118277302D01*
X161005355Y-118274534D01*
X161008666Y-118272078D01*
X161012201Y-118269959D01*
X161015927Y-118268197D01*
X161019808Y-118266809D01*
X161023806Y-118265807D01*
X161027883Y-118265202D01*
X161032000Y-118265000D01*
X161548000Y-118265000D01*
X161552117Y-118265202D01*
G37*
G36*
X162822117Y-118265202D02*
G01*
X162826194Y-118265807D01*
X162830192Y-118266809D01*
X162834073Y-118268197D01*
X162837799Y-118269959D01*
X162841334Y-118272078D01*
X162844645Y-118274534D01*
X162847698Y-118277302D01*
X162850466Y-118280355D01*
X162852922Y-118283666D01*
X162855041Y-118287201D01*
X162856803Y-118290927D01*
X162858191Y-118294808D01*
X162859193Y-118298806D01*
X162859798Y-118302883D01*
X162860000Y-118307000D01*
X162860000Y-120193000D01*
X162859798Y-120197117D01*
X162859193Y-120201194D01*
X162858191Y-120205192D01*
X162856803Y-120209073D01*
X162855041Y-120212799D01*
X162852922Y-120216334D01*
X162850466Y-120219645D01*
X162847698Y-120222698D01*
X162844645Y-120225466D01*
X162841334Y-120227922D01*
X162837799Y-120230041D01*
X162834073Y-120231803D01*
X162830192Y-120233191D01*
X162826194Y-120234193D01*
X162822117Y-120234798D01*
X162818000Y-120235000D01*
X162302000Y-120235000D01*
X162297883Y-120234798D01*
X162293806Y-120234193D01*
X162289808Y-120233191D01*
X162285927Y-120231803D01*
X162282201Y-120230041D01*
X162278666Y-120227922D01*
X162275355Y-120225466D01*
X162272302Y-120222698D01*
X162269534Y-120219645D01*
X162267078Y-120216334D01*
X162264959Y-120212799D01*
X162263197Y-120209073D01*
X162261809Y-120205192D01*
X162260807Y-120201194D01*
X162260202Y-120197117D01*
X162260000Y-120193000D01*
X162260000Y-118307000D01*
X162260202Y-118302883D01*
X162260807Y-118298806D01*
X162261809Y-118294808D01*
X162263197Y-118290927D01*
X162264959Y-118287201D01*
X162267078Y-118283666D01*
X162269534Y-118280355D01*
X162272302Y-118277302D01*
X162275355Y-118274534D01*
X162278666Y-118272078D01*
X162282201Y-118269959D01*
X162285927Y-118268197D01*
X162289808Y-118266809D01*
X162293806Y-118265807D01*
X162297883Y-118265202D01*
X162302000Y-118265000D01*
X162818000Y-118265000D01*
X162822117Y-118265202D01*
G37*
G36*
X164092117Y-118265202D02*
G01*
X164096194Y-118265807D01*
X164100192Y-118266809D01*
X164104073Y-118268197D01*
X164107799Y-118269959D01*
X164111334Y-118272078D01*
X164114645Y-118274534D01*
X164117698Y-118277302D01*
X164120466Y-118280355D01*
X164122922Y-118283666D01*
X164125041Y-118287201D01*
X164126803Y-118290927D01*
X164128191Y-118294808D01*
X164129193Y-118298806D01*
X164129798Y-118302883D01*
X164130000Y-118307000D01*
X164130000Y-120193000D01*
X164129798Y-120197117D01*
X164129193Y-120201194D01*
X164128191Y-120205192D01*
X164126803Y-120209073D01*
X164125041Y-120212799D01*
X164122922Y-120216334D01*
X164120466Y-120219645D01*
X164117698Y-120222698D01*
X164114645Y-120225466D01*
X164111334Y-120227922D01*
X164107799Y-120230041D01*
X164104073Y-120231803D01*
X164100192Y-120233191D01*
X164096194Y-120234193D01*
X164092117Y-120234798D01*
X164088000Y-120235000D01*
X163572000Y-120235000D01*
X163567883Y-120234798D01*
X163563806Y-120234193D01*
X163559808Y-120233191D01*
X163555927Y-120231803D01*
X163552201Y-120230041D01*
X163548666Y-120227922D01*
X163545355Y-120225466D01*
X163542302Y-120222698D01*
X163539534Y-120219645D01*
X163537078Y-120216334D01*
X163534959Y-120212799D01*
X163533197Y-120209073D01*
X163531809Y-120205192D01*
X163530807Y-120201194D01*
X163530202Y-120197117D01*
X163530000Y-120193000D01*
X163530000Y-118307000D01*
X163530202Y-118302883D01*
X163530807Y-118298806D01*
X163531809Y-118294808D01*
X163533197Y-118290927D01*
X163534959Y-118287201D01*
X163537078Y-118283666D01*
X163539534Y-118280355D01*
X163542302Y-118277302D01*
X163545355Y-118274534D01*
X163548666Y-118272078D01*
X163552201Y-118269959D01*
X163555927Y-118268197D01*
X163559808Y-118266809D01*
X163563806Y-118265807D01*
X163567883Y-118265202D01*
X163572000Y-118265000D01*
X164088000Y-118265000D01*
X164092117Y-118265202D01*
G37*
G36*
X165362117Y-118265202D02*
G01*
X165366194Y-118265807D01*
X165370192Y-118266809D01*
X165374073Y-118268197D01*
X165377799Y-118269959D01*
X165381334Y-118272078D01*
X165384645Y-118274534D01*
X165387698Y-118277302D01*
X165390466Y-118280355D01*
X165392922Y-118283666D01*
X165395041Y-118287201D01*
X165396803Y-118290927D01*
X165398191Y-118294808D01*
X165399193Y-118298806D01*
X165399798Y-118302883D01*
X165400000Y-118307000D01*
X165400000Y-120193000D01*
X165399798Y-120197117D01*
X165399193Y-120201194D01*
X165398191Y-120205192D01*
X165396803Y-120209073D01*
X165395041Y-120212799D01*
X165392922Y-120216334D01*
X165390466Y-120219645D01*
X165387698Y-120222698D01*
X165384645Y-120225466D01*
X165381334Y-120227922D01*
X165377799Y-120230041D01*
X165374073Y-120231803D01*
X165370192Y-120233191D01*
X165366194Y-120234193D01*
X165362117Y-120234798D01*
X165358000Y-120235000D01*
X164842000Y-120235000D01*
X164837883Y-120234798D01*
X164833806Y-120234193D01*
X164829808Y-120233191D01*
X164825927Y-120231803D01*
X164822201Y-120230041D01*
X164818666Y-120227922D01*
X164815355Y-120225466D01*
X164812302Y-120222698D01*
X164809534Y-120219645D01*
X164807078Y-120216334D01*
X164804959Y-120212799D01*
X164803197Y-120209073D01*
X164801809Y-120205192D01*
X164800807Y-120201194D01*
X164800202Y-120197117D01*
X164800000Y-120193000D01*
X164800000Y-118307000D01*
X164800202Y-118302883D01*
X164800807Y-118298806D01*
X164801809Y-118294808D01*
X164803197Y-118290927D01*
X164804959Y-118287201D01*
X164807078Y-118283666D01*
X164809534Y-118280355D01*
X164812302Y-118277302D01*
X164815355Y-118274534D01*
X164818666Y-118272078D01*
X164822201Y-118269959D01*
X164825927Y-118268197D01*
X164829808Y-118266809D01*
X164833806Y-118265807D01*
X164837883Y-118265202D01*
X164842000Y-118265000D01*
X165358000Y-118265000D01*
X165362117Y-118265202D01*
G37*
%TD*%
%TO.C,C5*%
G36*
X152297004Y-73317204D02*
G01*
X152321273Y-73320804D01*
X152345071Y-73326765D01*
X152368171Y-73335030D01*
X152390349Y-73345520D01*
X152411393Y-73358133D01*
X152431098Y-73372747D01*
X152449277Y-73389223D01*
X152465753Y-73407402D01*
X152480367Y-73427107D01*
X152492980Y-73448151D01*
X152503470Y-73470329D01*
X152511735Y-73493429D01*
X152517696Y-73517227D01*
X152521296Y-73541496D01*
X152522500Y-73566000D01*
X152522500Y-74516000D01*
X152521296Y-74540504D01*
X152517696Y-74564773D01*
X152511735Y-74588571D01*
X152503470Y-74611671D01*
X152492980Y-74633849D01*
X152480367Y-74654893D01*
X152465753Y-74674598D01*
X152449277Y-74692777D01*
X152431098Y-74709253D01*
X152411393Y-74723867D01*
X152390349Y-74736480D01*
X152368171Y-74746970D01*
X152345071Y-74755235D01*
X152321273Y-74761196D01*
X152297004Y-74764796D01*
X152272500Y-74766000D01*
X151597500Y-74766000D01*
X151572996Y-74764796D01*
X151548727Y-74761196D01*
X151524929Y-74755235D01*
X151501829Y-74746970D01*
X151479651Y-74736480D01*
X151458607Y-74723867D01*
X151438902Y-74709253D01*
X151420723Y-74692777D01*
X151404247Y-74674598D01*
X151389633Y-74654893D01*
X151377020Y-74633849D01*
X151366530Y-74611671D01*
X151358265Y-74588571D01*
X151352304Y-74564773D01*
X151348704Y-74540504D01*
X151347500Y-74516000D01*
X151347500Y-73566000D01*
X151348704Y-73541496D01*
X151352304Y-73517227D01*
X151358265Y-73493429D01*
X151366530Y-73470329D01*
X151377020Y-73448151D01*
X151389633Y-73427107D01*
X151404247Y-73407402D01*
X151420723Y-73389223D01*
X151438902Y-73372747D01*
X151458607Y-73358133D01*
X151479651Y-73345520D01*
X151501829Y-73335030D01*
X151524929Y-73326765D01*
X151548727Y-73320804D01*
X151572996Y-73317204D01*
X151597500Y-73316000D01*
X152272500Y-73316000D01*
X152297004Y-73317204D01*
G37*
G36*
X150222004Y-73317204D02*
G01*
X150246273Y-73320804D01*
X150270071Y-73326765D01*
X150293171Y-73335030D01*
X150315349Y-73345520D01*
X150336393Y-73358133D01*
X150356098Y-73372747D01*
X150374277Y-73389223D01*
X150390753Y-73407402D01*
X150405367Y-73427107D01*
X150417980Y-73448151D01*
X150428470Y-73470329D01*
X150436735Y-73493429D01*
X150442696Y-73517227D01*
X150446296Y-73541496D01*
X150447500Y-73566000D01*
X150447500Y-74516000D01*
X150446296Y-74540504D01*
X150442696Y-74564773D01*
X150436735Y-74588571D01*
X150428470Y-74611671D01*
X150417980Y-74633849D01*
X150405367Y-74654893D01*
X150390753Y-74674598D01*
X150374277Y-74692777D01*
X150356098Y-74709253D01*
X150336393Y-74723867D01*
X150315349Y-74736480D01*
X150293171Y-74746970D01*
X150270071Y-74755235D01*
X150246273Y-74761196D01*
X150222004Y-74764796D01*
X150197500Y-74766000D01*
X149522500Y-74766000D01*
X149497996Y-74764796D01*
X149473727Y-74761196D01*
X149449929Y-74755235D01*
X149426829Y-74746970D01*
X149404651Y-74736480D01*
X149383607Y-74723867D01*
X149363902Y-74709253D01*
X149345723Y-74692777D01*
X149329247Y-74674598D01*
X149314633Y-74654893D01*
X149302020Y-74633849D01*
X149291530Y-74611671D01*
X149283265Y-74588571D01*
X149277304Y-74564773D01*
X149273704Y-74540504D01*
X149272500Y-74516000D01*
X149272500Y-73566000D01*
X149273704Y-73541496D01*
X149277304Y-73517227D01*
X149283265Y-73493429D01*
X149291530Y-73470329D01*
X149302020Y-73448151D01*
X149314633Y-73427107D01*
X149329247Y-73407402D01*
X149345723Y-73389223D01*
X149363902Y-73372747D01*
X149383607Y-73358133D01*
X149404651Y-73345520D01*
X149426829Y-73335030D01*
X149449929Y-73326765D01*
X149473727Y-73320804D01*
X149497996Y-73317204D01*
X149522500Y-73316000D01*
X150197500Y-73316000D01*
X150222004Y-73317204D01*
G37*
%TD*%
%TO.C,C6*%
G36*
X151449004Y-71031204D02*
G01*
X151473273Y-71034804D01*
X151497071Y-71040765D01*
X151520171Y-71049030D01*
X151542349Y-71059520D01*
X151563393Y-71072133D01*
X151583098Y-71086747D01*
X151601277Y-71103223D01*
X151617753Y-71121402D01*
X151632367Y-71141107D01*
X151644980Y-71162151D01*
X151655470Y-71184329D01*
X151663735Y-71207429D01*
X151669696Y-71231227D01*
X151673296Y-71255496D01*
X151674500Y-71280000D01*
X151674500Y-72230000D01*
X151673296Y-72254504D01*
X151669696Y-72278773D01*
X151663735Y-72302571D01*
X151655470Y-72325671D01*
X151644980Y-72347849D01*
X151632367Y-72368893D01*
X151617753Y-72388598D01*
X151601277Y-72406777D01*
X151583098Y-72423253D01*
X151563393Y-72437867D01*
X151542349Y-72450480D01*
X151520171Y-72460970D01*
X151497071Y-72469235D01*
X151473273Y-72475196D01*
X151449004Y-72478796D01*
X151424500Y-72480000D01*
X150749500Y-72480000D01*
X150724996Y-72478796D01*
X150700727Y-72475196D01*
X150676929Y-72469235D01*
X150653829Y-72460970D01*
X150631651Y-72450480D01*
X150610607Y-72437867D01*
X150590902Y-72423253D01*
X150572723Y-72406777D01*
X150556247Y-72388598D01*
X150541633Y-72368893D01*
X150529020Y-72347849D01*
X150518530Y-72325671D01*
X150510265Y-72302571D01*
X150504304Y-72278773D01*
X150500704Y-72254504D01*
X150499500Y-72230000D01*
X150499500Y-71280000D01*
X150500704Y-71255496D01*
X150504304Y-71231227D01*
X150510265Y-71207429D01*
X150518530Y-71184329D01*
X150529020Y-71162151D01*
X150541633Y-71141107D01*
X150556247Y-71121402D01*
X150572723Y-71103223D01*
X150590902Y-71086747D01*
X150610607Y-71072133D01*
X150631651Y-71059520D01*
X150653829Y-71049030D01*
X150676929Y-71040765D01*
X150700727Y-71034804D01*
X150724996Y-71031204D01*
X150749500Y-71030000D01*
X151424500Y-71030000D01*
X151449004Y-71031204D01*
G37*
G36*
X153524004Y-71031204D02*
G01*
X153548273Y-71034804D01*
X153572071Y-71040765D01*
X153595171Y-71049030D01*
X153617349Y-71059520D01*
X153638393Y-71072133D01*
X153658098Y-71086747D01*
X153676277Y-71103223D01*
X153692753Y-71121402D01*
X153707367Y-71141107D01*
X153719980Y-71162151D01*
X153730470Y-71184329D01*
X153738735Y-71207429D01*
X153744696Y-71231227D01*
X153748296Y-71255496D01*
X153749500Y-71280000D01*
X153749500Y-72230000D01*
X153748296Y-72254504D01*
X153744696Y-72278773D01*
X153738735Y-72302571D01*
X153730470Y-72325671D01*
X153719980Y-72347849D01*
X153707367Y-72368893D01*
X153692753Y-72388598D01*
X153676277Y-72406777D01*
X153658098Y-72423253D01*
X153638393Y-72437867D01*
X153617349Y-72450480D01*
X153595171Y-72460970D01*
X153572071Y-72469235D01*
X153548273Y-72475196D01*
X153524004Y-72478796D01*
X153499500Y-72480000D01*
X152824500Y-72480000D01*
X152799996Y-72478796D01*
X152775727Y-72475196D01*
X152751929Y-72469235D01*
X152728829Y-72460970D01*
X152706651Y-72450480D01*
X152685607Y-72437867D01*
X152665902Y-72423253D01*
X152647723Y-72406777D01*
X152631247Y-72388598D01*
X152616633Y-72368893D01*
X152604020Y-72347849D01*
X152593530Y-72325671D01*
X152585265Y-72302571D01*
X152579304Y-72278773D01*
X152575704Y-72254504D01*
X152574500Y-72230000D01*
X152574500Y-71280000D01*
X152575704Y-71255496D01*
X152579304Y-71231227D01*
X152585265Y-71207429D01*
X152593530Y-71184329D01*
X152604020Y-71162151D01*
X152616633Y-71141107D01*
X152631247Y-71121402D01*
X152647723Y-71103223D01*
X152665902Y-71086747D01*
X152685607Y-71072133D01*
X152706651Y-71059520D01*
X152728829Y-71049030D01*
X152751929Y-71040765D01*
X152775727Y-71034804D01*
X152799996Y-71031204D01*
X152824500Y-71030000D01*
X153499500Y-71030000D01*
X153524004Y-71031204D01*
G37*
%TD*%
%TO.C,R1*%
G36*
X165220505Y-110553204D02*
G01*
X165244773Y-110556804D01*
X165268572Y-110562765D01*
X165291671Y-110571030D01*
X165313850Y-110581520D01*
X165334893Y-110594132D01*
X165354599Y-110608747D01*
X165372777Y-110625223D01*
X165389253Y-110643401D01*
X165403868Y-110663107D01*
X165416480Y-110684150D01*
X165426970Y-110706329D01*
X165435235Y-110729428D01*
X165441196Y-110753227D01*
X165444796Y-110777495D01*
X165446000Y-110801999D01*
X165446000Y-111702001D01*
X165444796Y-111726505D01*
X165441196Y-111750773D01*
X165435235Y-111774572D01*
X165426970Y-111797671D01*
X165416480Y-111819850D01*
X165403868Y-111840893D01*
X165389253Y-111860599D01*
X165372777Y-111878777D01*
X165354599Y-111895253D01*
X165334893Y-111909868D01*
X165313850Y-111922480D01*
X165291671Y-111932970D01*
X165268572Y-111941235D01*
X165244773Y-111947196D01*
X165220505Y-111950796D01*
X165196001Y-111952000D01*
X164495999Y-111952000D01*
X164471495Y-111950796D01*
X164447227Y-111947196D01*
X164423428Y-111941235D01*
X164400329Y-111932970D01*
X164378150Y-111922480D01*
X164357107Y-111909868D01*
X164337401Y-111895253D01*
X164319223Y-111878777D01*
X164302747Y-111860599D01*
X164288132Y-111840893D01*
X164275520Y-111819850D01*
X164265030Y-111797671D01*
X164256765Y-111774572D01*
X164250804Y-111750773D01*
X164247204Y-111726505D01*
X164246000Y-111702001D01*
X164246000Y-110801999D01*
X164247204Y-110777495D01*
X164250804Y-110753227D01*
X164256765Y-110729428D01*
X164265030Y-110706329D01*
X164275520Y-110684150D01*
X164288132Y-110663107D01*
X164302747Y-110643401D01*
X164319223Y-110625223D01*
X164337401Y-110608747D01*
X164357107Y-110594132D01*
X164378150Y-110581520D01*
X164400329Y-110571030D01*
X164423428Y-110562765D01*
X164447227Y-110556804D01*
X164471495Y-110553204D01*
X164495999Y-110552000D01*
X165196001Y-110552000D01*
X165220505Y-110553204D01*
G37*
G36*
X163220505Y-110553204D02*
G01*
X163244773Y-110556804D01*
X163268572Y-110562765D01*
X163291671Y-110571030D01*
X163313850Y-110581520D01*
X163334893Y-110594132D01*
X163354599Y-110608747D01*
X163372777Y-110625223D01*
X163389253Y-110643401D01*
X163403868Y-110663107D01*
X163416480Y-110684150D01*
X163426970Y-110706329D01*
X163435235Y-110729428D01*
X163441196Y-110753227D01*
X163444796Y-110777495D01*
X163446000Y-110801999D01*
X163446000Y-111702001D01*
X163444796Y-111726505D01*
X163441196Y-111750773D01*
X163435235Y-111774572D01*
X163426970Y-111797671D01*
X163416480Y-111819850D01*
X163403868Y-111840893D01*
X163389253Y-111860599D01*
X163372777Y-111878777D01*
X163354599Y-111895253D01*
X163334893Y-111909868D01*
X163313850Y-111922480D01*
X163291671Y-111932970D01*
X163268572Y-111941235D01*
X163244773Y-111947196D01*
X163220505Y-111950796D01*
X163196001Y-111952000D01*
X162495999Y-111952000D01*
X162471495Y-111950796D01*
X162447227Y-111947196D01*
X162423428Y-111941235D01*
X162400329Y-111932970D01*
X162378150Y-111922480D01*
X162357107Y-111909868D01*
X162337401Y-111895253D01*
X162319223Y-111878777D01*
X162302747Y-111860599D01*
X162288132Y-111840893D01*
X162275520Y-111819850D01*
X162265030Y-111797671D01*
X162256765Y-111774572D01*
X162250804Y-111750773D01*
X162247204Y-111726505D01*
X162246000Y-111702001D01*
X162246000Y-110801999D01*
X162247204Y-110777495D01*
X162250804Y-110753227D01*
X162256765Y-110729428D01*
X162265030Y-110706329D01*
X162275520Y-110684150D01*
X162288132Y-110663107D01*
X162302747Y-110643401D01*
X162319223Y-110625223D01*
X162337401Y-110608747D01*
X162357107Y-110594132D01*
X162378150Y-110581520D01*
X162400329Y-110571030D01*
X162423428Y-110562765D01*
X162447227Y-110556804D01*
X162471495Y-110553204D01*
X162495999Y-110552000D01*
X163196001Y-110552000D01*
X163220505Y-110553204D01*
G37*
%TD*%
%TO.C,C1*%
G36*
X158741504Y-118709704D02*
G01*
X158765773Y-118713304D01*
X158789571Y-118719265D01*
X158812671Y-118727530D01*
X158834849Y-118738020D01*
X158855893Y-118750633D01*
X158875598Y-118765247D01*
X158893777Y-118781723D01*
X158910253Y-118799902D01*
X158924867Y-118819607D01*
X158937480Y-118840651D01*
X158947970Y-118862829D01*
X158956235Y-118885929D01*
X158962196Y-118909727D01*
X158965796Y-118933996D01*
X158967000Y-118958500D01*
X158967000Y-119633500D01*
X158965796Y-119658004D01*
X158962196Y-119682273D01*
X158956235Y-119706071D01*
X158947970Y-119729171D01*
X158937480Y-119751349D01*
X158924867Y-119772393D01*
X158910253Y-119792098D01*
X158893777Y-119810277D01*
X158875598Y-119826753D01*
X158855893Y-119841367D01*
X158834849Y-119853980D01*
X158812671Y-119864470D01*
X158789571Y-119872735D01*
X158765773Y-119878696D01*
X158741504Y-119882296D01*
X158717000Y-119883500D01*
X157767000Y-119883500D01*
X157742496Y-119882296D01*
X157718227Y-119878696D01*
X157694429Y-119872735D01*
X157671329Y-119864470D01*
X157649151Y-119853980D01*
X157628107Y-119841367D01*
X157608402Y-119826753D01*
X157590223Y-119810277D01*
X157573747Y-119792098D01*
X157559133Y-119772393D01*
X157546520Y-119751349D01*
X157536030Y-119729171D01*
X157527765Y-119706071D01*
X157521804Y-119682273D01*
X157518204Y-119658004D01*
X157517000Y-119633500D01*
X157517000Y-118958500D01*
X157518204Y-118933996D01*
X157521804Y-118909727D01*
X157527765Y-118885929D01*
X157536030Y-118862829D01*
X157546520Y-118840651D01*
X157559133Y-118819607D01*
X157573747Y-118799902D01*
X157590223Y-118781723D01*
X157608402Y-118765247D01*
X157628107Y-118750633D01*
X157649151Y-118738020D01*
X157671329Y-118727530D01*
X157694429Y-118719265D01*
X157718227Y-118713304D01*
X157742496Y-118709704D01*
X157767000Y-118708500D01*
X158717000Y-118708500D01*
X158741504Y-118709704D01*
G37*
G36*
X158741504Y-116634704D02*
G01*
X158765773Y-116638304D01*
X158789571Y-116644265D01*
X158812671Y-116652530D01*
X158834849Y-116663020D01*
X158855893Y-116675633D01*
X158875598Y-116690247D01*
X158893777Y-116706723D01*
X158910253Y-116724902D01*
X158924867Y-116744607D01*
X158937480Y-116765651D01*
X158947970Y-116787829D01*
X158956235Y-116810929D01*
X158962196Y-116834727D01*
X158965796Y-116858996D01*
X158967000Y-116883500D01*
X158967000Y-117558500D01*
X158965796Y-117583004D01*
X158962196Y-117607273D01*
X158956235Y-117631071D01*
X158947970Y-117654171D01*
X158937480Y-117676349D01*
X158924867Y-117697393D01*
X158910253Y-117717098D01*
X158893777Y-117735277D01*
X158875598Y-117751753D01*
X158855893Y-117766367D01*
X158834849Y-117778980D01*
X158812671Y-117789470D01*
X158789571Y-117797735D01*
X158765773Y-117803696D01*
X158741504Y-117807296D01*
X158717000Y-117808500D01*
X157767000Y-117808500D01*
X157742496Y-117807296D01*
X157718227Y-117803696D01*
X157694429Y-117797735D01*
X157671329Y-117789470D01*
X157649151Y-117778980D01*
X157628107Y-117766367D01*
X157608402Y-117751753D01*
X157590223Y-117735277D01*
X157573747Y-117717098D01*
X157559133Y-117697393D01*
X157546520Y-117676349D01*
X157536030Y-117654171D01*
X157527765Y-117631071D01*
X157521804Y-117607273D01*
X157518204Y-117583004D01*
X157517000Y-117558500D01*
X157517000Y-116883500D01*
X157518204Y-116858996D01*
X157521804Y-116834727D01*
X157527765Y-116810929D01*
X157536030Y-116787829D01*
X157546520Y-116765651D01*
X157559133Y-116744607D01*
X157573747Y-116724902D01*
X157590223Y-116706723D01*
X157608402Y-116690247D01*
X157628107Y-116675633D01*
X157649151Y-116663020D01*
X157671329Y-116652530D01*
X157694429Y-116644265D01*
X157718227Y-116638304D01*
X157742496Y-116634704D01*
X157767000Y-116633500D01*
X158717000Y-116633500D01*
X158741504Y-116634704D01*
G37*
%TD*%
D10*
%TO.C,J3*%
X115062000Y-125730000D03*
D11*
X112522000Y-125730000D03*
%TD*%
D20*
%TO.C,J5*%
X149606000Y-46926000D03*
D21*
X149606000Y-51426000D03*
%TD*%
D31*
%TO.C,U2*%
X151828500Y-69529000D03*
X151193500Y-69529000D03*
X150558500Y-69529000D03*
X149923500Y-69529000D03*
X149288500Y-69529000D03*
X148653500Y-69529000D03*
X148018500Y-69529000D03*
X147383500Y-69529000D03*
X146748500Y-69529000D03*
X146113500Y-69529000D03*
X145478500Y-69529000D03*
X144843500Y-69529000D03*
X144843500Y-64329000D03*
X145478500Y-64329000D03*
X146113500Y-64329000D03*
X146748500Y-64329000D03*
X147383500Y-64329000D03*
X148018500Y-64329000D03*
X148653500Y-64329000D03*
X149288500Y-64329000D03*
X149923500Y-64329000D03*
X150558500Y-64329000D03*
X151193500Y-64329000D03*
X151828500Y-64329000D03*
%TD*%
M02*
